<?xml version="1.0" standalone="no"?>
<!DOCTYPE svg PUBLIC "-//W3C//DTD SVG 20010904//EN"
 "http://www.w3.org/TR/2001/REC-SVG-20010904/DTD/svg10.dtd">
<svg version="1.0" xmlns="http://www.w3.org/2000/svg"
 width="1280.000000pt" height="1280.000000pt" viewBox="0 0 1280.000000 1280.000000"
 preserveAspectRatio="xMidYMid meet">
<metadata>
Created by potrace 1.11, written by Peter Selinger 2001-2013
</metadata>
<g transform="translate(0.000000,1280.000000) scale(0.100000,-0.100000)"
fill="#000000" stroke="none">
<path d="M2162 11190 c-18 -5 -18 -22 -16 -490 1 -267 3 -488 3 -492 1 -4 18
-8 39 -7 58 0 109 0 220 2 56 1 102 -2 102 -6 0 -5 6 -5 12 -1 7 5 357 9 778
10 421 1 772 3 781 3 15 1 16 48 15 494 l-2 492 -956 0 c-526 0 -965 -2 -976
-5z"/>
<path d="M6287 10064 c-1 -1 -54 -5 -117 -9 -167 -9 -274 -19 -340 -31 -14 -2
-45 -6 -70 -10 -25 -3 -53 -8 -63 -10 -10 -3 -30 -7 -45 -9 -15 -3 -38 -7 -52
-10 -46 -10 -85 -17 -105 -20 -11 -2 -21 -4 -22 -5 -3 -3 -2 -2 -58 -15 -46
-10 -53 -12 -60 -15 -3 -1 -9 -4 -15 -5 -5 -1 -11 -3 -12 -5 -2 -1 -12 -3 -23
-5 -35 -6 -214 -58 -245 -72 -23 -10 -23 -10 -57 -18 -18 -4 -33 -12 -33 -17
0 -5 -4 -7 -8 -4 -4 2 -38 -8 -75 -24 -37 -15 -67 -26 -67 -24 0 3 -12 -4 -27
-13 -15 -10 -27 -16 -28 -14 -1 10 -316 -143 -429 -208 -48 -28 -89 -51 -91
-51 -2 0 -24 -13 -48 -30 -25 -16 -48 -30 -52 -30 -3 0 -13 -7 -22 -15 -8 -9
-17 -14 -19 -12 -2 2 -5 154 -6 338 l-3 334 -492 0 c-271 0 -493 -4 -493 -8 0
-5 -5 -5 -11 -1 -14 8 -364 8 -378 0 -5 -4 -13 -2 -16 4 -5 8 -11 8 -20 0 -9
-7 -15 -8 -19 -1 -4 6 -13 8 -21 5 -8 -3 -122 -7 -252 -7 l-238 -2 0 -652 c0
-359 3 -653 7 -653 4 0 3 -11 -2 -25 -6 -17 -6 -25 1 -25 6 0 7 -5 4 -11 -10
-16 -12 -79 -2 -79 4 0 5 -5 1 -12 -11 -17 -11 -78 -1 -78 4 0 5 -5 2 -11 -10
-15 -13 -69 -4 -75 4 -2 4 -18 -1 -34 -5 -18 -5 -32 1 -36 5 -3 6 -10 3 -16
-8 -13 -11 -68 -4 -68 3 0 5 -16 5 -35 0 -19 -4 -35 -8 -35 -4 0 -3 -8 2 -18
7 -13 7 -22 0 -29 -8 -8 -7 -13 0 -17 8 -5 8 -13 1 -27 -6 -10 -7 -19 -3 -19
4 0 8 -11 8 -25 0 -14 -4 -25 -8 -25 -4 0 -4 -7 1 -17 6 -9 6 -29 2 -45 -5
-15 -5 -28 -1 -28 5 0 6 -12 4 -27 -4 -27 -4 -42 0 -93 1 -14 -2 -31 -7 -37
-5 -8 -4 -13 2 -13 7 0 8 -10 2 -29 -4 -16 -6 -32 -3 -34 9 -10 10 -57 0 -57
-6 0 -6 -5 0 -12 11 -16 11 -88 0 -105 -5 -7 -5 -13 0 -13 4 0 8 -18 8 -40 0
-22 -4 -40 -8 -40 -5 0 -5 -5 -1 -12 11 -18 12 -221 1 -235 -5 -7 -6 -13 -1
-13 5 0 10 -311 11 -703 2 -741 5 -967 13 -967 3 0 6 -21 6 -48 1 -46 11 -147
14 -147 1 0 3 -25 6 -55 2 -30 9 -79 15 -109 6 -30 12 -64 14 -75 7 -49 18
-105 32 -166 8 -36 17 -76 19 -90 3 -14 7 -32 10 -40 3 -8 8 -26 10 -40 3 -14
7 -32 11 -40 3 -8 8 -23 9 -32 6 -30 111 -343 127 -379 16 -36 24 -59 25 -72
1 -4 8 -20 16 -35 28 -52 76 -161 76 -171 0 -6 5 -11 12 -11 6 0 9 -3 5 -6 -5
-6 73 -163 95 -191 6 -7 8 -13 4 -13 -3 0 16 -36 44 -80 27 -44 50 -84 50 -90
0 -5 5 -10 10 -10 6 0 10 -5 10 -12 0 -6 11 -25 24 -42 12 -17 30 -44 39 -61
8 -16 27 -43 41 -60 14 -16 26 -34 26 -38 0 -5 6 -14 12 -21 7 -8 40 -50 72
-95 32 -44 63 -81 67 -81 5 0 9 -6 9 -14 0 -8 8 -21 18 -28 11 -7 21 -18 23
-24 5 -14 107 -130 209 -237 41 -43 77 -83 78 -88 2 -5 7 -9 11 -9 4 0 37 -28
72 -63 79 -76 174 -158 203 -174 11 -7 17 -12 11 -13 -5 0 8 -12 30 -27 22
-15 45 -32 52 -37 6 -6 26 -22 44 -36 18 -14 38 -31 45 -38 7 -6 15 -12 19
-12 3 0 27 -16 52 -35 25 -19 50 -32 56 -28 5 3 7 2 4 -3 -3 -6 15 -23 41 -39
26 -16 50 -34 54 -40 4 -5 8 -6 8 -2 0 4 15 -3 33 -16 48 -37 205 -126 347
-196 69 -35 136 -69 150 -76 14 -7 28 -14 32 -15 10 -1 73 -27 113 -45 68 -31
135 -54 135 -47 0 4 4 2 8 -4 9 -14 329 -117 432 -138 14 -3 45 -10 70 -17 25
-6 54 -12 65 -14 11 -1 20 -3 20 -5 0 -2 33 -8 85 -14 19 -3 37 -6 40 -7 3 -1
10 -3 15 -4 6 -2 12 -4 15 -5 3 -1 19 -3 35 -5 63 -8 121 -16 150 -21 261 -39
773 -39 1065 1 19 2 55 7 80 10 25 3 59 9 75 12 17 3 39 6 50 7 11 1 26 5 33
9 6 5 12 5 12 1 0 -3 8 0 17 7 14 12 16 12 8 0 -5 -10 -4 -12 4 -7 10 7 35 13
86 21 32 5 228 55 245 62 8 3 22 7 31 9 29 6 183 55 204 64 11 6 29 12 40 13
11 2 31 9 45 14 28 12 183 75 215 88 11 5 23 7 28 7 4 -1 7 3 7 10 0 6 3 8 7
5 3 -4 13 -1 22 6 9 8 39 22 66 32 28 10 52 21 55 24 3 3 37 22 75 41 39 19
117 62 175 95 58 34 116 68 129 76 14 8 34 22 45 32 11 9 24 17 28 17 10 0 61
35 92 63 11 9 23 17 27 17 4 0 14 6 21 13 7 7 42 33 78 59 36 26 77 57 92 70
15 14 39 33 54 44 14 10 31 24 38 29 117 103 200 180 291 271 119 121 132 134
219 239 32 39 63 75 70 80 18 17 56 73 56 85 0 5 4 10 10 10 5 0 24 21 42 48
18 26 40 56 50 66 10 11 18 25 18 32 0 7 4 14 8 16 11 4 122 174 122 186 0 6
4 12 10 14 9 3 42 57 82 138 13 25 26 47 29 50 3 3 16 28 30 55 13 28 27 52
32 53 4 2 7 10 7 17 0 7 15 44 34 81 47 95 74 158 103 234 13 36 31 80 39 98
8 18 17 41 19 52 2 10 8 27 13 37 6 10 10 20 9 23 0 5 20 74 30 100 8 20 7 17
47 165 37 136 71 290 81 364 3 23 7 46 9 50 5 8 26 165 31 241 2 19 4 35 5 35
4 0 20 325 21 410 1 53 -18 390 -21 390 -1 0 -3 25 -6 55 -4 51 -11 105 -14
105 0 0 -3 20 -5 45 -2 25 -7 63 -11 85 -3 22 -7 46 -7 53 0 6 -3 12 -7 12 -3
0 -6 12 -6 28 0 15 -4 43 -8 62 -27 123 -58 257 -63 270 -3 8 -8 21 -10 28 -1
6 -5 18 -6 25 -2 6 -7 19 -10 27 -4 8 -9 26 -11 40 -3 14 -5 25 -6 25 -1 0 -3
9 -5 21 -3 12 -14 42 -25 68 -11 26 -20 52 -20 57 0 25 -119 309 -190 453 -68
140 -183 351 -207 381 -22 27 -63 96 -63 105 0 5 -5 10 -10 10 -6 0 -16 12
-23 27 -6 15 -19 35 -27 44 -8 9 -22 26 -30 38 -37 56 -135 184 -162 213 -10
10 -18 21 -18 26 0 4 -8 15 -17 23 -10 9 -43 44 -73 80 -58 67 -305 319 -312
319 -3 0 -25 19 -49 43 -25 23 -67 60 -93 82 -27 22 -54 45 -60 50 -6 6 -27
22 -46 35 -19 13 -37 27 -40 31 -3 3 -43 34 -90 67 -47 34 -90 66 -97 72 -7 5
-17 10 -23 10 -5 0 -10 4 -10 9 0 5 -10 13 -22 17 -13 4 -25 10 -28 13 -7 10
-160 104 -195 121 -16 8 -37 20 -45 26 -19 16 -124 68 -129 65 -2 -2 -7 1 -10
6 -3 5 -33 22 -66 37 -33 16 -85 41 -115 56 -30 14 -59 28 -65 30 -5 1 -26 9
-45 18 -42 18 -57 24 -135 52 -33 12 -68 26 -77 31 -10 5 -26 9 -36 9 -10 0
-22 4 -27 9 -9 7 -186 64 -240 76 -11 2 -45 11 -75 19 -30 8 -68 17 -85 20
-16 2 -30 5 -30 6 0 1 -7 3 -15 5 -8 1 -40 8 -70 14 -77 16 -98 20 -144 27
-22 3 -43 7 -46 9 -3 1 -34 6 -70 9 -36 4 -78 9 -95 11 -16 3 -59 7 -95 10
-36 3 -91 7 -123 10 -32 2 -62 7 -67 10 -5 3 -11 1 -15 -5 -4 -6 -11 -8 -16
-4 -10 6 -93 9 -114 4 -5 -1 -14 -1 -20 0 -11 3 -146 6 -148 4z"/>
</g>
</svg>
