<svg id="Layer_1" data-name="Layer 1" xmlns="http://www.w3.org/2000/svg" viewBox="0 0 205.27 204.1"><defs><style>.cls-1{fill:#036;}.cls-2{fill:#24a2b7;stroke:#fff;stroke-miterlimit:10;}</style></defs><title>binningconsultants</title><path class="cls-1" d="M297.4,225.8a101.5,101.5,0,1,1-203,0V124.2H141v16.2a101.41,101.41,0,0,1,156.4,85.4Z" transform="translate(-93.9 -123.7)"/><path class="cls-2" d="M196.53,124.2c-56.41,0-102.13,45.47-102.13,101.55S140.13,327.3,196.53,327.3s102.13-45.47,102.13-101.55S252.94,124.2,196.53,124.2Zm16,190.17c-47,0-85.11-39.68-85.11-88.62s38.11-88.62,85.11-88.62,85.11,39.68,85.11,88.62S259.58,314.37,212.58,314.37Z" transform="translate(-93.9 -123.7)"/></svg>