<?xml version="1.0" encoding="UTF-8"?>
<svg viewBox="0 0 3840 1080" xmlns="http://www.w3.org/2000/svg">
 <defs>
  <clipPath id="e">
   <path d="m0-27.638h3840v1080h-3840z"/>
  </clipPath>
  <filter id="a" x="-.03165" y="-.57585" width="1.0633" height="2.1517">
   <feGaussianBlur stdDeviation="21.0506"/>
  </filter>
  <linearGradient id="d" x1="986.53" x2="995.61" y1="1107.2" y2="-21.529" gradientTransform="matrix(1.9777 0 0 1 -6.2998 -21.224)" gradientUnits="userSpaceOnUse">
   <stop stop-color="#f09e14" offset="0"/>
   <stop stop-color="#fee101" offset=".6976"/>
   <stop stop-color="#aedacf" offset="1"/>
  </linearGradient>
  <linearGradient id="c" x1="2025.9" x2="2036" y1="1529.5" y2="1986.4" gradientUnits="userSpaceOnUse">
   <stop stop-color="#2d1201" offset="0"/>
   <stop stop-color="#2d1201" stop-opacity="0" offset="1"/>
  </linearGradient>
  <linearGradient id="b" x1="2052.3" x2="2062.5" y1="1462.8" y2="1868.1" gradientUnits="userSpaceOnUse">
   <stop stop-color="#220c01" offset="0"/>
   <stop stop-color="#220c01" stop-opacity="0" offset="1"/>
  </linearGradient>
 </defs>
 <g transform="translate(0 27.638)" clip-path="url(#e)">
  <path d="m-36.225-39.726h3902.2v1125.7h-3902.2z" fill="url(#d)"/>
  <path transform="matrix(-1.1576 0 0 1 1847 -52.008)" d="m23.538 243.33 485.74-42.797 151.93 44.936 318.83-57.775 188.31 17.119 269.62 14.979 171.19 2.1398-226.82 8.5593-235.38 2.1398-216.12-14.979-216.12 57.775-263.2-25.678-323.11 14.979-115.55-27.818z" fill="#f09e14" filter="url(#a)"/>
  <path transform="matrix(-1 0 0 1 4182.4 -164.88)" d="m434.39 378.14 485.74-42.797 151.93 44.936 318.83-57.775 188.31 17.119 269.62 14.979 171.19 2.1398-226.82 8.5593-235.38 2.1398-216.12-14.979-216.12 57.775-263.2-25.678-323.11 14.979-115.55-27.818z" fill="#f09e14" filter="url(#a)"/>
  <path transform="matrix(.59193 0 0 .59193 957.15 287.25)" d="m23.538 243.33 485.74-42.797 151.93 44.936 318.83-57.775 188.31 17.119 269.62 14.979 171.19 2.1398-226.82 8.5593-235.38 2.1398-216.12-14.979-216.12 57.775-263.2-25.678-323.11 14.979-115.55-27.818z" fill="#f09e14" filter="url(#a)"/>
  <path transform="translate(985.9 -17.479)" d="m1574.9 480.85c0 2.3636-1.9161 4.2797-4.2797 4.2797s-4.2796-1.9161-4.2796-4.2797 1.916-4.2797 4.2796-4.2797 4.2797 1.9161 4.2797 4.2797z" fill="#220c01"/>
  <path transform="matrix(.59193 0 0 .59193 228.6 225.68)" d="m23.538 243.33 485.74-42.797 151.93 44.936 318.83-57.775 188.31 17.119 269.62 14.979 171.19 2.1398-226.82 8.5593-235.38 2.1398-216.12-14.979-216.12 57.775-263.2-25.678-323.11 14.979-115.55-27.818z" fill="#f09e14" filter="url(#a)"/>
  <path transform="matrix(.59193 0 0 .59193 1890.9 215.42)" d="m23.538 243.33 485.74-42.797 151.93 44.936 318.83-57.775 188.31 17.119 269.62 14.979 171.19 2.1398-226.82 8.5593-235.38 2.1398-216.12-14.979-216.12 57.775-263.2-25.678-323.11 14.979-115.55-27.818z" fill="#f09e14" filter="url(#a)"/>
  <path transform="matrix(-.59193 0 0 .59193 3815.6 184.64)" d="m23.538 243.33 485.74-42.797 151.93 44.936 318.83-57.775 188.31 17.119 269.62 14.979 171.19 2.1398-226.82 8.5593-235.38 2.1398-216.12-14.979-216.12 57.775-263.2-25.678-323.11 14.979-115.55-27.818z" fill="#f09e14" filter="url(#a)"/>
  <g transform="translate(-117.14 -944.04)">
   <path d="m2338.604,2170.7602c-1.3261,0-2.6181-2.0277-2.9376-6.0937-.5655-7.1876-5.4876-14.6593-20.1562-30.6563-12.4702-13.5995-13.4101-19.633-4.5-29.7812 4.9245-5.608 5.9062-8.4124 5.9062-16.8125 0-8.7758-.5084-10.0938-3.9374-10.0938-2.6281,0-3.9375-1.3087-3.9376-3.9375 0-2.1686.9944-3.9687 2.1563-3.9687 .7843,0 .8558-.6078.3125-1.5h-6.875v-6.4063-2.0937-1.625h.1875c.6625-2.59 2.8827-4.526 5.625-4.75-.7554-24.9516.3075-61.3332-.5625-80.4375-3.8171-.2832-6.6874-1.534-6.6875-3.0938 0-.071.022-.1493.031-.2187v-.031c-.045-.1189-.094-.2493-.094-.375 0-1.0008 1.4999-1.8445 3.4375-1.9688 .513-.1454 1.0957-.2442 1.6875-.3437 .013-2.2023.018-6.7153 0-12.5625h-1.2812v-1.875h1.25c-.032-9.1557-.1822-17.969-.2813-28.0625v-107.8125c-1.4078.3096-3.1.5943-5.0313.8125 .9559,1.3677 1.5314,2.9462 1.5313,4.7813 0,6.0478-6.085,12.3394-12.3437,13.0624l-.8126,15.4375-1.3437-15.4062c-6.3284-.6131-12.5625-6.9831-12.5625-13.0937 0-1.8303.5771-3.4159 1.5312-4.7813-4.5095-.5098-7.8228-1.3211-8.9062-2.25h8.125v-12.0312c-.7676-.4742-1.2812-1.309-1.2812-2.2813s.5135-1.8072 1.2812-2.2812v-11.5313l-38.375,6.4688v9.9687c.7016.5812 1.1564,1.4836 1.1562,2.4688 0,.985-.457,1.8563-1.1562,2.4375v14.4062h9.5625c-1.2719,1.0942-5.1595,1.994-10.4687,2.5938 1.1246,1.61 1.7812,3.5273 1.7812,5.6875 0,7.1188-7.1629,14.4925-14.5312,15.3437l-.063,1.1562 2.9063.6875-3,1.25-.8125,15.0938-1.5625-18.1563c-5.0659-.4907-10.1205-4.0997-12.8125-8.625v26.4688h-9.9375c-.5745,1.8016-1.3799,3.4914-2.4063,5.0312 12.0726,5.9468 19.1563,15.4232 19.1563,30.5313 0,34.5721-36.9281,85.3981-86.4687,99.125v7.6562h-4.6563v6.2188c4.6657.1413 2.0458.1727 2.3125.9687 3.4371,10.2906-13.9914,23.2971-16.5625,28s-4.4976,49.9417-5.6563,49.9688-3.7744-45.1098-6.5624-49.6875-20.0912-16.7243-17.5626-27.2188c.2132-.8829-2.3229-.9837 2.375-1.3437v-6.9063h-4.6562v-7.6562c-49.5574-13.7153-86.4688-64.5462-86.4688-99.125 0-15.1185 7.0385-24.5853 19.125-30.5313-1.0264-1.54-1.8316-3.2293-2.4062-5.0312h-9.9375v-45.375c-1.1905.2035-2.4896.3712-3.9063.5313 1.1249,1.61 1.8124,3.4961 1.8126,5.6562 0,7.119-7.1941,14.5239-14.5626,15.375l-.9687,18.1562-1.5625-18.125c-7.4487-.7217-14.7813-8.2134-14.7812-15.4062 0-2.1545.6587-4.0489 1.7812-5.6562-5.3083-.6-9.1932-1.5315-10.4688-2.625h9.5938v-6.6875h-14.4062v6.75c0,2.7182-1.1701,4.9062-2.6563,4.9062-.9642,0-1.8396-.9222-2.3125-2.3125-.4713,1.3903-1.2861,2.3125-2.25,2.3125-1.4863,0-2.6875-2.188-2.6875-4.9062v-6.75h-12.2813v6.75c0,2.7182-1.1714,4.9062-2.6562,4.9062-.964,0-1.8084-.9222-2.2812-2.3125-.4718,1.3903-1.3173,2.3125-2.2813,2.3125-1.4846,0-2.6875-2.188-2.6875-4.9062v-6.75h-12.25v6.75c0,2.7182-1.2026,4.9062-2.6875,4.9062-.9637,0-1.8097-.9222-2.2813-2.3125-.4729,1.3903-1.2859,2.3125-2.25,2.3125-.7127,0-1.3608-.5201-1.8437-1.3437v6.9062c.5947.4937 1,1.1944 1,2.0313s-.4053,1.5999-1,2.0937v12.25h8.125c-1.0806.9296-4.3647,1.7092-8.875,2.2187 .9555,1.3677 1.5312,2.9462 1.5313,4.7813 0,6.0478-6.1162,12.3395-12.375,13.0625l-.8126,15.4687-1.3124-15.4375c-6.3281-.613-12.5938-6.9831-12.5938-13.0937 0-1.8303.5774-3.4158 1.5312-4.7813-4.5094-.5097-7.7915-1.2898-8.875-2.2187h8.125v-12.0313c-.7674-.4741-1.2813-1.3401-1.2812-2.3124s.5136-1.776 1.2812-2.25v-17h-9.75v6.75c0,2.7182-1.2027,4.9062-2.6874,4.9062-.964,0-1.7771-.9222-2.25-2.3125-.4718,1.3903-1.3486,2.3125-2.3126,2.3125-1.4846,0-2.6562-2.188-2.6562-4.9062v-6.75h-12.25v6.75c0,2.7182-1.2329,4.9062-2.7188,4.9062-.9637,0-1.7784-.9222-2.25-2.3125-.4729,1.3903-1.3172,2.3125-2.2812,2.3125-1.4865,0-2.6875-2.188-2.6875-4.9062v-6.75h-12.25v6.75c0,2.7182-1.2013,4.9062-2.6875,4.9062-.9642,0-1.8083-.9222-2.2812-2.3125-.4713,1.3903-1.3174,2.3125-2.2813,2.3125-1.4849,0-2.6563-2.188-2.6563-4.9062v-12.4688c0-1.3591.2971-2.5812.7813-3.4687v-19.5313h-19.9687v65.5625c.7868.6534 1.2812,1.6425 1.2812,2.75s-.4942,2.0965-1.2812,2.75v16.1875h10.7187c-1.4299,1.2303-5.7817,2.2632-11.75,2.9375 1.2643,1.8102 2,3.9464 2,6.375 0,8.0041-8.0595,16.3243-16.3437,17.2812l-1.0938,20.4375-1.75-20.4062c-8.3744-.8114-16.625-9.2254-16.625-17.3125 0-2.4224.7381-4.5678 2-6.375-5.9674-.6746-10.3161-1.708-11.75-2.9375h10.75v-15.9063c-1.0163-.6275-1.6875-1.7444-1.6875-3.0312s.6711-2.4038 1.6875-3.0313v-75.7187h.6562v-29.9062h-3.0624v5.1875c0,.2988-.042.5869-.063.875 1.2767,1.4215 1.8439,2.9901 1.8438,4.625 0,5.9721-7.7332,20.6434-28.7188,23.4062 .1939.6629.2813,1.3684.2813,2.0938 0,3.9353-3.0388,7.146-6.9063,7.4062v13.125h-1v-13.125c-3.8791-.2504-6.9684-3.464-6.9687-7.4062 0-.7254.1188-1.4309.3125-2.0938-20.9923-2.7628-28.7508-17.4341-28.75-23.4062 0-.1015.027-.2116.031-.3125-.5923.8204-1.3231,1.3125-2.125,1.3125-.9983,0-1.8909-.7836-2.5312-2-.2735.1244-.5771.2084-.875.2812-.2432.4097-.5152.7579-.8125,1.0313v7.75h-.625v-7.2813c-.2873.1404-.5938.2188-.9063.2188-1.6573,0-3.0198-2.0922-3.4062-4.9063-.1549-.4737-.2813-.9735-.2812-1.5 0-.3796.073-.7355.1562-1.0937v-.2813c-1.5335-.2049-2.9584-.5266-4.2812-.9062v2.1875c0,3.5873-1.6055,6.5-3.5626,6.5-1.1966,0-2.2365-1.0874-2.875-2.75-.6369,1.6632-1.6767,2.75-2.875,2.75-1.957,0-3.5312-2.9127-3.5312-6.5v-5.1875h-4.2812v5.1875c0,3.5873-1.6056,6.5-3.5626,6.5-1.1981,0-2.2378-1.0874-2.875-2.75-.6384,1.6632-1.6781,2.75-2.875,2.75-1.957,0-3.5312-2.9127-3.5312-6.5v-5.1875h-4.2812v5.1875c0,3.5873-1.6055,6.5-3.5626,6.5-1.1981,0-2.2364-1.0874-2.875-2.75-.6384,1.6632-1.6767,2.75-2.875,2.75-1.957,0-3.5312-2.9127-3.5312-6.5v-5.1875h-4.3125v5.1875c0,3.5873-1.5742,6.5-3.5313,6.5-1.1966,0-2.2365-1.0874-2.875-2.75-.6369,1.6632-1.6766,2.75-2.875,2.75-1.957,0-3.5625-2.9127-3.5624-6.5v-5.1875h-4.25v8.8437h1.3437c.7943,0 1.4375.642 1.4375,1.4375s-.643,1.4375-1.4375,1.4375h-1.0937c.5125.7688.8125,1.673.8124,2.7813 0,1.2833-.3841,2.8608-1.0624,4.5v.125h-.063c-1.9403,4.5959-6.2028,9.5937-11.1874,9.5937s-9.2376-4.9987-11.1876-9.5937h-.9062v-2.5938c-.1648-.7242-.2503-1.4176-.25-2.0312 0-.5926.093-1.1349.25-1.625v-1.1563c-.7812-.017-1.4375-.6528-1.4375-1.4375s.6564-1.4195 1.4375-1.4375v-8.8437h-4.25v6.375h-7.25v14.5625c.787.6535 1.3124,1.6112 1.3125,2.7187s-.5254,2.1279-1.3125,2.7813v16.1875h10.75c-1.4316,1.2301-5.7802,2.2631-11.75,2.9375 1.2658,1.8102 2,3.9463 2,6.375 0,8.004-8.058,16.3243-16.3438,17.2812l-1.0937,20.4375-1.75-20.4062c-8.3743-.8114-16.625-9.2254-16.625-17.3125 0-2.4224.738-4.5678 2-6.375-5.9679-.6746-10.3147-1.7082-11.75-2.9375h10.75v-15.9375c-1.0152-.6275-1.6875-1.7446-1.6875-3.0313s.6723-2.3727 1.6875-3v-14.2812h-12.0625v-36.6563c-.104-.029-.2083-.066-.3125-.094v15.4063h-7.9375v9.375c.6687.4126 1.125,1.1226 1.125,1.9687s-.4563,1.5874-1.125,2v10.5h7.0625c-.9432.8084-3.7959,1.4626-7.7187,1.9063 .8288,1.1881 1.3437,2.5947 1.3437,4.1875 0,5.3174-5.462,10.8728-10.9687,11.4062l-1.125,13.4063-.7188-13.4375c-5.4473-.6293-10.7813-6.1122-10.7812-11.375 0-1.597.5131-2.9974 1.3437-4.1875-3.9232-.4436-6.7782-1.0974-7.7187-1.9063h7.0312v-10.6562c-.5172-.4297-.8438-1.1156-.8438-1.8438s.3267-1.3516.8438-1.7812v-9.5625h-4.75v-4.2188h-2.7812v12.5938h-2.3438v11.9687h-12.0625v14.2813c1.0165.6274 1.7185,1.7131 1.7187,3s-.7022,2.435-1.7187,3.0625v15.9062h10.7813c-1.4356,1.2295-5.8136,2.2629-11.7813,2.9375 1.2633,1.8072 2.0313,3.9526 2.0313,6.375 0,8.0871-8.2519,16.5011-16.625,17.3125l-1.7813,20.4063-1.0937-20.4375c-8.2841-.957-16.3438-9.2772-16.3438-17.2813 0-2.4287.7666-4.5648 2.0312-6.375-5.9683-.6743-10.3498-1.7072-11.7812-2.9375h10.75v-16.1875c-.7871-.6534-1.3125-1.6737-1.3125-2.7812s.5255-2.0654 1.3125-2.7188v-14.5625h-7.2188v-5.375h-4.25v9.8125c.7811.018 1.4063.6841 1.4063,1.4688s-.6254,1.4205-1.4063,1.4375v1.1562c.1562.49.2501,1.0326.25,1.625 0,.6137-.087,1.3072-.25,2.0313v.5937h-.1874c-1.3969,5.0099-6.2164,11.5938-11.9376,11.5938-6.8097,0-12.3124-9.3096-12.3124-14.2188 0-1.1082.2985-2.0124.8124-2.7812h-1.0937c-.7957,0-1.4063-.642-1.4063-1.4375s.6106-1.4688 1.4063-1.4688h1.3437v-10.8125h-4.25v5.2188c.0001,3.5873-1.5745,6.4687-3.5312,6.4687-1.197,0-2.2368-1.0868-2.875-2.75-.6374,1.6627-1.7079,2.75-2.9062,2.75-1.9569,0-3.5313-2.8814-3.5313-6.4687v-5.2188h-4.2813v5.2188c.0001,3.5873-1.5745,6.4687-3.5312,6.4687-1.1984,0-2.2694-1.0868-2.9062-2.75-.6388,1.6627-1.6767,2.75-2.875,2.75-1.9556,0-3.5313-2.8814-3.5313-6.4687v-5.2188h-4.2813v5.2188c.0001,3.5873-1.5745,6.4687-3.5312,6.4687-1.1984,0-2.268-1.0868-2.9062-2.75-.6388,1.6627-1.6767,2.75-2.875,2.75-1.9569,0-3.5313-2.8814-3.5313-6.4687v-5.2188h-4.2813v5.2188c.0001,3.5873-1.5745,6.4687-3.5312,6.4687-1.197,0-2.268-1.0868-2.9062-2.75-.6375,1.6627-1.6767,2.75-2.875,2.75-1.9569,0-3.5313-2.8814-3.5313-6.4687v-5.2188h-4.2813v5.2188c.0001,3.5873-1.5745,6.4687-3.5312,6.4687-1.1984,0-2.2695-1.0868-2.9062-2.75-.6388,1.6627-1.6767,2.75-2.875,2.75-1.9556,0-3.5313-2.8814-3.5313-6.4687v-4.2188h-4.2813v4.2188c0,.021.0002.041 0,.062 3.994,2.0358 5.7186,4.604 5.7188,7.4062 .0006,5.9722-7.7593,20.6434-28.75,23.4063 .1937.6629.3125,1.3682.3125,2.0937 0,3.9423-3.0582,7.1246-6.9375,7.375v13.125h-1v-13.125c-3.8673-.2602-6.9064-3.4396-6.9062-7.375 0-.7255.057-1.4308.25-2.0937-20.9872-2.7629-28.7188-17.4341-28.7188-23.4063 0-1.7412.6689-3.4116 2.125-4.9062-.189-.7946-.3125-1.6388-.3125-2.5625v-4.2188h-2.3437v-1h-30.5313v-5.5937h-1.1563v-12.5938h-2.8124v4.2188h-4.7813v9.5625c.5167.4296.875,1.053.875,1.7812s-.3582,1.4141-.875,1.8438v10.6562h7.0937c-.9408.8089-3.8251,1.4627-7.75,1.9063 .8323,1.1901 1.3126,2.5905 1.3126,4.1875 0,5.2628-5.2727,10.7457-10.7188,11.375l-.7188,13.4375-1.1874-13.4063c-5.5052-.5334-10.9063-6.0888-10.9063-11.4062 0-1.5928.4819-2.9994 1.3125-4.1875-3.9245-.4437-6.8069-1.0979-7.75-1.9063h7.0938v-10.5c-.6677-.4126-1.125-1.1539-1.125-2s.4573-1.5561 1.125-1.9687v-9.375h-7.9376v-24.0938c-2.7391-.7713-5.6323-1.2187-8.625-1.2187h-3.9374v-13.8125h-12.5626v13.8125h-1.3124c-3.7257,0-7.2788.6684-10.5938,1.8437v12.9688h-16.1875c-1.2294,1.9611-2.2518,4.0599-3.0312,6.2812h-9.5v6.5h1.4687c.5233,0 .9688.4144.9688.9375s-.4457.9375-.9688.9375h-.3437c.3388.5042.5312,1.1157.5312,1.8438 0,3.2278-3.6475,9.3437-8.125,9.3437s-8.0937-6.1159-8.0937-9.3437c0-.7288.194-1.3383.5312-1.8438h-.7187c-.5231,0-.9375-.4144-.9375-.9375s.4144-.9375.9375-.9375h2.375v-27.5937h-12.6875v7.1562h-5.9688c-1.2076,4.0312-4.9509,6.9688-9.375,6.9688s-8.168-2.9376-9.375-6.9688h-6v-7.1562h-11.5625v21.0937h-9.375v1.4375c5.3302,1.4364 7.5,3.6905 7.5,6.25 .0006,3.927-5.0723,13.5896-18.875,15.4063 .1273.4358.1875.8979.1875,1.375 0,2.592-2.0116,4.6791-4.5625,4.8437v8.625h-.6562v-8.625c-2.5429-.1711-4.5625-2.2562-4.5625-4.8437 0-.4771.06-.9392.1875-1.375-13.79761-1.817-18.90435-11.4796-18.90435-15.4066 0-2.5633 2.21519-4.814 7.5625-6.25v-1.4375h-7.90625v-30.5c-.8141-.3972-1.49746-1.2721-1.96875-2.5-.63798,1.6634-1.67688,2.75-2.875,2.75-1.605,0-2.94119-1.9753-3.375-4.6562h-4.625c-.4336,2.682-1.76927,4.6562-3.375,4.6562-1.19802,0-2.23692-1.0872-2.875-2.75-.63798,1.6634-1.70813,2.75-2.90625,2.75-1.95656,0-3.53145-2.8813-3.53125-6.4687v-5.2188h-4.28125v5.2188c0,3.5874-1.57449,6.4687-3.53125,6.4687-1.19816,0-2.23678-1.0872-2.875-2.75-.63798,1.6634-1.70813,2.75-2.90625,2.75-1.95656,0-3.53145-2.8813-3.53125-6.4687v-5.2188h-4.25v8.8438h1.34375c.79566,0 1.4375.642 1.4375,1.4375s-.64184,1.4375-1.4375,1.4375h-1.09375c.51306.7688.8125,1.673.8125,2.7812 0,1.2835-.3848,2.8609-1.0625,4.5v.125h-.0625c-1.9404,4.5959-6.20398,9.5938-11.1875,9.5938s-9.26875-4.9988-11.21875-9.5938h-.875v-2.5937c-.16478-.7243-.25-1.4176-.25-2.0313 0-.5926.0937-1.135.25-1.625v-1.1562c-.7809-.017-1.4375-.6528-1.4375-1.4375s.6566-1.4196 1.4375-1.4375v-8.8438h-4.25v6.375h-7.25v14.5625c.78676.6535 1.3125,1.6112 1.3125,2.7188s-.52564,2.128-1.3125,2.7812v16.1875h10.75c-1.43074,1.2303-5.78132,2.2632-11.75,2.9375 1.26496,1.8102 1.9999,3.9463 2,6.375 0,8.004-8.05903,16.3243-16.34375,17.2813l-1.09375,20.4375-1.78125-20.4063c-8.37402-.8112-16.625-9.2255-16.625-17.3125 0-2.4224.76865-4.5678 2.03125-6.375-5.96802-.6746-10.31526-1.7081-11.75-2.9375h10.75v-15.9062c-1.01622-.6276-1.71875-1.7758-1.71875-3.0625s.70253-2.3725 1.71875-3v-14.2813h-12.0625v-36.6562c-.10316-.029-.209-.065-.3125-.094v15.4062h-7.9375v9.375c.668.4125 1.125,1.154 1.125,2s-.457,1.5561-1.125,1.9688v10.5h7.0625c-.94334.8083-3.79457,1.4627-7.71875,1.9062 .83018,1.1881 1.34375,2.5947 1.34375,4.1875 0,5.3174-5.46271,10.8727-10.96875,11.4063l-1.15625,13.4375-.6875-13.4688c-5.4476-.6292-10.78125-6.1122-10.78125-11.375 0-1.597.51187-2.9972 1.34375-4.1875-3.92462-.4433-6.77787-1.0973-7.71875-1.9062h7.03125v-10.6563c-.51732-.4297-.84375-1.0841-.84375-1.8125s.32633-1.3828.84375-1.8125v-9.5625h-4.75v-4.2187h-2.78125v12.5937h-2.34375v11.9688h-12.0625v14.2812c1.01622.6275 1.71875,1.7131 1.71875,3s-.70253,2.435-1.71875,3.0625v15.9063h10.78125c-1.43464,1.2293-5.81327,2.2629-11.78125,2.9375 1.2626,1.8071 2.03115,3.9526 2.03125,6.375 0,8.0871-8.25098,16.5012-16.625,17.3125l-1.78125,20.4062-1.09375-20.4375c-8.28458-.9569-16.34375-9.2772-16.34375-17.2812 0-2.4288.76615-4.5649 2.03125-6.375-5.96858-.6743-10.35041-1.7073-11.78125-2.9375h10.75v-16.1875c-.7871-.6534-1.3125-1.6738-1.3125-2.7813s.5255-2.0654 1.3125-2.7187v-14.5625h-7.25v-5.375h-4.25v9.8125c.78096.018 1.4375.6842 1.4375,1.4687s-.65674,1.4203-1.4375,1.4375v1.1875c.15634.4901.25,1.0012.25,1.5938 0,.6136-.0858,1.307-.25,2.0312v.625h-.15625c-1.39662,5.0098-6.217,11.5624-11.9375,11.5625-6.80966,0-12.3126-9.3097-12.3125-14.2187 0-1.1083.29958-2.0125.8125-2.7813h-1.09375c-.79556,0-1.4375-.6418-1.4375-1.4375s.64194-1.4687 1.4375-1.4687h1.34375v-10.8125h-4.25v5.2187c.0001,3.5874-1.57469,6.4688-3.53125,6.4688-1.19812,0-2.26827-1.0868-2.90625-2.75-.63808,1.6627-1.67698,2.75-2.875,2.75-1.95676,0-3.53125-2.8815-3.53125-6.4688v-5.2187h-4.28125v5.2187c.0001,3.5874-1.57469,6.4688-3.53125,6.4688-1.19812,0-2.26827-1.0868-2.90625-2.75-.63808,1.6627-1.67698,2.75-2.875,2.75-1.95676,0-3.53125-2.8815-3.53125-6.4688v-3.5c-1.23109.9861-2.65505,1.625-4.15625,1.625h-.125v1.875c.0001,3.5874-1.57461,6.4688-3.53125,6.4688-1.19818,0-2.26827-1.0868-2.90625-2.75-.63808,1.6627-1.67698,2.75-2.875,2.75-1.95676,0-3.53125-2.8815-3.53125-6.4688v-5.2187h-4.28125v5.2187c.0001,3.5874-1.57469,6.4688-3.53125,6.4688-1.19812,0-2.26817-1.0868-2.90625-2.75-.63812,1.6627-1.67684,2.75-2.875,2.75-1.95676,0-3.53125-2.8815-3.53125-6.4688v-5.2187h-4.28125v5.2187c.0001,3.5874-1.60594,6.4688-3.5625,6.4688-1.19812,0-2.23692-1.0868-2.875-2.75-.63798,1.6627-1.67698,2.75-2.875,2.75-1.95676,0-3.53125-2.8815-3.53125-6.4688v-4.2187h-4.28125v4.2187c0,.021.0001.042 0,.062 3.99456,2.0359 5.71885,4.6041 5.71875,7.4063 .0009,5.9721-7.75832,20.6433-28.75,23.4062 .1937.6628.3125,1.3682.3125,2.0938 0,3.9422-3.08951,7.1245-6.96875,7.375v13.125h-.96875v-13.125c-3.86744-.2603-6.9375-3.4397-6.9375-7.375 0-.7256.0876-1.431.28125-2.0938-3.10478-.4087-5.8946-1.106-8.4375-1.9687l-1.03125,11.5312-.625-12.125c-13.40177-5.2388-18.625-15.9537-18.625-20.8437 0-1.7412.63695-3.4117 2.09375-4.9063-.189-.7947-.3125-1.6386-.3125-2.5625v-4.2187h-2.3125v-1h-1.1875v1.9062h-32.75v1.0313h-2.5v4.5312c0,.8535-.125,1.6562-.28125,2.4063h4.5c-.57995.4986-1.94287.9083-3.78125,1.2812 1.01577,1.3582 1.5,2.7918 1.5,4.3125 0,4.6364-4.34652,14.1891-15.28125,20.2188l-.28125,5.125-.40625-4.75c-4.05032,2.1257-8.95585,3.7561-14.84375,4.5312 .20793.7111.28125,1.4716.28125,2.25 0,4.2224-3.2568,7.6583-7.40625,7.9375v14.0938h-1.0625v-14.0938c-4.16232-.2687-7.46875-3.7077-7.46875-7.9375 0-.7784.13582-1.5389.34375-2.25-22.52288-2.9643-30.87596-18.7172-30.875-25.125-.00011-3.0067 1.87034-5.7531 6.15625-7.9375-.0001-.022 0-.04 0-.062v-4.5312h-4.59375v4.5312c0,3.849-1.68172,6.9688-3.78125,6.9688-1.28534,0-2.40918-1.1847-3.09375-2.9688-.68454,1.7846-1.80817,2.9688-3.09375,2.9688-2.09917,0-3.78133-3.1197-3.78125-6.9688v-5.5625h-4.59375v5.5625c0,3.849-1.71297,6.9688-3.8125,6.9688-1.28547,0-2.44043-1.1847-3.125-2.9688-.68467,1.7846-1.77706,2.9688-3.0625,2.9688-2.09932,0-3.81261-3.1197-3.8125-6.9688v-5.5625h-4.59375v5.5625c0,3.849-1.68172,6.9688-3.78125,6.9688-1.28533,0-2.44033-1.1847-3.125-2.9688-.68443,1.7846-1.80817,2.9688-3.09375,2.9688-2.09918,0-3.78135-3.1197-3.78125-6.9688v-5.5625h-4.59375v5.5625c0,3.849-1.68186,6.9688-3.78125,6.9688-1.28548,0-2.40922-1.1847-3.09375-2.9688-.68457,1.7846-1.83956,2.9688-3.125,2.9688-2.09931,0-3.78136-3.1197-3.78125-6.9688v-5.5625h-4.59375v5.5625c0,3.849-1.71297,6.9688-3.8125,6.9688-1.28533,0-2.37782-1.1847-3.0625-2.9688-.68457,1.7846-1.80817,2.9688-3.09375,2.9688-2.09932,0-3.78136-3.1197-3.78125-6.9688v-5.5625h-4.5625v11.5938h1.40625c.85358,0 1.53125.6776 1.53125,1.5312s-.67767,1.5625-1.53125,1.5625h-1.15625c.55046.8249.84375,1.7797.84375,2.9688 .00011,5.2671-5.91233,15.2812-13.21875,15.2812-6.13766-.0001-11.28287-7.031-12.78125-12.4062h-.1875v-.6875c-.17687-.777-.28125-1.5291-.28125-2.1875 0-.6358.11341-1.1616.28125-1.6875v-1.2813c-.30028-.01-.57451-.098-.8125-.25v3.4063h-.65625v-4.3125c-.0346-.1261-.0625-.2692-.0625-.4063s.0278-.2164.0625-.3437v-3.5625c-1.65503-.1114-3.07629-1.0326-3.875-2.375h-6.96875v15.5937c.84439.7011 1.40625,1.7493 1.40625,2.9375s-.56175,2.2677-1.40625,2.9688v17.375h11.53125c-1.53526,1.3199-6.22103,2.4328-12.625,3.1562 1.35733,1.9422 2.15625,4.2379 2.15625,6.8438 0,8.588-8.64225,17.4733-17.53125,18.5l-1.1875,21.9375-1.875-21.9063c-8.98473-.8705-17.84375-9.8542-17.84375-18.5312 .0001-2.5991.8016-4.9048 2.15625-6.8438-6.40319-.7237-11.0858-1.8373-12.625-3.1562h11.5625v-17.0938c-1.09017-.6732-1.84375-1.8693-1.84375-3.25s.75358-2.5768 1.84375-3.25v-15.2812h-12.9375v-12.875h-2.53125v-13.5h-2.96875v4.5312h-5.09375v10.25c.55529.461.90625,1.1249.90625,1.9063s-.35107,1.539-.90625,2v11.4062h7.53125c-1.00942.8679-4.07042,1.5868-8.28125,2.0625 .89257,1.2772 1.4375,2.7865 1.4375,4.5 0,5.6468-5.6864,11.5124-11.53125,12.1875l-.78125,14.4375-1.25-14.4062c-5.90759-.5725-11.71875-6.5134-11.71875-12.2188 0-1.709.5155-3.2251 1.40625-4.5-4.21051-.4759-7.26902-1.1952-8.28125-2.0625h7.59375v-11.25c-.7168-.4427-1.1875-1.2483-1.1875-2.1562s.4707-1.6511 1.1875-2.0938v-10.0625h-8.5v-16.5312l-.34375.094v39.3437h-12.9375v15.3125c1.09017.6732 1.8125,1.8381 1.8125,3.2188s-.72233,2.608-1.8125,3.2812v17.0625h11.53125c-1.5393,1.319-6.22192,2.4324-12.625,3.1563 1.35466,1.9389 2.15625,4.2134 2.15625,6.8125 0,8.6769-8.85897,17.7232-17.84375,18.5937l-1.875,21.9063-1.1875-21.9375c-8.88894-1.0267-17.53125-9.9748-17.53125-18.5625 .00011-2.6059.79892-4.8704 2.15625-6.8125-6.40404-.7236-11.05863-1.8363-12.59375-3.1563h11.5v-17.375c-.8443-.7009-1.40625-1.7804-1.40625-2.9687s.56205-2.2365 1.40625-2.9375v-15.5938h-7.75v-6.875h-4.5625v9.5c.83781.019 1.53125.721 1.53125,1.5625s-.69344,1.5132-1.53125,1.5313v1.2187c.1683.5258.28125,1.1455.28125,1.7813 0,.6585-.10453,1.3793-.28125,2.1562v2.8125h-.96875c-2.09191,4.9301-6.65407,10.25-12,10.25s-9.94934-5.3188-12.03125-10.25h-.0625v-.125c-.72714-1.7586-1.125-3.4668-1.125-4.8437 0-1.1891.32459-2.1751.875-3h-1.1875c-.85369,0-1.53125-.6776-1.53125-1.5313s.67756-1.5625 1.53125-1.5625h1.4375v-9.5h-4.5625v5.5938c.00021,3.849-1.68196,6.9375-3.78125,6.9375-1.28554,0-2.44047-1.1528-3.125-2.9375-.68462,1.784-1.80832,2.9375-3.09375,2.9375-2.0995,0-3.78125-3.0885-3.78125-6.9375v-5.5938h-4.59375v5.5938c.00021,3.849-1.68198,6.9375-3.78125,6.9375-1.28554,0-2.40922-1.1528-3.09375-2.9375-.68464,1.784-1.83957,2.9375-3.125,2.9375-2.09949,0-3.78125-3.0885-3.78125-6.9375v-5.5938h-4.59375v5.5938c.00021,3.849-1.71322,6.9375-3.8125,6.9375-1.28554,0-2.37797-1.1528-3.0625-2.9375-.68463,1.784-1.80832,2.9375-3.09375,2.9375-2.09949,0-3.84375-3.0885-3.84375-6.9375v-5.5938h-4.59375v5.5938c.00021,3.849-1.68198,6.9375-3.78125,6.9375-1.28554,0-2.40922-1.1528-3.09375-2.9375-.68464,1.784-1.80832,2.9375-3.09375,2.9375-2.09949,0-3.78125-3.0885-3.78125-6.9375v-2.3438c-.37646.1081-.76445.1844-1.15625.2813v-129.3125h3878.06245v184.2812c-4.3556,3.0349-10.1203,5.4621-17.5312,6.4375 .1936.6628.3125,1.3995.3124,2.125 0,3.9423-3.0893,7.1245-6.9687,7.375v13.125h-.9687v-13.125c-3.8673-.2602-6.9375-3.4396-6.9376-7.375 0-.7255.087-1.4622.2813-2.125-3.1048-.4087-5.8947-1.0748-8.4375-1.9375l-1.0312,11.5313-.625-12.125c-13.4019-5.2389-18.6251-15.9538-18.625-20.8438 0-1.7412.6364-3.4116 2.0937-4.9062-.1889-.7947-.3125-1.6699-.3125-2.5938v-4.2187h-2.3125v-.9688h-1.1875v1.875h-32.75v1.0625h-2.5v4.5313c0,.8534-.1252,1.6249-.2812,2.375h4.5c-.58.4986-1.9424.9396-3.7813,1.3125 1.0159,1.3582 1.5,2.7918 1.5,4.3125 0,4.6364-4.3775,14.1578-15.3125,20.1875l-.25,5.125-.4062-4.75c-4.0503,2.1257-8.9557,3.7561-14.8438,4.5312 .208.7111.2813,1.5029.2812,2.2813 0,4.2223-3.2563,7.6582-7.4062,7.9375v14.0937h-1.0625v-14.0937c-4.163-.2688-7.4687-3.7078-7.4687-7.9375 0-.7784.137-1.5702.3437-2.2813-22.5217-2.9643-30.876-18.6859-30.875-25.0937-.0002-3.0067 1.8702-5.7532 6.1563-7.9375-.0002-.022 0-.04 0-.062v-4.5313h-4.5938v4.5313c0,3.849-1.6818,6.9375-3.7812,6.9375-1.285,0-2.4097-1.1535-3.0938-2.9375-.6841,1.7846-1.8086,2.9375-3.0938,2.9375-2.099,0-3.7812-3.0884-3.7812-6.9375v-5.5938h-4.5938v5.5938c0,3.849-1.7133,6.9375-3.8124,6.9375-1.285,0-2.441-1.1535-3.125-2.9375-.6852,1.7846-1.7776,2.9375-3.0626,2.9375-2.099,0-3.8126-3.0884-3.8124-6.9375v-5.5938h-4.5938v5.5938c0,3.849-1.682,6.9375-3.7812,6.9375-1.2863,0-2.4099-1.1535-3.0938-2.9375-.6853,1.7846-1.84,2.9375-3.125,2.9375-2.1003,0-3.7814-3.0884-3.7812-6.9375v-5.5938h-4.5938v5.5938c0,3.849-1.6809,6.9375-3.7812,6.9375-1.2852,0-2.4087-1.1535-3.0938-2.9375-.6841,1.7846-1.8388,2.9375-3.125,2.9375-2.0993,0-3.7815-3.0884-3.7812-6.9375v-5.5938h-4.5938v5.5938c0,3.849-1.7131,6.9375-3.8125,6.9375-1.285,0-2.3772-1.1535-3.0625-2.9375-.6839,1.7846-1.8085,2.9375-3.0938,2.9375-2.099,0-3.7814-3.0884-3.7812-6.9375v-5.5938h-4.5625v11.5938h1.4063c.8528,0 1.5312.7089 1.5312,1.5625s-.6784,1.5625-1.5312,1.5625h-1.1563c.5501.8248.8437,1.7796.8437,2.9687 .0002,5.2672-5.9129,15.2813-13.2187,15.2813-6.1386-.0002-11.282-7.0623-12.7813-12.4375h-.1874v-.6563c-.1767-.777-.2813-1.5291-.2813-2.1875 0-.6357.1135-1.1928.2813-1.7187v-1.25c-.2998-.01-.5756-.098-.8126-.25v3.4062h-.6562v-4.3125c-.035-.126-.062-.2691-.062-.4062s.028-.2477.062-.375v-3.5313c-1.6543-.1114-3.0762-1.0324-3.875-2.375h-6.9688v15.5938c.8448.7009 1.4063,1.7179 1.4063,2.9062s-.5614,2.2989-1.4063,3v17.375h11.5313c-1.5363,1.3199-6.2211,2.4328-12.625,3.1563 1.3573,1.9421 2.1563,4.2066 2.1563,6.8125 0,8.5878-8.6425,17.5045-17.5313,18.5312l-1.1875,21.9375-1.875-21.9062c-8.9853-.8705-17.8437-9.8855-17.8438-18.5625 .0002-2.5991.8017-4.8736 2.1563-6.8125-6.4033-.7238-11.0858-1.8373-12.625-3.1563h11.5625v-17.0937c-1.0898-.6732-1.8437-1.9006-1.8438-3.2813s.754-2.5455 1.8438-3.2187v-15.2813h-12.9375v-12.875h-2.5313v-13.5h-2.9687v4.5313h-5.0937v10.2187c.5561.461.9062,1.1561.9062,1.9375s-.3501,1.5078-.9062,1.9688v11.4375h7.5312c-1.0098.868-4.0696,1.5555-8.2812,2.0312 .8931,1.2772 1.4374,2.7865 1.4374,4.5 0,5.6468-5.6863,11.5124-11.5312,12.1875l-.7812,14.4688-1.25-14.4375c-5.908-.5725-11.7189-6.5134-11.7188-12.2188 0-1.709.516-3.2251 1.4062-4.5-4.21-.4759-7.2699-1.1638-8.2812-2.0312h7.5938v-11.2813c-.7176-.4427-1.1876-1.2171-1.1876-2.125s.47-1.6822 1.1876-2.125v-10.0312h-8.5v-16.5625l-.3438.094v39.3437h-12.9375v15.3438c1.0899.6732 1.8125,1.838 1.8125,3.2187s-.7226,2.5768-1.8125,3.25v17.0625h11.5313c-1.5393,1.319-6.2219,2.4636-12.625,3.1875 1.3548,1.939 2.1561,4.2134 2.1562,6.8125 0,8.6768-8.8587,17.7234-17.8438,18.5938l-1.875,21.9062-1.1874-21.9375c-8.8889-1.0267-17.5313-9.9747-17.5313-18.5625 .0001-2.6059.799-4.8703 2.1563-6.8125-6.404-.7236-11.0587-1.8675-12.5938-3.1875h11.5v-17.375c-.8435-.7009-1.4062-1.7492-1.4062-2.9375s.5629-2.2364 1.4062-2.9375v-15.625h-7.75v-6.8437h-4.5625v9.5c.8371.019 1.5313.6896 1.5313,1.5312s-.6942,1.5444-1.5313,1.5625v1.2188c.1681.5258.2813,1.1142.2813,1.75 0,.6585-.1047,1.4105-.2813,2.1875v2.7812h-.9687c-2.0932,4.9302-6.6547,10.2813-12,10.2813s-9.9497-5.3501-12.0313-10.2813h-.062v-.125c-.7267-1.7586-1.125-3.4667-1.125-4.8437 0-1.189.3245-2.1439.875-2.9688h-1.1875c-.8531,0-1.5312-.7088-1.5313-1.5625s.6782-1.5312 1.5313-1.5312h1.4375v-9.5h-4.5625v5.5937c.0002,3.849-1.6822,6.9375-3.7813,6.9375-.3346,0-.66-.1018-.9687-.25v34.1875h-11.9687v2.1563c8.1323,2.184 11.4374,5.6327 11.4374,9.5312 0,5.9722-7.7316,20.6435-28.7187,23.4063 .1938.6628.25,1.3994.25,2.125 0,3.9352-3.0389,7.1148-6.9063,7.375v13.125h-1v-13.125c-3.8791-.2505-6.9374-3.4329-6.9374-7.375 0-.7255.1188-1.4623.3124-2.125-20.9908-2.7629-28.7501-17.4341-28.75-23.4063 0-3.8927 3.3318-7.3155 11.4376-9.5v-2.1875h-14.2813v-32.0625h-17.5937v10.8438h-9.125c-1.8349,6.1309-7.4909,10.625-14.2188,10.625s-12.4123-4.4941-14.25-10.625h-9.125v-10.8438h-19.2812v41.9063h3.625c.7957.0001 1.4062.6731 1.4062,1.4687s-.6106,1.4063-1.4062,1.4063h-1.0938c.5137.7687.8125,1.7041.8125,2.8125 0,4.9091-5.5027,14.1875-12.3125,14.1875s-12.375-9.2784-12.375-14.1875c0-1.1073.2975-2.0458.8125-2.8125h-.5313c-.7957,0-1.4374-.6107-1.4374-1.4063s.6411-1.4687 1.4374-1.4687h2.25v-9.8438h-14.4687c-1.185-3.3784-2.7244-6.58-4.5937-9.5625h-24.625v-19.75c-5.0417-1.7876-10.4575-2.75-16.125-2.75h-1.9688v-21.0625h-19.0938v21.0625h-6c-4.5529,0-8.9593.6083-13.125,1.7813v36.6875h-12.0624v14.25c1.0162.6275 1.6875,1.7442 1.6874,3.0312s-.6714,2.4037-1.6874,3.0313v15.9062h10.75c-1.4352,1.2295-5.7827,2.2943-11.75,2.9688 1.2618,1.8071 2,3.9213 2,6.3437 0,8.0871-8.2507,16.5011-16.625,17.3125l-1.75,20.4062-1.0938-20.4374c-8.2854-.9571-16.3438-9.2772-16.3438-17.2813 0-2.4287.7342-4.5335 2-6.3437-5.9697-.6743-10.3189-1.7384-11.75-2.9688h10.75v-16.1875c-.7869-.6534-1.3124-1.6427-1.3124-2.75s.5258-2.0966 1.3124-2.75v-14.5312h-7.25v-6.4063h-4.25v19.1563h-23.3437v-19.1563h-4.25v5.2188c0,3.5873-1.6061,6.4687-3.5625,6.4687-1.1986.0001-2.2378-1.0867-2.875-2.75-.6386,1.6627-1.6764,2.75-2.875,2.75-1.9556.0001-3.5313-2.8814-3.5312-6.4687v-5.2188h-4.2813v5.2188c0,3.5873-1.6061,6.4687-3.5625,6.4687-1.1984.0001-2.2366-1.0867-2.875-2.75-.6384,1.6627-1.6764,2.75-2.875,2.75-1.9568.0001-3.5625-2.8814-3.5625-6.4687v-5.2188h-4.2813v5.2188c0,3.5873-1.5748,6.4687-3.5312,6.4687-1.1974.0001-2.2368-1.0867-2.875-2.75-.6374,1.6627-1.6764,2.75-2.875,2.75-1.9566.0001-3.5625-2.8814-3.5625-6.4687v-5.2188h-4.2813v5.2188c0,3.5873-1.5748,6.4687-3.5312,6.4687-1.1986.0001-2.2378-1.0867-2.875-2.75-.6386,1.6627-1.6764,2.75-2.875,2.75-1.9556.0001-3.5625-2.8814-3.5625-6.4687v-5.2188h-4.2813v5.2188c0,3.5873-1.5748,6.4687-3.5312,6.4687-1.1984.0001-2.2366-1.0867-2.875-2.75-.6384,1.6627-1.6764,2.75-2.875,2.75-1.9568.0001-3.5625-2.8814-3.5625-6.4687v-5.2188h-4.2813v5.2188c0,3.5873-1.5748,6.4687-3.5312,6.4687-1.1974.0001-2.2368-1.0867-2.875-2.75-.6374,1.6627-1.7077,2.75-2.9062,2.75-1.9566.0001-3.5313-2.8814-3.5313-6.4687v-5.2188h-4.2813v5.2188c0,3.5873-1.5748,6.4687-3.5312,6.4687-1.1986.0001-2.2378-1.0867-2.875-2.75-.6386,1.6627-1.7077,2.75-2.9062,2.75-1.9556.0001-3.5313-2.8814-3.5313-6.4687v-5.2188h-4.2813v5.2188c0,3.5873-1.5748,6.4687-3.5312,6.4687-1.1985.0001-2.2366-1.0867-2.875-2.75-.6386,1.6627-1.7077,2.75-2.9062,2.75-1.9568.0001-3.5313-2.8814-3.5313-6.4687v-5.2188h-4.2813v5.2188c0,3.5873-1.5748,6.4687-3.5312,6.4687-1.1974.0001-2.2368-1.0867-2.875-2.75-.6379,1.6627-1.7076,2.75-2.9062,2.75-1.9568.0001-3.5313-2.8814-3.5313-6.4687v-5.2188h-10.0313v5.2188c0,3.5873-1.5745,6.4687-3.5312,6.4687-1.1986,0-2.2364-1.0873-2.875-2.75-.638,1.6632-1.6766,2.75-2.875,2.75-1.9564,0-3.5626-2.8814-3.5625-6.4687v-5.2188h-4.2813v5.2188c0,3.5873-1.5755,6.4687-3.5312,6.4687-1.1986,0-2.2366-1.0873-2.875-2.75-.637,1.6632-1.6768,2.75-2.875,2.75-1.9564,0-3.5626-2.8814-3.5625-6.4687v-5.2188h-4.2813v5.2188c0,3.5873-1.5743,6.4687-3.5312,6.4687-1.1986,0-2.2376-1.0873-2.875-2.75-.6382,1.6632-1.6778,2.75-2.875,2.75-1.9564,0-3.5626-2.8814-3.5625-6.4687v-5.2188h-4.2813v5.2188c0,3.5873-1.5745,6.4687-3.5312,6.4687-1.1986,0-2.2364-1.0873-2.875-2.75-.638,1.6632-1.6766,2.75-2.875,2.75-1.9564,0-3.5626-2.8814-3.5625-6.4687v-5.2188h-4.2813v5.2188c0,3.5873-1.5755,6.4687-3.5312,6.4687-1.1986,0-2.2366-1.0873-2.875-2.75-.637,1.6632-1.708,2.75-2.9062,2.75-1.9565,0-3.5314-2.8814-3.5313-6.4687v-5.2188h-4.2813v5.2188c0,3.5873-1.5743,6.4687-3.5312,6.4687-1.1986,0-2.2376-1.0873-2.875-2.75-.6382,1.6632-1.709,2.75-2.9062,2.75-1.9565,0-3.5314-2.8814-3.5313-6.4687v-5.2188h-4.2813v5.2188c0,3.5873-1.5744,6.4687-3.5312,6.4687-1.1985,0-2.2364-1.0873-2.875-2.75-.638,1.6632-1.7079,2.75-2.9062,2.75-1.9565,0-3.5314-2.8814-3.5313-6.4687v-5.2188h-4.2813v5.2188c0,3.5873-1.5755,6.4687-3.5312,6.4687-1.1986,0-2.2366-1.0873-2.875-2.75-.637,1.6632-1.708,2.75-2.9062,2.75-1.9565,0-3.5314-2.8814-3.5313-6.4687v-5.2188h-4.2813v5.2188c0,3.5873-1.5743,6.4687-3.5312,6.4687-1.1986,0-2.2376-1.0873-2.875-2.75-.6382,1.6632-1.7091,2.75-2.9062,2.75-1.9565,0-3.5314-2.8814-3.5313-6.4687v-5.2188h-4.25v19.1563h-23.375v-19.1563h-4.25v6.4063h-7.2187v14.5312c.7867.6534 1.3124,1.6425 1.3124,2.75s-.5253,2.0966-1.3124,2.75v16.1875h10.75c-1.4311,1.2303-5.8128,2.2944-11.7813,2.9688 1.2648,1.8102 2.0313,3.915 2.0313,6.3437 0,8.0041-8.0596,16.3243-16.3438,17.2813l-1.0938,20.4374-1.7812-20.4062c-8.3733-.8114-16.625-9.2254-16.625-17.3125 0-2.4224.7682-4.5365 2.0312-6.3437-5.9673-.6746-10.3461-1.7393-11.7812-2.9688h10.7812v-15.9062c-1.0162-.6275-1.7187-1.7444-1.7187-3.0313s.7023-2.4038 1.7187-3.0312v-14.25h-12.0624v-36.6875c-4.1647-1.173-8.5734-1.7813-13.125-1.7813h-6v-21.0625h-19.0938v21.0625h-1.9688c-5.6664,0-11.0834.9624-16.125,2.75v19.75h-24.6562c-1.8704,2.9826-3.4086,6.1841-4.5938,9.5625h-14.4374v9.8438h2.2187c.7961,0 1.4686.6732 1.4687,1.4687s-.6731,1.4063-1.4687,1.4063h-.5313c.515.7667.8126,1.7053.8126,2.8125 0,4.9091-5.5353,14.1875-12.3438,14.1875s-12.3125-9.2784-12.3125-14.1875c0-1.1083.3-2.0438.8125-2.8125h-1.0938c-.7955,0-1.4374-.6108-1.4374-1.4063s.6419-1.4687 1.4374-1.4687h3.5938v-41.9063h-19.25v10.8438h-9.125c-1.8364,6.1309-7.5223,10.625-14.25,10.625s-12.4138-4.4941-14.25-10.625h-9.125v-10.8438h-17.5625v32.0625h-14.2813v2.1875c8.1058,2.1845 11.4376,5.6072 11.4376,9.5 0,5.9722-7.758,20.6435-28.75,23.4063 .1936.6629.3124,1.3996.3124,2.125 0,3.9422-3.0896,7.1245-6.9687,7.375v13.125h-.9687v-13.125c-3.8675-.2602-6.9375-3.4397-6.9376-7.375 0-.7254.089-1.4621.2813-2.125-20.9859-2.7628-28.7187-17.4341-28.7187-23.4063 0-3.8985 3.3051-7.3472 11.4374-9.5312v-2.1563h-11.9687v-53.0937h-26.2813l-7.9374-25.5h-13.3126v25.5h-6.5624v31.5312h1.5v67.9063c2.2764,1.4517 3.75,3.9197 3.75,6.6875 0,4.4526-3.8557,8.0312-8.625,8.0312s-8.625-3.5786-8.625-8.0312c0-2.4367 1.1377-4.6467 2.9687-6.125v-46.9063h-16.0937c.5781,71.6562.9043,146.9328.875,192.3125h2.2187v1.875h-2.2187c0,3.9886.01,8.9677 0,12.4375h.2812c.9966.119 1.8919.3139 2.6875.5625 1.0431.1884 1.9139.584 2.3437,1.0937l.031.031c.4771.4043.75.9001.75,1.375 0,1.6254-3.1617,2.9195-7.2187,3.125-1.8736,26.4581-.7813,50.6481-.7813,81.4375 1.2919.8575 2.2616,2.1733 2.6563,3.7188h.1874v1.625 2.0937 6.4063h-7.375c-1.5794,1.0392-1.75,4.3639-1.75,14.5625 0,13.8765.4412,15.5261 5.9063,21.75 9.0072,10.2594 8.1129,16.3956-4.5313,29.875-14.2498,15.1896-19.5104,23.1421-20.0937,30.5625-.3179,4.0659-1.6434,6.0937-2.9687,6.0937zm-569.8438-301.9062c2.0806,0 3.75-2.874 3.75-6.4688v-13.6562h-7.5v13.6562c0,3.5948 1.6678,6.4688 3.75,6.4688zm11.9062,0c2.0807,0 3.7501-2.874 3.75-6.4688v-13.6562h-7.5v13.6562c0,3.5948 1.6692,6.4688 3.75,6.4688zm101.9376-25.0625c.097.017.1824,0 .2812,0 1.5727,0 2.875-2.1901 2.875-4.9063v-10.3437h-5.6875v10.3437c0,2.5463 1.0989,4.6562 2.5313,4.9063zm9.0312,0c.096.017.1838,0 .2812,0 1.5731,0 2.8438-2.1901 2.8438-4.9063v-10.3437h-5.6875v10.3437c0,2.5463 1.1254,4.6562 2.5625,4.9063zm105.8125-27.3125h3v-35.4062h-3v16.125c.7008.5811 1.1875,1.4525 1.1875,2.4375 0,.985-.4867,1.8563-1.1875,2.4375v14.4062zm289.2813-1.25c.096.017.1822,0 .2812,0 1.5727,0 2.8125-2.1588 2.8125-4.875v-10.3437h-5.625v10.3437c0,2.5464 1.0989,4.6249 2.5313,4.875zm9,0c.096.017.1837,0 .2812,0 1.573,0 2.8437-2.1588 2.8438-4.875v-10.3437h-5.6876v10.3437c0,2.5464 1.1289,4.6249 2.5626,4.875zm7.9687-.4062h4.25v-33.1563l-4.25.7188v16.0625c.5949.4936 1,1.2256 1,2.0625s-.4051,1.5687-1,2.0625v12.25zm444.4375-11.8438c2.0806,0 3.75-2.874 3.75-6.4687v-13.6563h-7.5v13.6563c0,3.5947 1.6677,6.4687 3.75,6.4687zm11.9375,0c2.082,0 3.75-2.874 3.75-6.4687v-13.6563h-7.5313v13.6563c0,3.5947 1.7004,6.4687 3.7813,6.4687zm408.25,0c2.081-.0001 3.75-2.8739 3.75-6.4687v-13.6563h-7.5v13.6563c0,3.5948 1.668,6.4687 3.75,6.4687zm11.9375,0c2.0824-.0001 3.75-2.8739 3.75-6.4687v-13.6563h-7.5312v13.6563c0,3.5948 1.7006,6.4687 3.7812,6.4687zm-1636.6875-19.0937c2.0811,0 3.75-2.9053 3.75-6.5v-13.6563h-7.5v13.6563c0,3.5947 1.6692,6.5 3.75,6.5zm11.9063,0c2.0811,0 3.75-2.9053 3.75-6.5v-13.6563h-7.5v13.6563c0,3.5947 1.6677,6.5 3.75,6.5zm-111.7813-1c2.0809,0 3.75-2.9053 3.75-6.5v-13.625h-7.5v13.625c0,3.5947 1.6691,6.5 3.75,6.5zm11.9063,0c2.0808,0 3.75-2.9053 3.75-6.5v-13.625h-7.5v13.625c0,3.5947 1.6676,6.5 3.75,6.5zm2083.5937-23.25c2.2338,0 4.0313-3.0807 4.0313-6.9375v-14.6563h-8.0626v14.6563c0,3.8569 1.799,6.9375 4.0313,6.9375zm12.7813,0c2.2337,0 4.0312-3.0807 4.0312-6.9375v-14.6563h-8.0625v14.6563c0,3.8569 1.7989,6.9375 4.0313,6.9375zm94.375-1.0625c2.2337,0 4.0312-3.0807 4.0312-6.9375v-14.6563h-8.0625v14.6563c0,3.8569 1.7988,6.9375 4.0313,6.9375zm12.7812,0c2.2324,0 4.0313-3.0807 4.0312-6.9375v-14.6563h-8.0624v14.6563c0,3.8569 1.7974,6.9375 4.0312,6.9375zm-2470.6875-8.6563c1.3684,0 2.4687-1.8864 2.4687-4.25v-8.9687h-4.9374v8.9687c0,2.3636 1.1003,4.25 2.4687,4.25zm7.8437,0c1.3686,0 2.4376-1.8864 2.4376-4.25v-8.9687h-4.9376v8.9687c0,2.3636 1.1314,4.25 2.5,4.25zm299.6876,0c1.3684,0 2.4687-1.8864 2.4687-4.25v-8.9687h-4.9687v8.9687c0,2.3636 1.132,4.25 2.5,4.25zm7.8124,0c1.3685,0 2.4688-1.8864 2.4688-4.25v-8.9687h-4.9375v8.9687c0,2.3636 1.1002,4.25 2.4687,4.25zm182.1876-2.4375c.9304-1.2709 2.3762-2.4346 4.4062-3.4687v-1.5313c-1.3024.5791-2.7133,1.1085-4.2812,1.5v1.9375c0,.5377-.06,1.0631-.125,1.5625zm-1470.84375-19.625c2.23309,0 4.03125-3.1119 4.03125-6.9687v-14.625h-8.0625v14.625c0,3.8569 1.79828,6.9687 4.03125,6.9687zm12.78125,0c2.23307,0 4.03125-3.1119 4.03125-6.9687v-14.625h-8.0625v14.625c0,3.8569 1.79828,6.9687 4.03125,6.9687zm94.375-1.0625c2.2331,0 4.03125-3.1119 4.03125-6.9687v-14.625h-8.0625v14.625c0,3.8569 1.79815,6.9687 4.03125,6.9687zm12.78125,0c2.23301,0 4.03125-3.1119 4.03125-6.9687v-14.625h-8.0625v14.625c0,3.8569 1.7982,6.9687 4.03125,6.9687zm3346.46865-2.6562c.2382-.1577.5426-.212.8438-.2188v-2.5c-.2709.065-.557.1065-.8438.125v2.5938zm-86.875-.875c1.4676,0 2.5938-2.0264 2.5938-4.5625v-9.6875h-5.2812v9.6875c0,2.5362 1.2195,4.5625 2.6874,4.5625zm8.375,0c1.4678,0 2.6563-2.0264 2.6563-4.5625v-9.6875h-5.3437v9.6875c0,2.5362 1.2181,4.5625 2.6874,4.5625zm-2716.59365-.5c2.08122,0 3.78125-2.9052 3.78125-6.5v-13.6563h-7.53125v13.6563c0,3.5947 1.66868,6.5 3.75,6.5zm11.9375,0c2.08113,0 3.75-2.9052 3.75-6.5v-13.6563h-7.5v13.6563c0,3.5947 1.66873,6.5 3.75,6.5zm-111.78125-1c2.08118,0 3.75-2.9052 3.75-6.5v-13.625h-7.53125v13.625c0,3.5947 1.69993,6.5 3.78125,6.5zm11.90625,0c2.08132,0 3.75-2.9052 3.75-6.5v-13.625h-6.09375v.062h-.65625v-.062h-.75v13.625c0,3.5947 1.66875,6.5 3.75,6.5zm-441.03125-29.4063c.23798-.1576.54338-.2432.84375-.25v-2.5c-.27041.065-.55762.1065-.84375.125v2.625zm-86.875-.9062c1.46829,0 2.59375-2.0265 2.59375-4.5625v-9.6875h-5.28125v9.6875c0,2.5361 1.21906,4.5625 2.6875,4.5625zm8.375,0c1.46841,0 2.65625-2.0265 2.65625-4.5625v-9.6875h-5.34375v9.6875c0,2.5361 1.21907,4.5625 2.6875,4.5625zm559.875-2.625c1.36866,0 2.5-1.8863 2.5-4.25v-9h-4.96875v9c0,2.3636 1.10025,4.25 2.46875,4.25zm7.84375,0c1.3687,0 2.46875-1.8863 2.46875-4.25v-9h-4.9375v9c0,2.3636 1.10039,4.25 2.46875,4.25z" fill="url(#c)"/>
   <path d="m2338.604,960.6058c-1.3261,0-2.6181,2.0277-2.9376,6.0937-.5655,7.1876-5.4876,14.6593-20.1562,30.6563-12.4702,13.5995-13.4101,19.633-4.5,29.7812 4.9245,5.608 5.9062,8.4124 5.9062,16.8125 0,8.7758-.5084,10.0938-3.9374,10.0938-2.6281,0-3.9375,1.3087-3.9376,3.9375 0,2.1686.9944,3.9687 2.1563,3.9687 .7843,0 .8558.6078.3125,1.5h-6.875v6.4063 2.0937 1.625h.1875c.6625,2.59 2.8827,4.526 5.625,4.75-.7554,24.9516.3075,61.3332-.5625,80.4375-3.8171.2832-6.6874,1.534-6.6875,3.0938 0,.071.022.1493.031.2187v.031c-.045.1189-.094.2493-.094.375 0,1.0008 1.4999,1.8445 3.4375,1.9688 .513.1454 1.0957.2442 1.6875.3437 .013,2.2023.018,6.7153 0,12.5625h-1.2812v1.875h1.25c-.032,9.1557-.1822,17.969-.2813,28.0625v107.8125c-1.4078-.3096-3.1-.5943-5.0313-.8125 .9559-1.3677 1.5314-2.9462 1.5313-4.7813 0-6.0478-6.085-12.3394-12.3437-13.0624l-.8126-15.4375-1.3437,15.4062c-6.3284.6131-12.5625,6.9831-12.5625,13.0937 0,1.8303.5771,3.4159 1.5312,4.7813-4.5095.5098-7.8228,1.3211-8.9062,2.25h8.125v12.0312c-.7676.4742-1.2812,1.309-1.2812,2.2813s.5135,1.8072 1.2812,2.2812v11.5313l-38.375-6.4688v-9.9687c.7016-.5812 1.1564-1.4836 1.1562-2.4688 0-.985-.457-1.8563-1.1562-2.4375v-14.4062h9.5625c-1.2719-1.0942-5.1595-1.994-10.4687-2.5938 1.1246-1.61 1.7812-3.5273 1.7812-5.6875 0-7.1188-7.1629-14.4925-14.5312-15.3437l-.063-1.1562 2.9063-.6875-3-1.25-.8125-15.0938-1.5625,18.1563c-5.0659.4907-10.1205,4.0997-12.8125,8.625v-26.4688h-9.9375c-.5745-1.8016-1.3799-3.4914-2.4063-5.0312 12.0726-5.9468 19.1563-15.4232 19.1563-30.5313 0-34.5721-36.9281-85.3981-86.4687-99.125v-7.6562h-4.6563v-6.2188c4.6657-.1413 2.0458-.1727 2.3125-.9687 3.4371-10.2906-13.9914-23.2971-16.5625-28s-4.4976-49.9417-5.6563-49.9688-3.7744,45.1098-6.5624,49.6875-20.0912,16.7243-17.5626,27.2188c.2132.8829-2.3229.9837 2.375,1.3437v6.9063h-4.6562v7.6562c-49.5574,13.7153-86.4688,64.5462-86.4688,99.125 0,15.1185 7.0385,24.5853 19.125,30.5313-1.0264,1.54-1.8316,3.2293-2.4062,5.0312h-9.9375v45.375c-1.1905-.2035-2.4896-.3712-3.9063-.5313 1.1249-1.61 1.8124-3.4961 1.8126-5.6562 0-7.119-7.1941-14.5239-14.5626-15.375l-.9687-18.1562-1.5625,18.125c-7.4487.7217-14.7813,8.2134-14.7812,15.4062 0,2.1545.6587,4.0489 1.7812,5.6562-5.3083.6-9.1932,1.5315-10.4688,2.625h9.5938v6.6875h-14.4062v-6.75c0-2.7182-1.1701-4.9062-2.6563-4.9062-.9642,0-1.8396.9222-2.3125,2.3125-.4713-1.3903-1.2861-2.3125-2.25-2.3125-1.4863,0-2.6875,2.188-2.6875,4.9062v6.75h-12.2813v-6.75c0-2.7182-1.1714-4.9062-2.6562-4.9062-.964,0-1.8084.9222-2.2812,2.3125-.4718-1.3903-1.3173-2.3125-2.2813-2.3125-1.4846,0-2.6875,2.188-2.6875,4.9062v6.75h-12.25v-6.75c0-2.7182-1.2026-4.9062-2.6875-4.9062-.9637,0-1.8097.9222-2.2813,2.3125-.4729-1.3903-1.2859-2.3125-2.25-2.3125-.7127,0-1.3608.5201-1.8437,1.3437v-6.9062c.5947-.4937 1-1.1944 1-2.0313s-.4053-1.5999-1-2.0937v-12.25h8.125c-1.0806-.9296-4.3647-1.7092-8.875-2.2187 .9555-1.3677 1.5312-2.9462 1.5313-4.7813 0-6.0478-6.1162-12.3395-12.375-13.0625l-.8126-15.4687-1.3124,15.4375c-6.3281.613-12.5938,6.9831-12.5938,13.0937 0,1.8303.5774,3.4158 1.5312,4.7813-4.5094.5097-7.7915,1.2898-8.875,2.2187h8.125v12.0313c-.7674.4741-1.2813,1.3401-1.2812,2.3124s.5136,1.776 1.2812,2.25v17h-9.75v-6.75c0-2.7182-1.2027-4.9062-2.6874-4.9062-.964,0-1.7771.9222-2.25,2.3125-.4718-1.3903-1.3486-2.3125-2.3126-2.3125-1.4846,0-2.6562,2.188-2.6562,4.9062v6.75h-12.25v-6.75c0-2.7182-1.2329-4.9062-2.7188-4.9062-.9637,0-1.7784.9222-2.25,2.3125-.4729-1.3903-1.3172-2.3125-2.2812-2.3125-1.4865,0-2.6875,2.188-2.6875,4.9062v6.75h-12.25v-6.75c0-2.7182-1.2013-4.9062-2.6875-4.9062-.9642,0-1.8083.9222-2.2812,2.3125-.4713-1.3903-1.3174-2.3125-2.2813-2.3125-1.4849,0-2.6563,2.188-2.6563,4.9062v12.4688c0,1.3591.2971,2.5812.7813,3.4687v19.5313h-19.9687v-65.5625c.7868-.6534 1.2812-1.6425 1.2812-2.75s-.4942-2.0965-1.2812-2.75v-16.1875h10.7187c-1.4299-1.2303-5.7817-2.2632-11.75-2.9375 1.2643-1.8102 2-3.9464 2-6.375 0-8.0041-8.0595-16.3243-16.3437-17.2812l-1.0938-20.4375-1.75,20.4062c-8.3744.8114-16.625,9.2254-16.625,17.3125 0,2.4224.7381,4.5678 2,6.375-5.9674.6746-10.3161,1.708-11.75,2.9375h10.75v15.9063c-1.0163.6275-1.6875,1.7444-1.6875,3.0312s.6711,2.4038 1.6875,3.0313v75.7187h.6562v29.9062h-3.0624v-5.1875c0-.2988-.042-.5869-.063-.875 1.2767-1.4215 1.8439-2.9901 1.8438-4.625 0-5.9721-7.7332-20.6434-28.7188-23.4062 .1939-.6629.2813-1.3684.2813-2.0938 0-3.9353-3.0388-7.146-6.9063-7.4062v-13.125h-1v13.125c-3.8791.2504-6.9684,3.464-6.9687,7.4062 0,.7254.1188,1.4309.3125,2.0938-20.9923,2.7628-28.7508,17.4341-28.75,23.4062 0,.1015.027.2116.031.3125-.5923-.8204-1.3231-1.3125-2.125-1.3125-.9983,0-1.8909.7836-2.5312,2-.2735-.1244-.5771-.2084-.875-.2812-.2432-.4097-.5152-.7579-.8125-1.0313v-7.75h-.625v7.2813c-.2873-.1404-.5938-.2188-.9063-.2188-1.6573,0-3.0198,2.0922-3.4062,4.9063-.1549.4737-.2813.9735-.2812,1.5 0,.3796.073.7355.1562,1.0937v.2813c-1.5335.2049-2.9584.5266-4.2812.9062v-2.1875c0-3.5873-1.6055-6.5-3.5626-6.5-1.1966,0-2.2365,1.0874-2.875,2.75-.6369-1.6632-1.6767-2.75-2.875-2.75-1.957,0-3.5312,2.9127-3.5312,6.5v5.1875h-4.2812v-5.1875c0-3.5873-1.6056-6.5-3.5626-6.5-1.1981,0-2.2378,1.0874-2.875,2.75-.6384-1.6632-1.6781-2.75-2.875-2.75-1.957,0-3.5312,2.9127-3.5312,6.5v5.1875h-4.2812v-5.1875c0-3.5873-1.6055-6.5-3.5626-6.5-1.1981,0-2.2364,1.0874-2.875,2.75-.6384-1.6632-1.6767-2.75-2.875-2.75-1.957,0-3.5312,2.9127-3.5312,6.5v5.1875h-4.3125v-5.1875c0-3.5873-1.5742-6.5-3.5313-6.5-1.1966,0-2.2365,1.0874-2.875,2.75-.6369-1.6632-1.6766-2.75-2.875-2.75-1.957,0-3.5625,2.9127-3.5624,6.5v5.1875h-4.25v-8.8437h1.3437c.7943,0 1.4375-.642 1.4375-1.4375s-.643-1.4375-1.4375-1.4375h-1.0937c.5125-.7688.8125-1.673.8124-2.7813 0-1.2833-.3841-2.8608-1.0624-4.5v-.125h-.063c-1.9403-4.5959-6.2028-9.5937-11.1874-9.5937s-9.2376,4.9987-11.1876,9.5937h-.9062v2.5938c-.1648.7242-.2503,1.4176-.25,2.0312 0,.5926.093,1.1349.25,1.625v1.1563c-.7812.017-1.4375.6528-1.4375,1.4375s.6564,1.4195 1.4375,1.4375v8.8437h-4.25v-6.375h-7.25v-14.5625c.787-.6535 1.3124-1.6112 1.3125-2.7187s-.5254-2.1279-1.3125-2.7813v-16.1875h10.75c-1.4316-1.2301-5.7802-2.2631-11.75-2.9375 1.2658-1.8102 2-3.9463 2-6.375 0-8.004-8.058-16.3243-16.3438-17.2812l-1.0937-20.4375-1.75,20.4062c-8.3743.8114-16.625,9.2254-16.625,17.3125 0,2.4224.738,4.5678 2,6.375-5.9679.6746-10.3147,1.7082-11.75,2.9375h10.75v15.9375c-1.0152.6275-1.6875,1.7446-1.6875,3.0313s.6723,2.3727 1.6875,3v14.2812h-12.0625v36.6563c-.104.029-.2083.066-.3125.094v-15.4063h-7.9375v-9.375c.6687-.4126 1.125-1.1226 1.125-1.9687s-.4563-1.5874-1.125-2v-10.5h7.0625c-.9432-.8084-3.7959-1.4626-7.7187-1.9063 .8288-1.1881 1.3437-2.5947 1.3437-4.1875 0-5.3174-5.462-10.8728-10.9687-11.4062l-1.125-13.4063-.7188,13.4375c-5.4473.6293-10.7813,6.1122-10.7812,11.375 0,1.597.5131,2.9974 1.3437,4.1875-3.9232.4436-6.7782,1.0974-7.7187,1.9063h7.0312v10.6562c-.5172.4297-.8438,1.1156-.8438,1.8438s.3267,1.3516.8438,1.7812v9.5625h-4.75v4.2188h-2.7812v-12.5938h-2.3438v-11.9687h-12.0625v-14.2813c1.0165-.6274 1.7185-1.7131 1.7187-3s-.7022-2.435-1.7187-3.0625v-15.9062h10.7813c-1.4356-1.2295-5.8136-2.2629-11.7813-2.9375 1.2633-1.8072 2.0313-3.9526 2.0313-6.375 0-8.0871-8.2519-16.5011-16.625-17.3125l-1.7813-20.4063-1.0937,20.4375c-8.2841.957-16.3438,9.2772-16.3438,17.2813 0,2.4287.7666,4.5648 2.0312,6.375-5.9683.6743-10.3498,1.7072-11.7812,2.9375h10.75v16.1875c-.7871.6534-1.3125,1.6737-1.3125,2.7812s.5255,2.0654 1.3125,2.7188v14.5625h-7.2188v5.375h-4.25v-9.8125c.7811-.018 1.4063-.6841 1.4063-1.4688s-.6254-1.4205-1.4063-1.4375v-1.1562c.1562-.49.2501-1.0326.25-1.625 0-.6137-.087-1.3072-.25-2.0313v-.5937h-.1874c-1.3969-5.0099-6.2164-11.5938-11.9376-11.5938-6.8097,0-12.3124,9.3096-12.3124,14.2188 0,1.1082.2985,2.0124.8124,2.7812h-1.0937c-.7957,0-1.4063.642-1.4063,1.4375s.6106,1.4688 1.4063,1.4688h1.3437v10.8125h-4.25v-5.2188c.0001-3.5873-1.5745-6.4687-3.5312-6.4687-1.197,0-2.2368,1.0868-2.875,2.75-.6374-1.6627-1.7079-2.75-2.9062-2.75-1.9569,0-3.5313,2.8814-3.5313,6.4687v5.2188h-4.2813v-5.2188c.0001-3.5873-1.5745-6.4687-3.5312-6.4687-1.1984,0-2.2694,1.0868-2.9062,2.75-.6388-1.6627-1.6767-2.75-2.875-2.75-1.9556,0-3.5313,2.8814-3.5313,6.4687v5.2188h-4.2813v-5.2188c.0001-3.5873-1.5745-6.4687-3.5312-6.4687-1.1984,0-2.268,1.0868-2.9062,2.75-.6388-1.6627-1.6767-2.75-2.875-2.75-1.9569,0-3.5313,2.8814-3.5313,6.4687v5.2188h-4.2813v-5.2188c.0001-3.5873-1.5745-6.4687-3.5312-6.4687-1.197,0-2.268,1.0868-2.9062,2.75-.6375-1.6627-1.6767-2.75-2.875-2.75-1.9569,0-3.5313,2.8814-3.5313,6.4687v5.2188h-4.2813v-5.2188c.0001-3.5873-1.5745-6.4687-3.5312-6.4687-1.1984,0-2.2695,1.0868-2.9062,2.75-.6388-1.6627-1.6767-2.75-2.875-2.75-1.9556,0-3.5313,2.8814-3.5313,6.4687v4.2188h-4.2813v-4.2188c0-.021.0002-.041 0-.062 3.994-2.0358 5.7186-4.604 5.7188-7.4062 .0006-5.9722-7.7593-20.6434-28.75-23.4063 .1937-.6629.3125-1.3682.3125-2.0937 0-3.9423-3.0582-7.1246-6.9375-7.375v-13.125h-1v13.125c-3.8673.2602-6.9064,3.4396-6.9062,7.375 0,.7255.057,1.4308.25,2.0937-20.9872,2.7629-28.7188,17.4341-28.7188,23.4063 0,1.7412.6689,3.4116 2.125,4.9062-.189.7946-.3125,1.6388-.3125,2.5625v4.2188h-2.3437v1h-30.5313v5.5937h-1.1563v12.5938h-2.8124v-4.2188h-4.7813v-9.5625c.5167-.4296.875-1.053.875-1.7812s-.3582-1.4141-.875-1.8438v-10.6562h7.0937c-.9408-.8089-3.8251-1.4627-7.75-1.9063 .8323-1.1901 1.3126-2.5905 1.3126-4.1875 0-5.2628-5.2727-10.7457-10.7188-11.375l-.7188-13.4375-1.1874,13.4063c-5.5052.5334-10.9063,6.0888-10.9063,11.4062 0,1.5928.4819,2.9994 1.3125,4.1875-3.9245.4437-6.8069,1.0979-7.75,1.9063h7.0938v10.5c-.6677.4126-1.125,1.1539-1.125,2s.4573,1.5561 1.125,1.9687v9.375h-7.9376v24.0938c-2.7391.7713-5.6323,1.2187-8.625,1.2187h-3.9374v13.8125h-12.5626v-13.8125h-1.3124c-3.7257,0-7.2788-.6684-10.5938-1.8437v-12.9688h-16.1875c-1.2294-1.9611-2.2518-4.0599-3.0312-6.2812h-9.5v-6.5h1.4687c.5233,0 .9688-.4144.9688-.9375s-.4457-.9375-.9688-.9375h-.3437c.3388-.5042.5312-1.1157.5312-1.8438 0-3.2278-3.6475-9.3437-8.125-9.3437s-8.0937,6.1159-8.0937,9.3437c0,.7288.194,1.3383.5312,1.8438h-.7187c-.5231,0-.9375.4144-.9375.9375s.4144.9375.9375.9375h2.375v27.5937h-12.6875v-7.1562h-5.9688c-1.2076-4.0312-4.9509-6.9688-9.375-6.9688s-8.168,2.9376-9.375,6.9688h-6v7.1562h-11.5625v-21.0937h-9.375v-1.4375c5.3302-1.4364 7.5-3.6905 7.5-6.25 .0006-3.927-5.0723-13.5896-18.875-15.4063 .1273-.4358.1875-.8979.1875-1.375 0-2.592-2.0116-4.6791-4.5625-4.8437v-8.625h-.6562v8.625c-2.5429.1711-4.5625,2.2562-4.5625,4.8437 0,.4771.06.9392.1875,1.375-13.79761,1.817-18.90435,11.4796-18.90435,15.4066 0,2.5633 2.21519,4.814 7.5625,6.25v1.4375h-7.90625v30.5c-.8141.3972-1.49746,1.2721-1.96875,2.5-.63798-1.6634-1.67688-2.75-2.875-2.75-1.605,0-2.94119,1.9753-3.375,4.6562h-4.625c-.4336-2.682-1.76927-4.6562-3.375-4.6562-1.19802,0-2.23692,1.0872-2.875,2.75-.63798-1.6634-1.70813-2.75-2.90625-2.75-1.95656,0-3.53145,2.8813-3.53125,6.4687v5.2188h-4.28125v-5.2188c0-3.5874-1.57449-6.4687-3.53125-6.4687-1.19816,0-2.23678,1.0872-2.875,2.75-.63798-1.6634-1.70813-2.75-2.90625-2.75-1.95656,0-3.53145,2.8813-3.53125,6.4687v5.2188h-4.25v-8.8438h1.34375c.79566,0 1.4375-.642 1.4375-1.4375s-.64184-1.4375-1.4375-1.4375h-1.09375c.51306-.7688.8125-1.673.8125-2.7812 0-1.2835-.3848-2.8609-1.0625-4.5v-.125h-.0625c-1.9404-4.5959-6.20398-9.5938-11.1875-9.5938s-9.26875,4.9988-11.21875,9.5938h-.875v2.5937c-.16478.7243-.25,1.4176-.25,2.0313 0,.5926.0937,1.135.25,1.625v1.1562c-.7809.017-1.4375.6528-1.4375,1.4375s.6566,1.4196 1.4375,1.4375v8.8438h-4.25v-6.375h-7.25v-14.5625c.78676-.6535 1.3125-1.6112 1.3125-2.7188s-.52564-2.128-1.3125-2.7812v-16.1875h10.75c-1.43074-1.2303-5.78132-2.2632-11.75-2.9375 1.26496-1.8102 1.9999-3.9463 2-6.375 0-8.004-8.05903-16.3243-16.34375-17.2813l-1.09375-20.4375-1.78125,20.4063c-8.37402.8112-16.625,9.2255-16.625,17.3125 0,2.4224.76865,4.5678 2.03125,6.375-5.96802.6746-10.31526,1.7081-11.75,2.9375h10.75v15.9062c-1.01622.6276-1.71875,1.7758-1.71875,3.0625s.70253,2.3725 1.71875,3v14.2813h-12.0625v36.6562c-.10316.029-.209.065-.3125.094v-15.4062h-7.9375v-9.375c.668-.4125 1.125-1.154 1.125-2s-.457-1.5561-1.125-1.9688v-10.5h7.0625c-.94334-.8083-3.79457-1.4627-7.71875-1.9062 .83018-1.1881 1.34375-2.5947 1.34375-4.1875 0-5.3174-5.46271-10.8727-10.96875-11.4063l-1.15625-13.4375-.6875,13.4688c-5.4476.6292-10.78125,6.1122-10.78125,11.375 0,1.597.51187,2.9972 1.34375,4.1875-3.92462.4433-6.77787,1.0973-7.71875,1.9062h7.03125v10.6563c-.51732.4297-.84375,1.0841-.84375,1.8125s.32633,1.3828.84375,1.8125v9.5625h-4.75v4.2187h-2.78125v-12.5937h-2.34375v-11.9688h-12.0625v-14.2812c1.01622-.6275 1.71875-1.7131 1.71875-3s-.70253-2.435-1.71875-3.0625v-15.9063h10.78125c-1.43464-1.2293-5.81327-2.2629-11.78125-2.9375 1.2626-1.8071 2.03115-3.9526 2.03125-6.375 0-8.0871-8.25098-16.5012-16.625-17.3125l-1.78125-20.4062-1.09375,20.4375c-8.28458.9569-16.34375,9.2772-16.34375,17.2812 0,2.4288.76615,4.5649 2.03125,6.375-5.96858.6743-10.35041,1.7073-11.78125,2.9375h10.75v16.1875c-.7871.6534-1.3125,1.6738-1.3125,2.7813s.5255,2.0654 1.3125,2.7187v14.5625h-7.25v5.375h-4.25v-9.8125c.78096-.018 1.4375-.6842 1.4375-1.4687s-.65674-1.4203-1.4375-1.4375v-1.1875c.15634-.4901.25-1.0012.25-1.5938 0-.6136-.0858-1.307-.25-2.0312v-.625h-.15625c-1.39662-5.0098-6.217-11.5624-11.9375-11.5625-6.80966,0-12.3126,9.3097-12.3125,14.2187 0,1.1083.29958,2.0125.8125,2.7813h-1.09375c-.79556,0-1.4375.6418-1.4375,1.4375s.64194,1.4687 1.4375,1.4687h1.34375v10.8125h-4.25v-5.2187c.0001-3.5874-1.57469-6.4688-3.53125-6.4688-1.19812,0-2.26827,1.0868-2.90625,2.75-.63808-1.6627-1.67698-2.75-2.875-2.75-1.95676,0-3.53125,2.8815-3.53125,6.4688v5.2187h-4.28125v-5.2187c.0001-3.5874-1.57469-6.4688-3.53125-6.4688-1.19812,0-2.26827,1.0868-2.90625,2.75-.63808-1.6627-1.67698-2.75-2.875-2.75-1.95676,0-3.53125,2.8815-3.53125,6.4688v3.5c-1.23109-.9861-2.65505-1.625-4.15625-1.625h-.125v-1.875c.0001-3.5874-1.57461-6.4688-3.53125-6.4688-1.19818,0-2.26827,1.0868-2.90625,2.75-.63808-1.6627-1.67698-2.75-2.875-2.75-1.95676,0-3.53125,2.8815-3.53125,6.4688v5.2187h-4.28125v-5.2187c.0001-3.5874-1.57469-6.4688-3.53125-6.4688-1.19812,0-2.26817,1.0868-2.90625,2.75-.63812-1.6627-1.67684-2.75-2.875-2.75-1.95676,0-3.53125,2.8815-3.53125,6.4688v5.2187h-4.28125v-5.2187c.0001-3.5874-1.60594-6.4688-3.5625-6.4688-1.19812,0-2.23692,1.0868-2.875,2.75-.63798-1.6627-1.67698-2.75-2.875-2.75-1.95676,0-3.53125,2.8815-3.53125,6.4688v4.2187h-4.28125v-4.2187c0-.021.0001-.042 0-.062 3.99456-2.0359 5.71885-4.6041 5.71875-7.4063 .0009-5.9721-7.75832-20.6433-28.75-23.4062 .1937-.6628.3125-1.3682.3125-2.0938 0-3.9422-3.08951-7.1245-6.96875-7.375v-13.125h-.96875v13.125c-3.86744.2603-6.9375,3.4397-6.9375,7.375 0,.7256.0876,1.431.28125,2.0938-3.10478.4087-5.8946,1.106-8.4375,1.9687l-1.03125-11.5312-.625,12.125c-13.40177,5.2388-18.625,15.9537-18.625,20.8437 0,1.7412.63695,3.4117 2.09375,4.9063-.189.7947-.3125,1.6386-.3125,2.5625v4.2187h-2.3125v1h-1.1875v-1.9062h-32.75v-1.0313h-2.5v-4.5312c0-.8535-.125-1.6562-.28125-2.4063h4.5c-.57995-.4986-1.94287-.9083-3.78125-1.2812 1.01577-1.3582 1.5-2.7918 1.5-4.3125 0-4.6364-4.34652-14.1891-15.28125-20.2188l-.28125-5.125-.40625,4.75c-4.05032-2.1257-8.95585-3.7561-14.84375-4.5312 .20793-.7111.28125-1.4716.28125-2.25 0-4.2224-3.2568-7.6583-7.40625-7.9375v-14.0938h-1.0625v14.0938c-4.16232.2687-7.46875,3.7077-7.46875,7.9375 0,.7784.13582,1.5389.34375,2.25-22.52288,2.9643-30.87596,18.7172-30.875,25.125-.00011,3.0067 1.87034,5.7531 6.15625,7.9375-.0001.022 0,.04 0,.062v4.5312h-4.59375v-4.5312c0-3.849-1.68172-6.9688-3.78125-6.9688-1.28534,0-2.40918,1.1847-3.09375,2.9688-.68454-1.7846-1.80817-2.9688-3.09375-2.9688-2.09917,0-3.78133,3.1197-3.78125,6.9688v5.5625h-4.59375v-5.5625c0-3.849-1.71297-6.9688-3.8125-6.9688-1.28547,0-2.44043,1.1847-3.125,2.9688-.68467-1.7846-1.77706-2.9688-3.0625-2.9688-2.09932,0-3.81261,3.1197-3.8125,6.9688v5.5625h-4.59375v-5.5625c0-3.849-1.68172-6.9688-3.78125-6.9688-1.28533,0-2.44033,1.1847-3.125,2.9688-.68443-1.7846-1.80817-2.9688-3.09375-2.9688-2.09918,0-3.78135,3.1197-3.78125,6.9688v5.5625h-4.59375v-5.5625c0-3.849-1.68186-6.9688-3.78125-6.9688-1.28548,0-2.40922,1.1847-3.09375,2.9688-.68457-1.7846-1.83956-2.9688-3.125-2.9688-2.09931,0-3.78136,3.1197-3.78125,6.9688v5.5625h-4.59375v-5.5625c0-3.849-1.71297-6.9688-3.8125-6.9688-1.28533,0-2.37782,1.1847-3.0625,2.9688-.68457-1.7846-1.80817-2.9688-3.09375-2.9688-2.09932,0-3.78136,3.1197-3.78125,6.9688v5.5625h-4.5625v-11.5938h1.40625c.85358,0 1.53125-.6776 1.53125-1.5312s-.67767-1.5625-1.53125-1.5625h-1.15625c.55046-.8249.84375-1.7797.84375-2.9688 .00011-5.2671-5.91233-15.2812-13.21875-15.2812-6.13766.0001-11.28287,7.031-12.78125,12.4062h-.1875v.6875c-.17687.777-.28125,1.5291-.28125,2.1875 0,.6358.11341,1.1616.28125,1.6875v1.2813c-.30028.01-.57451.098-.8125.25v-3.4063h-.65625v4.3125c-.0346.1261-.0625.2692-.0625.4063s.0278.2164.0625.3437v3.5625c-1.65503.1114-3.07629,1.0326-3.875,2.375h-6.96875v-15.5937c.84439-.7011 1.40625-1.7493 1.40625-2.9375s-.56175-2.2677-1.40625-2.9688v-17.375h11.53125c-1.53526-1.3199-6.22103-2.4328-12.625-3.1562 1.35733-1.9422 2.15625-4.2379 2.15625-6.8438 0-8.588-8.64225-17.4733-17.53125-18.5l-1.1875-21.9375-1.875,21.9063c-8.98473.8705-17.84375,9.8542-17.84375,18.5312 .0001,2.5991.8016,4.9048 2.15625,6.8438-6.40319.7237-11.0858,1.8373-12.625,3.1562h11.5625v17.0938c-1.09017.6732-1.84375,1.8693-1.84375,3.25s.75358,2.5768 1.84375,3.25v15.2812h-12.9375v12.875h-2.53125v13.5h-2.96875v-4.5312h-5.09375v-10.25c.55529-.461.90625-1.1249.90625-1.9063s-.35107-1.539-.90625-2v-11.4062h7.53125c-1.00942-.8679-4.07042-1.5868-8.28125-2.0625 .89257-1.2772 1.4375-2.7865 1.4375-4.5 0-5.6468-5.6864-11.5124-11.53125-12.1875l-.78125-14.4375-1.25,14.4062c-5.90759.5725-11.71875,6.5134-11.71875,12.2188 0,1.709.5155,3.2251 1.40625,4.5-4.21051.4759-7.26902,1.1952-8.28125,2.0625h7.59375v11.25c-.7168.4427-1.1875,1.2483-1.1875,2.1562s.4707,1.6511 1.1875,2.0938v10.0625h-8.5v16.5312l-.34375-.094v-39.3437h-12.9375v-15.3125c1.09017-.6732 1.8125-1.8381 1.8125-3.2188s-.72233-2.608-1.8125-3.2812v-17.0625h11.53125c-1.5393-1.319-6.22192-2.4324-12.625-3.1563 1.35466-1.9389 2.15625-4.2134 2.15625-6.8125 0-8.6769-8.85897-17.7232-17.84375-18.5937l-1.875-21.9063-1.1875,21.9375c-8.88894,1.0267-17.53125,9.9748-17.53125,18.5625 .00011,2.6059.79892,4.8704 2.15625,6.8125-6.40404.7236-11.05863,1.8363-12.59375,3.1563h11.5v17.375c-.8443.7009-1.40625,1.7804-1.40625,2.9687s.56205,2.2365 1.40625,2.9375v15.5938h-7.75v6.875h-4.5625v-9.5c.83781-.019 1.53125-.721 1.53125-1.5625s-.69344-1.5132-1.53125-1.5313v-1.2187c.1683-.5258.28125-1.1455.28125-1.7813 0-.6585-.10453-1.3793-.28125-2.1562v-2.8125h-.96875c-2.09191-4.9301-6.65407-10.25-12-10.25s-9.94934,5.3188-12.03125,10.25h-.0625v.125c-.72714,1.7586-1.125,3.4668-1.125,4.8437 0,1.1891.32459,2.1751.875,3h-1.1875c-.85369,0-1.53125.6776-1.53125,1.5313s.67756,1.5625 1.53125,1.5625h1.4375v9.5h-4.5625v-5.5938c.00021-3.849-1.68196-6.9375-3.78125-6.9375-1.28554,0-2.44047,1.1528-3.125,2.9375-.68462-1.784-1.80832-2.9375-3.09375-2.9375-2.0995,0-3.78125,3.0885-3.78125,6.9375v5.5938h-4.59375v-5.5938c.00021-3.849-1.68198-6.9375-3.78125-6.9375-1.28554,0-2.40922,1.1528-3.09375,2.9375-.68464-1.784-1.83957-2.9375-3.125-2.9375-2.09949,0-3.78125,3.0885-3.78125,6.9375v5.5938h-4.59375v-5.5938c.00021-3.849-1.71322-6.9375-3.8125-6.9375-1.28554,0-2.37797,1.1528-3.0625,2.9375-.68463-1.784-1.80832-2.9375-3.09375-2.9375-2.09949,0-3.84375,3.0885-3.84375,6.9375v5.5938h-4.59375v-5.5938c.00021-3.849-1.68198-6.9375-3.78125-6.9375-1.28554,0-2.40922,1.1528-3.09375,2.9375-.68464-1.784-1.80832-2.9375-3.09375-2.9375-2.09949,0-3.78125,3.0885-3.78125,6.9375v2.3438c-.37646-.1081-.76445-.1844-1.15625-.2813v129.3125h3878.06245v-184.2812c-4.3556-3.0349-10.1203-5.4621-17.5312-6.4375 .1936-.6628.3125-1.3995.3124-2.125 0-3.9423-3.0893-7.1245-6.9687-7.375v-13.125h-.9687v13.125c-3.8673.2602-6.9375,3.4396-6.9376,7.375 0,.7255.087,1.4622.2813,2.125-3.1048.4087-5.8947,1.0748-8.4375,1.9375l-1.0312-11.5313-.625,12.125c-13.4019,5.2389-18.6251,15.9538-18.625,20.8438 0,1.7412.6364,3.4116 2.0937,4.9062-.1889.7947-.3125,1.6699-.3125,2.5938v4.2187h-2.3125v.9688h-1.1875v-1.875h-32.75v-1.0625h-2.5v-4.5313c0-.8534-.1252-1.6249-.2812-2.375h4.5c-.58-.4986-1.9424-.9396-3.7813-1.3125 1.0159-1.3582 1.5-2.7918 1.5-4.3125 0-4.6364-4.3775-14.1578-15.3125-20.1875l-.25-5.125-.4062,4.75c-4.0503-2.1257-8.9557-3.7561-14.8438-4.5312 .208-.7111.2813-1.5029.2812-2.2813 0-4.2223-3.2563-7.6582-7.4062-7.9375v-14.0937h-1.0625v14.0937c-4.163.2688-7.4687,3.7078-7.4687,7.9375 0,.7784.137,1.5702.3437,2.2813-22.5217,2.9643-30.876,18.6859-30.875,25.0937-.0002,3.0067 1.8702,5.7532 6.1563,7.9375-.0002.022 0,.04 0,.062v4.5313h-4.5938v-4.5313c0-3.849-1.6818-6.9375-3.7812-6.9375-1.285,0-2.4097,1.1535-3.0938,2.9375-.6841-1.7846-1.8086-2.9375-3.0938-2.9375-2.099,0-3.7812,3.0884-3.7812,6.9375v5.5938h-4.5938v-5.5938c0-3.849-1.7133-6.9375-3.8124-6.9375-1.285,0-2.441,1.1535-3.125,2.9375-.6852-1.7846-1.7776-2.9375-3.0626-2.9375-2.099,0-3.8126,3.0884-3.8124,6.9375v5.5938h-4.5938v-5.5938c0-3.849-1.682-6.9375-3.7812-6.9375-1.2863,0-2.4099,1.1535-3.0938,2.9375-.6853-1.7846-1.84-2.9375-3.125-2.9375-2.1003,0-3.7814,3.0884-3.7812,6.9375v5.5938h-4.5938v-5.5938c0-3.849-1.6809-6.9375-3.7812-6.9375-1.2852,0-2.4087,1.1535-3.0938,2.9375-.6841-1.7846-1.8388-2.9375-3.125-2.9375-2.0993,0-3.7815,3.0884-3.7812,6.9375v5.5938h-4.5938v-5.5938c0-3.849-1.7131-6.9375-3.8125-6.9375-1.285,0-2.3772,1.1535-3.0625,2.9375-.6839-1.7846-1.8085-2.9375-3.0938-2.9375-2.099,0-3.7814,3.0884-3.7812,6.9375v5.5938h-4.5625v-11.5938h1.4063c.8528,0 1.5312-.7089 1.5312-1.5625s-.6784-1.5625-1.5312-1.5625h-1.1563c.5501-.8248.8437-1.7796.8437-2.9687 .0002-5.2672-5.9129-15.2813-13.2187-15.2813-6.1386.0002-11.282,7.0623-12.7813,12.4375h-.1874v.6563c-.1767.777-.2813,1.5291-.2813,2.1875 0,.6357.1135,1.1928.2813,1.7187v1.25c-.2998.01-.5756.098-.8126.25v-3.4062h-.6562v4.3125c-.035.126-.062.2691-.062.4062s.028.2477.062.375v3.5313c-1.6543.1114-3.0762,1.0324-3.875,2.375h-6.9688v-15.5938c.8448-.7009 1.4063-1.7179 1.4063-2.9062s-.5614-2.2989-1.4063-3v-17.375h11.5313c-1.5363-1.3199-6.2211-2.4328-12.625-3.1563 1.3573-1.9421 2.1563-4.2066 2.1563-6.8125 0-8.5878-8.6425-17.5045-17.5313-18.5312l-1.1875-21.9375-1.875,21.9062c-8.9853.8705-17.8437,9.8855-17.8438,18.5625 .0002,2.5991.8017,4.8736 2.1563,6.8125-6.4033.7238-11.0858,1.8373-12.625,3.1563h11.5625v17.0937c-1.0898.6732-1.8437,1.9006-1.8438,3.2813s.754,2.5455 1.8438,3.2187v15.2813h-12.9375v12.875h-2.5313v13.5h-2.9687v-4.5313h-5.0937v-10.2187c.5561-.461.9062-1.1561.9062-1.9375s-.3501-1.5078-.9062-1.9688v-11.4375h7.5312c-1.0098-.868-4.0696-1.5555-8.2812-2.0312 .8931-1.2772 1.4374-2.7865 1.4374-4.5 0-5.6468-5.6863-11.5124-11.5312-12.1875l-.7812-14.4688-1.25,14.4375c-5.908.5725-11.7189,6.5134-11.7188,12.2188 0,1.709.516,3.2251 1.4062,4.5-4.21.4759-7.2699,1.1638-8.2812,2.0312h7.5938v11.2813c-.7176.4427-1.1876,1.2171-1.1876,2.125s.47,1.6822 1.1876,2.125v10.0312h-8.5v16.5625l-.3438-.094v-39.3437h-12.9375v-15.3438c1.0899-.6732 1.8125-1.838 1.8125-3.2187s-.7226-2.5768-1.8125-3.25v-17.0625h11.5313c-1.5393-1.319-6.2219-2.4636-12.625-3.1875 1.3548-1.939 2.1561-4.2134 2.1562-6.8125 0-8.6768-8.8587-17.7234-17.8438-18.5938l-1.875-21.9062-1.1874,21.9375c-8.8889,1.0267-17.5313,9.9747-17.5313,18.5625 .0001,2.6059.799,4.8703 2.1563,6.8125-6.404.7236-11.0587,1.8675-12.5938,3.1875h11.5v17.375c-.8435.7009-1.4062,1.7492-1.4062,2.9375s.5629,2.2364 1.4062,2.9375v15.625h-7.75v6.8437h-4.5625v-9.5c.8371-.019 1.5313-.6896 1.5313-1.5312s-.6942-1.5444-1.5313-1.5625v-1.2188c.1681-.5258.2813-1.1142.2813-1.75 0-.6585-.1047-1.4105-.2813-2.1875v-2.7812h-.9687c-2.0932-4.9302-6.6547-10.2813-12-10.2813s-9.9497,5.3501-12.0313,10.2813h-.062v.125c-.7267,1.7586-1.125,3.4667-1.125,4.8437 0,1.189.3245,2.1439.875,2.9688h-1.1875c-.8531,0-1.5312.7088-1.5313,1.5625s.6782,1.5312 1.5313,1.5312h1.4375v9.5h-4.5625v-5.5937c.0002-3.849-1.6822-6.9375-3.7813-6.9375-.3346,0-.66.1018-.9687.25v-34.1875h-11.9687v-2.1563c8.1323-2.184 11.4374-5.6327 11.4374-9.5312 0-5.9722-7.7316-20.6435-28.7187-23.4063 .1938-.6628.25-1.3994.25-2.125 0-3.9352-3.0389-7.1148-6.9063-7.375v-13.125h-1v13.125c-3.8791.2505-6.9374,3.4329-6.9374,7.375 0,.7255.1188,1.4623.3124,2.125-20.9908,2.7629-28.7501,17.4341-28.75,23.4063 0,3.8927 3.3318,7.3155 11.4376,9.5v2.1875h-14.2813v32.0625h-17.5937v-10.8438h-9.125c-1.8349-6.1309-7.4909-10.625-14.2188-10.625s-12.4123,4.4941-14.25,10.625h-9.125v10.8438h-19.2812v-41.9063h3.625c.7957-.0001 1.4062-.6731 1.4062-1.4687s-.6106-1.4063-1.4062-1.4063h-1.0938c.5137-.7687.8125-1.7041.8125-2.8125 0-4.9091-5.5027-14.1875-12.3125-14.1875s-12.375,9.2784-12.375,14.1875c0,1.1073.2975,2.0458.8125,2.8125h-.5313c-.7957,0-1.4374.6107-1.4374,1.4063s.6411,1.4687 1.4374,1.4687h2.25v9.8438h-14.4687c-1.185,3.3784-2.7244,6.58-4.5937,9.5625h-24.625v19.75c-5.0417,1.7876-10.4575,2.75-16.125,2.75h-1.9688v21.0625h-19.0938v-21.0625h-6c-4.5529,0-8.9593-.6083-13.125-1.7813v-36.6875h-12.0624v-14.25c1.0162-.6275 1.6875-1.7442 1.6874-3.0312s-.6714-2.4037-1.6874-3.0313v-15.9062h10.75c-1.4352-1.2295-5.7827-2.2943-11.75-2.9688 1.2618-1.8071 2-3.9213 2-6.3437 0-8.0871-8.2507-16.5011-16.625-17.3125l-1.75-20.4062-1.0938,20.4374c-8.2854.9571-16.3438,9.2772-16.3438,17.2813 0,2.4287.7342,4.5335 2,6.3437-5.9697.6743-10.3189,1.7384-11.75,2.9688h10.75v16.1875c-.7869.6534-1.3124,1.6427-1.3124,2.75s.5258,2.0966 1.3124,2.75v14.5312h-7.25v6.4063h-4.25v-19.1563h-23.3437v19.1563h-4.25v-5.2188c0-3.5873-1.6061-6.4687-3.5625-6.4687-1.1986-.0001-2.2378,1.0867-2.875,2.75-.6386-1.6627-1.6764-2.75-2.875-2.75-1.9556-.0001-3.5313,2.8814-3.5312,6.4687v5.2188h-4.2813v-5.2188c0-3.5873-1.6061-6.4687-3.5625-6.4687-1.1984-.0001-2.2366,1.0867-2.875,2.75-.6384-1.6627-1.6764-2.75-2.875-2.75-1.9568-.0001-3.5625,2.8814-3.5625,6.4687v5.2188h-4.2813v-5.2188c0-3.5873-1.5748-6.4687-3.5312-6.4687-1.1974-.0001-2.2368,1.0867-2.875,2.75-.6374-1.6627-1.6764-2.75-2.875-2.75-1.9566-.0001-3.5625,2.8814-3.5625,6.4687v5.2188h-4.2813v-5.2188c0-3.5873-1.5748-6.4687-3.5312-6.4687-1.1986-.0001-2.2378,1.0867-2.875,2.75-.6386-1.6627-1.6764-2.75-2.875-2.75-1.9556-.0001-3.5625,2.8814-3.5625,6.4687v5.2188h-4.2813v-5.2188c0-3.5873-1.5748-6.4687-3.5312-6.4687-1.1984-.0001-2.2366,1.0867-2.875,2.75-.6384-1.6627-1.6764-2.75-2.875-2.75-1.9568-.0001-3.5625,2.8814-3.5625,6.4687v5.2188h-4.2813v-5.2188c0-3.5873-1.5748-6.4687-3.5312-6.4687-1.1974-.0001-2.2368,1.0867-2.875,2.75-.6374-1.6627-1.7077-2.75-2.9062-2.75-1.9566-.0001-3.5313,2.8814-3.5313,6.4687v5.2188h-4.2813v-5.2188c0-3.5873-1.5748-6.4687-3.5312-6.4687-1.1986-.0001-2.2378,1.0867-2.875,2.75-.6386-1.6627-1.7077-2.75-2.9062-2.75-1.9556-.0001-3.5313,2.8814-3.5313,6.4687v5.2188h-4.2813v-5.2188c0-3.5873-1.5748-6.4687-3.5312-6.4687-1.1985-.0001-2.2366,1.0867-2.875,2.75-.6386-1.6627-1.7077-2.75-2.9062-2.75-1.9568-.0001-3.5313,2.8814-3.5313,6.4687v5.2188h-4.2813v-5.2188c0-3.5873-1.5748-6.4687-3.5312-6.4687-1.1974-.0001-2.2368,1.0867-2.875,2.75-.6379-1.6627-1.7076-2.75-2.9062-2.75-1.9568-.0001-3.5313,2.8814-3.5313,6.4687v5.2188h-10.0313v-5.2188c0-3.5873-1.5745-6.4687-3.5312-6.4687-1.1986,0-2.2364,1.0873-2.875,2.75-.638-1.6632-1.6766-2.75-2.875-2.75-1.9564,0-3.5626,2.8814-3.5625,6.4687v5.2188h-4.2813v-5.2188c0-3.5873-1.5755-6.4687-3.5312-6.4687-1.1986,0-2.2366,1.0873-2.875,2.75-.637-1.6632-1.6768-2.75-2.875-2.75-1.9564,0-3.5626,2.8814-3.5625,6.4687v5.2188h-4.2813v-5.2188c0-3.5873-1.5743-6.4687-3.5312-6.4687-1.1986,0-2.2376,1.0873-2.875,2.75-.6382-1.6632-1.6778-2.75-2.875-2.75-1.9564,0-3.5626,2.8814-3.5625,6.4687v5.2188h-4.2813v-5.2188c0-3.5873-1.5745-6.4687-3.5312-6.4687-1.1986,0-2.2364,1.0873-2.875,2.75-.638-1.6632-1.6766-2.75-2.875-2.75-1.9564,0-3.5626,2.8814-3.5625,6.4687v5.2188h-4.2813v-5.2188c0-3.5873-1.5755-6.4687-3.5312-6.4687-1.1986,0-2.2366,1.0873-2.875,2.75-.637-1.6632-1.708-2.75-2.9062-2.75-1.9565,0-3.5314,2.8814-3.5313,6.4687v5.2188h-4.2813v-5.2188c0-3.5873-1.5743-6.4687-3.5312-6.4687-1.1986,0-2.2376,1.0873-2.875,2.75-.6382-1.6632-1.709-2.75-2.9062-2.75-1.9565,0-3.5314,2.8814-3.5313,6.4687v5.2188h-4.2813v-5.2188c0-3.5873-1.5744-6.4687-3.5312-6.4687-1.1985,0-2.2364,1.0873-2.875,2.75-.638-1.6632-1.7079-2.75-2.9062-2.75-1.9565,0-3.5314,2.8814-3.5313,6.4687v5.2188h-4.2813v-5.2188c0-3.5873-1.5755-6.4687-3.5312-6.4687-1.1986,0-2.2366,1.0873-2.875,2.75-.637-1.6632-1.708-2.75-2.9062-2.75-1.9565,0-3.5314,2.8814-3.5313,6.4687v5.2188h-4.2813v-5.2188c0-3.5873-1.5743-6.4687-3.5312-6.4687-1.1986,0-2.2376,1.0873-2.875,2.75-.6382-1.6632-1.7091-2.75-2.9062-2.75-1.9565,0-3.5314,2.8814-3.5313,6.4687v5.2188h-4.25v-19.1563h-23.375v19.1563h-4.25v-6.4063h-7.2187v-14.5312c.7867-.6534 1.3124-1.6425 1.3124-2.75s-.5253-2.0966-1.3124-2.75v-16.1875h10.75c-1.4311-1.2303-5.8128-2.2944-11.7813-2.9688 1.2648-1.8102 2.0313-3.915 2.0313-6.3437 0-8.0041-8.0596-16.3243-16.3438-17.2813l-1.0938-20.4374-1.7812,20.4062c-8.3733.8114-16.625,9.2254-16.625,17.3125 0,2.4224.7682,4.5365 2.0312,6.3437-5.9673.6746-10.3461,1.7393-11.7812,2.9688h10.7812v15.9062c-1.0162.6275-1.7187,1.7444-1.7187,3.0313s.7023,2.4038 1.7187,3.0312v14.25h-12.0624v36.6875c-4.1647,1.173-8.5734,1.7813-13.125,1.7813h-6v21.0625h-19.0938v-21.0625h-1.9688c-5.6664,0-11.0834-.9624-16.125-2.75v-19.75h-24.6562c-1.8704-2.9826-3.4086-6.1841-4.5938-9.5625h-14.4374v-9.8438h2.2187c.7961,0 1.4686-.6732 1.4687-1.4687s-.6731-1.4063-1.4687-1.4063h-.5313c.515-.7667.8126-1.7053.8126-2.8125 0-4.9091-5.5353-14.1875-12.3438-14.1875s-12.3125,9.2784-12.3125,14.1875c0,1.1083.3,2.0438.8125,2.8125h-1.0938c-.7955,0-1.4374.6108-1.4374,1.4063s.6419,1.4687 1.4374,1.4687h3.5938v41.9063h-19.25v-10.8438h-9.125c-1.8364-6.1309-7.5223-10.625-14.25-10.625s-12.4138,4.4941-14.25,10.625h-9.125v10.8438h-17.5625v-32.0625h-14.2813v-2.1875c8.1058-2.1845 11.4376-5.6072 11.4376-9.5 0-5.9722-7.758-20.6435-28.75-23.4063 .1936-.6629.3124-1.3996.3124-2.125 0-3.9422-3.0896-7.1245-6.9687-7.375v-13.125h-.9687v13.125c-3.8675.2602-6.9375,3.4397-6.9376,7.375 0,.7254.089,1.4621.2813,2.125-20.9859,2.7628-28.7187,17.4341-28.7187,23.4063 0,3.8985 3.3051,7.3472 11.4374,9.5312v2.1563h-11.9687v53.0937h-26.2813l-7.9374,25.5h-13.3126v-25.5h-6.5624v-31.5312h1.5v-67.9063c2.2764-1.4517 3.75-3.9197 3.75-6.6875 0-4.4526-3.8557-8.0312-8.625-8.0312s-8.625,3.5786-8.625,8.0312c0,2.4367 1.1377,4.6467 2.9687,6.125v46.9063h-16.0937c.5781-71.6562.9043-146.9328.875-192.3125h2.2187v-1.875h-2.2187c0-3.9886.01-8.9677 0-12.4375h.2812c.9966-.119 1.8919-.3139 2.6875-.5625 1.0431-.1884 1.9139-.584 2.3437-1.0937l.031-.031c.4771-.4043.75-.9001.75-1.375 0-1.6254-3.1617-2.9195-7.2187-3.125-1.8736-26.4581-.7813-50.6481-.7813-81.4375 1.2919-.8575 2.2616-2.1733 2.6563-3.7188h.1874v-1.625-2.0937-6.4063h-7.375c-1.5794-1.0392-1.75-4.3639-1.75-14.5625 0-13.8765.4412-15.5261 5.9063-21.75 9.0072-10.2594 8.1129-16.3956-4.5313-29.875-14.2498-15.1896-19.5104-23.1421-20.0937-30.5625-.3179-4.0659-1.6434-6.0937-2.9687-6.0937zm-569.8438,301.9062c2.0806,0 3.75,2.874 3.75,6.4688v13.6562h-7.5v-13.6562c0-3.5948 1.6678-6.4688 3.75-6.4688zm11.9062,0c2.0807,0 3.7501,2.874 3.75,6.4688v13.6562h-7.5v-13.6562c0-3.5948 1.6692-6.4688 3.75-6.4688zm101.9376,25.0625c.097-.017.1824,0 .2812,0 1.5727,0 2.875,2.1901 2.875,4.9063v10.3437h-5.6875v-10.3437c0-2.5463 1.0989-4.6562 2.5313-4.9063zm9.0312,0c.096-.017.1838,0 .2812,0 1.5731,0 2.8438,2.1901 2.8438,4.9063v10.3437h-5.6875v-10.3437c0-2.5463 1.1254-4.6562 2.5625-4.9063zm105.8125,27.3125h3v35.4062h-3v-16.125c.7008-.5811 1.1875-1.4525 1.1875-2.4375 0-.985-.4867-1.8563-1.1875-2.4375v-14.4062zm289.2813,1.25c.096-.017.1822,0 .2812,0 1.5727,0 2.8125,2.1588 2.8125,4.875v10.3437h-5.625v-10.3437c0-2.5464 1.0989-4.6249 2.5313-4.875zm9,0c.096-.017.1837,0 .2812,0 1.573,0 2.8437,2.1588 2.8438,4.875v10.3437h-5.6876v-10.3437c0-2.5464 1.1289-4.6249 2.5626-4.875zm7.9687.4062h4.25v33.1563l-4.25-.7188v-16.0625c.5949-.4936 1-1.2256 1-2.0625s-.4051-1.5687-1-2.0625v-12.25zm444.4375,11.8438c2.0806,0 3.75,2.874 3.75,6.4687v13.6563h-7.5v-13.6563c0-3.5947 1.6677-6.4687 3.75-6.4687zm11.9375,0c2.082,0 3.75,2.874 3.75,6.4687v13.6563h-7.5313v-13.6563c0-3.5947 1.7004-6.4687 3.7813-6.4687zm408.25,0c2.081.0001 3.75,2.8739 3.75,6.4687v13.6563h-7.5v-13.6563c0-3.5948 1.668-6.4687 3.75-6.4687zm11.9375,0c2.0824.0001 3.75,2.8739 3.75,6.4687v13.6563h-7.5312v-13.6563c0-3.5948 1.7006-6.4687 3.7812-6.4687zm-1636.6875,19.0937c2.0811,0 3.75,2.9053 3.75,6.5v13.6563h-7.5v-13.6563c0-3.5947 1.6692-6.5 3.75-6.5zm11.9063,0c2.0811,0 3.75,2.9053 3.75,6.5v13.6563h-7.5v-13.6563c0-3.5947 1.6677-6.5 3.75-6.5zm-111.7813,1c2.0809,0 3.75,2.9053 3.75,6.5v13.625h-7.5v-13.625c0-3.5947 1.6691-6.5 3.75-6.5zm11.9063,0c2.0808,0 3.75,2.9053 3.75,6.5v13.625h-7.5v-13.625c0-3.5947 1.6676-6.5 3.75-6.5zm2083.5937,23.25c2.2338,0 4.0313,3.0807 4.0313,6.9375v14.6563h-8.0626v-14.6563c0-3.8569 1.799-6.9375 4.0313-6.9375zm12.7813,0c2.2337,0 4.0312,3.0807 4.0312,6.9375v14.6563h-8.0625v-14.6563c0-3.8569 1.7989-6.9375 4.0313-6.9375zm94.375,1.0625c2.2337,0 4.0312,3.0807 4.0312,6.9375v14.6563h-8.0625v-14.6563c0-3.8569 1.7988-6.9375 4.0313-6.9375zm12.7812,0c2.2324,0 4.0313,3.0807 4.0312,6.9375v14.6563h-8.0624v-14.6563c0-3.8569 1.7974-6.9375 4.0312-6.9375zm-2470.6875,8.6563c1.3684,0 2.4687,1.8864 2.4687,4.25v8.9687h-4.9374v-8.9687c0-2.3636 1.1003-4.25 2.4687-4.25zm7.8437,0c1.3686,0 2.4376,1.8864 2.4376,4.25v8.9687h-4.9376v-8.9687c0-2.3636 1.1314-4.25 2.5-4.25zm299.6876,0c1.3684,0 2.4687,1.8864 2.4687,4.25v8.9687h-4.9687v-8.9687c0-2.3636 1.132-4.25 2.5-4.25zm7.8124,0c1.3685,0 2.4688,1.8864 2.4688,4.25v8.9687h-4.9375v-8.9687c0-2.3636 1.1002-4.25 2.4687-4.25zm182.1876,2.4375c.9304,1.2709 2.3762,2.4346 4.4062,3.4687v1.5313c-1.3024-.5791-2.7133-1.1085-4.2812-1.5v-1.9375c0-.5377-.06-1.0631-.125-1.5625zm-1470.84375,19.625c2.23309,0 4.03125,3.1119 4.03125,6.9687v14.625h-8.0625v-14.625c0-3.8569 1.79828-6.9687 4.03125-6.9687zm12.78125,0c2.23307,0 4.03125,3.1119 4.03125,6.9687v14.625h-8.0625v-14.625c0-3.8569 1.79828-6.9687 4.03125-6.9687zm94.375,1.0625c2.2331,0 4.03125,3.1119 4.03125,6.9687v14.625h-8.0625v-14.625c0-3.8569 1.79815-6.9687 4.03125-6.9687zm12.78125,0c2.23301,0 4.03125,3.1119 4.03125,6.9687v14.625h-8.0625v-14.625c0-3.8569 1.7982-6.9687 4.03125-6.9687zm3346.46865,2.6562c.2382.1577.5426.212.8438.2188v2.5c-.2709-.065-.557-.1065-.8438-.125v-2.5938zm-86.875.875c1.4676,0 2.5938,2.0264 2.5938,4.5625v9.6875h-5.2812v-9.6875c0-2.5362 1.2195-4.5625 2.6874-4.5625zm8.375,0c1.4678,0 2.6563,2.0264 2.6563,4.5625v9.6875h-5.3437v-9.6875c0-2.5362 1.2181-4.5625 2.6874-4.5625zm-2716.59365.5c2.08122,0 3.78125,2.9052 3.78125,6.5v13.6563h-7.53125v-13.6563c0-3.5947 1.66868-6.5 3.75-6.5zm11.9375,0c2.08113,0 3.75,2.9052 3.75,6.5v13.6563h-7.5v-13.6563c0-3.5947 1.66873-6.5 3.75-6.5zm-111.78125,1c2.08118,0 3.75,2.9052 3.75,6.5v13.625h-7.53125v-13.625c0-3.5947 1.69993-6.5 3.78125-6.5zm11.90625,0c2.08132,0 3.75,2.9052 3.75,6.5v13.625h-6.09375v-.062h-.65625v.062h-.75v-13.625c0-3.5947 1.66875-6.5 3.75-6.5zm-441.03125,29.4063c.23798.1576.54338.2432.84375.25v2.5c-.27041-.065-.55762-.1065-.84375-.125v-2.625zm-86.875.9062c1.46829,0 2.59375,2.0265 2.59375,4.5625v9.6875h-5.28125v-9.6875c0-2.5361 1.21906-4.5625 2.6875-4.5625zm8.375,0c1.46841,0 2.65625,2.0265 2.65625,4.5625v9.6875h-5.34375v-9.6875c0-2.5361 1.21907-4.5625 2.6875-4.5625zm559.875,2.625c1.36866,0 2.5,1.8863 2.5,4.25v9h-4.96875v-9c0-2.3636 1.10025-4.25 2.46875-4.25zm7.84375,0c1.3687,0 2.46875,1.8863 2.46875,4.25v9h-4.9375v-9c0-2.3636 1.10039-4.25 2.46875-4.25z" fill="#2d1201"/>
   <path d="m2195.7824,1270.061c-.6482,0-1.2817,1.0098-1.4375,3-.2855,3.6322-2.869,7.5024-9.8437,14.9375-6.1901,6.5979-6.6274,9.6032-2.2188,14.625 2.675,3.0465 2.9062,3.8639 2.9062,10.6562 0,4.9921-.1019,6.6164-.875,7.125h-3.5937v3.125 1.0313 .8125h.094c.1937.7564.6488,1.3927 1.2813,1.8125 0,15.071.5424,26.9241-.375,39.875-1.9858.1006-3.5313.7357-3.5313,1.5312 0,.2325.1414.4584.375.6563 .2109.2496.646.439 1.1563.5312 .3893.1217.8248.223 1.3125.2813h.125c-.01,1.6984 0,4.1413 0,6.0937h-1.0938v.9375h1.0938c-.01,10.5913.027,24.6285.094,40.0938-.9086-.199-1.9756-.3907-3.2188-.5313 .6181-.8845.9688-1.908.9688-3.0937-.0006-3.9585-4.0262-8.1028-8.125-8.5l-.875-9.9688-.5313,10c-4.0552.4684-8,4.5509-8,8.4688 0,1.1888.3497,2.2077.9687,3.0937-2.9211.3301-5.0493.8353-5.75,1.4375h5.25v7.9375c-.3848.3199-.625.8017-.625,1.3438s.2398,1.0239.625,1.3437v32.0938h-9.7812v-9.5625c.2366-.4344.4062-1.0222.4062-1.6875v-6.125c0-1.3306-.5855-2.375-1.3124-2.375-.4724,0-.894.4445-1.125,1.125-.2318-.6805-.6531-1.125-1.125-1.125-.7274,0-1.2813,1.0444-1.2813,2.375v3.3125h-6v-3.3125c0-1.3306-.6168-2.375-1.3437-2.375-.4725,0-.8626.4445-1.0938,1.125-.2311-.6805-.6531-1.125-1.125-1.125-.727,0-1.3125,1.0444-1.3125,2.375v3.3125h-6v-3.3125c0-1.3306-.5855-2.375-1.3125-2.375-.4719,0-.8938.4445-1.125,1.125-.2312-.6805-.6218-1.125-1.0938-1.125-.7269,0-1.3124,1.0444-1.3124,2.375v3.3125h-4.7813v-8.3125c.3758-.2321.625-.6178.625-1.0938s-.2492-.8929-.625-1.125v-5.9062h3.9687c-.5306-.4547-2.1363-.8443-4.3437-1.0938 .467-.6684.75-1.4478.75-2.3437 0-2.9911-3.059-6.1062-6.1563-6.4063l-.6562-7.5312-.375,7.5625c-3.0641.3539-6.0625,3.4146-6.0625,6.375 0,.8982.2821,1.6742.75,2.3437-2.2076.2495-3.8146.6388-4.3438,1.0938h3.9688v6c-.2911.2417-.4688.6216-.4688,1.0312s.1777.7584.4688,1v3.375c-.2368-.4032-.5573-.6562-.9063-.6562-.4718,0-.8626.4445-1.0937,1.125-.2312-.6805-.6532-1.125-1.125-1.125-.7271,0-1.3125,1.0444-1.3125,2.375v3.3125h-6v-3.3125c0-1.3306-.5855-2.375-1.3125-2.375-.4719,0-.8938.4445-1.125,1.125-.2312-.6805-.6219-1.125-1.0938-1.125-.727,0-1.3125,1.0444-1.3125,2.375v3.3125h-6v-3.3125c0-1.3306-.5854-2.375-1.3125-2.375-.4718,0-.8938.4445-1.125,1.125-.2312-.6805-.6219-1.125-1.0937-1.125-.7271,0-1.3125,1.0444-1.3125,2.375v3.3125h-7.0625v-3.2813h4.6875c-.6247-.5352-2.4955-.9563-5.0938-1.25 .5497-.7867.8438-1.7266.8438-2.7812 0-3.5208-3.5731-7.178-7.2188-7.5313l-.7812-8.9062-.4688,8.9062c-3.6068.4166-7.125,4.0466-7.125,7.5313 0,1.0573.3243,1.9932.875,2.7812-.6931.078-1.3237.1504-1.9062.25v-22.2187h-4.8438c-.2812-.882-.6851-1.715-1.1875-2.4688 5.9161-2.9104 9.375-7.5372 9.375-14.9375 0-16.9258-18.0865-41.8178-42.3437-48.5312v-3.75h-2.2813v-3.375c2.2996-.1763 1.0521-.2241 1.1563-.6563 1.2377-5.1369-7.2293-11.0717-8.5938-13.3125s-2.6201-24.3258-3.1875-24.3125-1.5229,22.1355-2.7812,24.4375-9.8077,8.6817-8.125,13.7188c.1302.3897-1.1275.3995 1.1562.4687v3.0313h-2.2812v3.75c-24.2499,6.7191-42.3438,31.6087-42.3438,48.5312 0,7.3953 3.4651,12.0267 9.375,14.9375-.5029.7538-.875,1.5869-1.1562,2.4688h-4.875v12.9375c-1.3178-2.2151-3.7704-3.9786-6.25-4.2188l-.7813-8.875-.4062,7.4063-1.4688.5937 1.4375.3438-.031.5625c-3.6067.4166-7.125,4.0153-7.125,7.5 0,1.0573.3242,1.9932.875,2.7812-2.5986.2936-4.5021.7457-5.125,1.2813h4.6875v7.0625c-.3425.2845-.5625.7053-.5625,1.1875s.2188.903.5625,1.1875v3.0937h1.5938v18.25l-.2188-.3125-44.3125-2.0625-5.0312,11.9375-.094-15.625 1.0312-.4062-3.8125-3.7188-6.5937-23.8125-6.25,24.9063-3.0313,2.9687h-.2812v.2813l-.5313.5312 .5313.031v15.125h-30.6875l-8.375,10.5313c-1.4452-2.8494-2.8557-5.5068-3.5-6.4375-.381-.095-2.5803-.1384-5.6875-.1563-9.2488-.053-26.2311.153-26.5.1563l-.094-.094-.062.094v.031l-4.3438,9.7187h-14.5l-6.5,8.1875c-.7587-.1087-1.5709-.1742-2.4062-.125-3.047.1795-5.5868,1.4535-6.5938,3.0938l-2.2812-8.9375-1.5625,5.5937-.3438,4.1563c-.8723-1.6712-6.7741-12.9915-8.4687-15.25-.4047-.093-2.7621-.1388-6.0625-.1563-9.8236-.052-27.8393.1531-28.125.1563l-.125-.094-.062.094v.031l-3.7188,7.6875-9.2187-12.625-46.4688-2-3.125,6.875c-.9596-.5076-2.076-.6777-3.25-.4063-.3691.085-.7228.2151-1.0625.375-.01-.1353-.016-.3019-.031-.4375-.3972-3.7424-3.4258-6.1193-6.7812-5.3437s-5.7722,4.4137-5.375,8.1562c.072.6732.2396,1.3303.4687,1.9063-2.6751.9199-4.516,3.9355-4.1875,7.0312 .052.4921.1632.9722.3125,1.4063-.497.6543-.8765,1.4113-1.125,2.2187l-2.1875-30.625-6.5625-23.4375-3.75,12.1875-6.5625,71.2188 1.125,4.6875h-8.5312l2.9375-14.875-3.375-28.3438-3.7188-15.8125-2.0937,8.2188-3.7188,48.125 .5313,2.6875h-2l.5312-15.1875-1.75-7.75-2,3.6562-4.4375,17.75-1.125-12.0625-2.6875-7.4375-.4375,1.0938-.3437-4.2188-3.125-10.375-1.8125,5.4063-.2188,19.5-.094.4062-1.0312-2.8437-1.1563,2.9062-1.0937,9.1563h-.094l.1562-.6875-2.0625-15.7813-2.2187-8.8437-1.2813,4.5937-1.75,20.7188h-1.3125l-.031-.094-.031.094h-5.5625l-.5937-4.125-.6563,3.0312-.1562-.2812-.3125,1.375h-2.5l-1.5625-20.4063-1.4375-5.625-2.5313,10.8125-1.8125,15.2188h-4.5625l-3.4696-37.5624-2.5625-8.3125-4.4688,16-2.125,29.875h-3.2187l.75-6.4687-2.9063-40.625-4.0312-14.5-2.3438,7.5312-.2812,27.2188-2.4375,10.875-1.8125-23.4688-2.0313-7.9062-1.5937,6.8125-1.9063-8.1875-1.6562,6.4062-2.875,37.4688 .9687,4.8437h-4.3125l-2.0937-15.0312-1.9063,9.1562-1.75-13.2812-2.8437,14.5625-1.8125-5.1563-.3125,1.5938-2.0625-6.2188-2.625,14.375h-2.125l-1.5938-8.6875-1.4375,4.3438-2.1875-11.2188-2,5.625-.5625-2.9375-.9687,7.2813-1.625,4.6562-4.3125-20.625-1.7188,12.3125-1.8437-23.9375-1.4375-5.625-2.5313,10.8125-1.0937,9.2188-2.6563-22.3125-4.0625-17.3438-2.3437,9-.625,7.9688-1.125,4.0625-1.7188,23.875-1.3125-18.375-4.0625-14.5-2.3125,7.5312-.2812,27.2188-2.625,11.6562h-4.1875l-2.75-38.5312-5.0938-18.2188-2.9375,9.4688-4.3437,47.2812h-4.2813l-2.5937-21.8125-2.875-12.3125-1.6563,6.4063-1.6875,22.1875-1.375,3.75-.1562,1.7812h-.4063l-1.3437-6-.4375.8125-.7188-5.9687-1.3437-3.4063-2.375,6.5313-.7188,8.0312h-.7812l-.4375-1.25-2.9375-11.75-1.75-3.2187-1.5313,6.7812 .3125,9.4375h-1.25l-3.125-40.6562-1.875-7.1875-3.25,13.875-2.9375,24.8437 1.7813,9.125h-5.75l.062-.2187-5.75-62.4375-3.3125-10.6875-5.75,20.5625-3.75,52.7812-1271.85151,18v20.5313h3874.63581v-18.5313l-1202.1281-20v-14.2187l2.5-21.6563-5.3124-74.375-7.4376-26.5625-4.25,13.8125-.5,49.8438-6.9374,30.9062 6.5937,27.2813h-11.3125l-.5938-13.0625 4.4063-22.2188-4.8125-40.4062-5.2812-22.5625-3.0313,11.75-5.2813,68.5937 3.625,17.9063h-14.4374l-5.8126-44.0938-5.8437,30-7.0625-21.25-6.4688,35.3438h-4.4374l-7.3126-37.5313-9.4374,26.75-7.875-37.75-6.75,48.5313h-12.5938l5.4062-27.4063-6.7812-56.875-7.4062-31.7812-4.25,16.5312-5.75,74.5938-3.0313-42.5313-7.4375-26.5625-4.25,13.8125-.5,49.875-6.8125,30.3438h-5.0313l-5.6874-79.5625-9.3438-33.4063-5.3438,17.375-8.8124,95.5938h-8.5938l1.6875-8.5625-4.8125-40.4063-5.2812-22.5625-3.0313,11.7188-4.5937,59.8125h-2.3438l.3125-9.0313-2.4687-11.0312-2.875,5.2187-3.7188,14.8438h-3.5938l-.625-6.75-3.8437-10.625-2.1875,5.5312-1.4062,11.8438h-4.8126l-1.6562-4.5625-1.625,4.1562-.062.4063h-35.5c-1.1004-1.4902-3.406-2.488-6.0937-2.5 1.184-.9205 1.8926-2.0903 1.8124-3.3438s-.9079-2.3319-2.1874-3.0937c.028-.2071.045-.4131.031-.625-.094-1.4743-1.2387-2.7139-2.9375-3.4688 .4583-.6682.7047-1.3938.6563-2.1562-.1657-2.5903-3.5593-4.4743-7.5626-4.2188-.5.032-1.0009.095-1.4687.1875 0-.1057.01-.237 0-.3437-.188-2.9435-4.0134-5.0717-8.5625-4.7813-3.4331.2192-6.2935,1.7411-7.4062,3.75l-2.5313-10.8437-1.75,6.7812-.375,5.0625c-1.4394-2.983-7.7191-15.9141-9.5313-18.5312-.4526-.1133-3.0856-.1663-6.7812-.1875-10.9999-.063-31.1801.1836-31.5.1875l-.125-.125-.062.125v.031l-4.1563,9.375-10.3124-15.3438-52.0626-2.4375-3.5,8.3125c-1.0683-.6042-2.3209-.7953-3.625-.4687-.413.1036-.8384.2435-1.2187.4375-.01-.1642.015-.3354 0-.5-.4447-4.542-3.8678-7.4413-7.625-6.5s-6.4448,5.3643-6,9.9062c.08.8172.2748,1.5822.5313,2.2813-2.9955,1.1163-5.0552,4.8054-4.6876,8.5625 .058.5973.1766,1.1606.3438,1.6875-.2944.42-.5299.8949-.75,1.375h-64.0312v-51.1875h3.125v-.6875c.3752-.2321.625-.6178.625-1.0938s-.2493-.8929-.625-1.125v-5.9062h4c-.5308-.4547-2.1679-.8442-4.375-1.0938 .4666-.6683.75-1.4478.75-2.3437 0-2.9911-3.059-6.1062-6.1563-6.4063l-.6563-7.5312-.375,7.5625c-3.0635.3539-6.0624,3.4146-6.0624,6.375 0,.8982.2818,1.6742.75,2.3437-.9457.1069-1.7799.2548-2.4688.4063v-52.7813c-.049-4.9406-.109-9.2371-.125-13.7187h.5938v-.9375h-.5938c-.01-2.8622-.01-5.0783 0-6.1563 .2896-.049.5611-.085.8125-.1562 .9484-.061 1.6875-.4789 1.6875-.9688 0-.062-.041-.1293-.062-.1875 0-.034.031-.059.031-.094 0-.7634-1.4127-1.3926-3.2813-1.5312-.4262-9.3513.089-27.1615-.2813-39.375 1.3424-.1096 2.4264-1.0448 2.75-2.3125h.094v-.8125-1.0313-3.125h-3.375c-.2654-.4367-.2276-.7187.1562-.7187 .5692,0 1.0626-.876 1.0626-1.9375 0-1.2867-.6196-1.9375-1.9063-1.9375-1.6787,0-1.9375-.6418-1.9375-4.9375 0-4.1117.4648-5.505 2.875-8.25 4.3615-4.9674 3.9163-7.9058-2.1875-14.5625-7.1803-7.8303-9.5983-11.4818-9.875-15-.1566-1.9902-.7883-3-1.4375-3zm-28.8438,147.7812c1.0193,0 1.8438,1.428 1.8438,3.1875v6.6875h-3.6875v-6.6875c0-1.7595.825-3.1875 1.8437-3.1875zm5.8126,0c1.0181,0 1.8437,1.428 1.8437,3.1875v6.6875h-3.6563v-6.6875c0-1.7595.7936-3.1875 1.8126-3.1875zm5.75.25h2.7812c.056,12.9119.1184,26.8329.2188,40.8125h-3v-30.0625c.4968-.3071.8437-.8388.8437-1.4687s-.3466-1.1616-.8437-1.4688zm-66.0313,12.0313c.7698,0 1.4063,1.0767 1.4063,2.4062v5.0313h-2.7813v-5.0313c0-1.3295.6052-2.4062 1.375-2.4062zm4.4375,0c.7697,0 1.375,1.0767 1.375,2.4062v5.0313h-2.7812v-5.0313c0-1.3295.6364-2.4062 1.4062-2.4062zm99.7188,13.9687c.7692,0 1.4062,1.0768 1.4062,2.4063v5.0312h-2.7812v-5.0312c-.0006-1.3295.6051-2.4063 1.375-2.4063zm4.4062,0c.7698,0 1.4062,1.0768 1.4062,2.4063v5.0312h-2.7812v-5.0312c0-1.3295.6053-2.4063 1.375-2.4063zm-420.8125,43.4375-3.75,7.5h-.375zm627,19.7813-.25,3.625c-.828.8339-1.3161,1.8075-1.25,2.8437 .025.3871.1215.7427.2813,1.0938-.7292.4656-1.313,1.0153-1.7188,1.625l-.094-1.5313 .2188-7.5625zm-665.5313.7187-.25,3c-.7235.6822-1.1209,1.4685-1.0625,2.3125 .022.319.076.6482.2188.9375-.6558.3864-1.1687.8371-1.5313,1.3438l-.094-1.0313 .2187-6.5zm-298.6875,28.9688 .7188,3.6562h-1.4375z" fill="#220c01"/>
   <path d="m2195.7824,1887.0224c-.6482,0-1.2817-1.0098-1.4375-3-.2855-3.6322-2.869-7.5024-9.8437-14.9375-6.1901-6.5979-6.6274-9.6032-2.2188-14.625 2.675-3.0465 2.9062-3.8639 2.9062-10.6562 0-4.9921-.1019-6.6164-.875-7.125h-3.5937v-3.125-1.0313-.8125h.094c.1937-.7564.6488-1.3927 1.2813-1.8125 0-15.071.5424-26.9241-.375-39.875-1.9858-.1006-3.5313-.7357-3.5313-1.5312 0-.2325.1414-.4584.375-.6563 .2109-.2496.646-.439 1.1563-.5312 .3893-.1217.8248-.223 1.3125-.2813h.125c-.01-1.6984 0-4.1413 0-6.0937h-1.0938v-.9375h1.0938c-.01-10.5913.027-24.6285.094-40.0938-.9086.199-1.9756.3907-3.2188.5313 .6181.8845.9688,1.908.9688,3.0937-.0006,3.9585-4.0262,8.1028-8.125,8.5l-.875,9.9688-.5313-10c-4.0552-.4684-8-4.5509-8-8.4688 0-1.1888.3497-2.2077.9687-3.0937-2.9211-.3301-5.0493-.8353-5.75-1.4375h5.25v-7.9375c-.3848-.3199-.625-.8017-.625-1.3438s.2398-1.0239.625-1.3437v-32.0938h-9.7812v9.5625c.2366.4344.4062,1.0222.4062,1.6875v6.125c0,1.3306-.5855,2.375-1.3124,2.375-.4724,0-.894-.4445-1.125-1.125-.2318.6805-.6531,1.125-1.125,1.125-.7274,0-1.2813-1.0444-1.2813-2.375v-3.3125h-6v3.3125c0,1.3306-.6168,2.375-1.3437,2.375-.4725,0-.8626-.4445-1.0938-1.125-.2311.6805-.6531,1.125-1.125,1.125-.727,0-1.3125-1.0444-1.3125-2.375v-3.3125h-6v3.3125c0,1.3306-.5855,2.375-1.3125,2.375-.4719,0-.8938-.4445-1.125-1.125-.2312.6805-.6218,1.125-1.0938,1.125-.7269,0-1.3124-1.0444-1.3124-2.375v-3.3125h-4.7813v8.3125c.3758.2321.625.6178.625,1.0938s-.2492.8929-.625,1.125v5.9062h3.9687c-.5306.4547-2.1363.8443-4.3437,1.0938 .467.6684.75,1.4478.75,2.3437 0,2.9911-3.059,6.1062-6.1563,6.4063l-.6562,7.5312-.375-7.5625c-3.0641-.3539-6.0625-3.4146-6.0625-6.375 0-.8982.2821-1.6742.75-2.3437-2.2076-.2495-3.8146-.6388-4.3438-1.0938h3.9688v-6c-.2911-.2417-.4688-.6216-.4688-1.0312s.1777-.7584.4688-1v-3.375c-.2368.4032-.5573.6562-.9063.6562-.4718,0-.8626-.4445-1.0937-1.125-.2312.6805-.6532,1.125-1.125,1.125-.7271,0-1.3125-1.0444-1.3125-2.375v-3.3125h-6v3.3125c0,1.3306-.5855,2.375-1.3125,2.375-.4719,0-.8938-.4445-1.125-1.125-.2312.6805-.6219,1.125-1.0938,1.125-.727,0-1.3125-1.0444-1.3125-2.375v-3.3125h-6v3.3125c0,1.3306-.5854,2.375-1.3125,2.375-.4718,0-.8938-.4445-1.125-1.125-.2312.6805-.6219,1.125-1.0937,1.125-.7271,0-1.3125-1.0444-1.3125-2.375v-3.3125h-7.0625v3.2813h4.6875c-.6247.5352-2.4955.9563-5.0938,1.25 .5497.7867.8438,1.7266.8438,2.7812 0,3.5208-3.5731,7.178-7.2188,7.5313l-.7812,8.9062-.4688-8.9062c-3.6068-.4166-7.125-4.0466-7.125-7.5313 0-1.0573.3243-1.9932.875-2.7812-.6931-.078-1.3237-.1504-1.9062-.25v22.2187h-4.8438c-.2812.882-.6851,1.715-1.1875,2.4688 5.9161,2.9104 9.375,7.5372 9.375,14.9375 0,16.9258-18.0865,41.8178-42.3437,48.5312v3.75h-2.2813v3.375c2.2996.1763 1.0521.2241 1.1563.6563 1.2377,5.1369-7.2293,11.0717-8.5938,13.3125s-2.6201,24.3258-3.1875,24.3125-1.5229-22.1355-2.7812-24.4375-9.8077-8.6817-8.125-13.7188c.1302-.3897-1.1275-.3995 1.1562-.4687v-3.0313h-2.2812v-3.75c-24.2499-6.7191-42.3438-31.6087-42.3438-48.5312 0-7.3953 3.4651-12.0267 9.375-14.9375-.5029-.7538-.875-1.5869-1.1562-2.4688h-4.875v-12.9375c-1.3178,2.2151-3.7704,3.9786-6.25,4.2188l-.7813,8.875-.4062-7.4063-1.4688-.5937 1.4375-.3438-.031-.5625c-3.6067-.4166-7.125-4.0153-7.125-7.5 0-1.0573.3242-1.9932.875-2.7812-2.5986-.2936-4.5021-.7457-5.125-1.2813h4.6875v-7.0625c-.3425-.2845-.5625-.7053-.5625-1.1875s.2188-.903.5625-1.1875v-3.0937h1.5938v-18.25l-.2188.3125-44.3125,2.0625-5.0312-11.9375-.094,15.625 1.0312.4062-3.8125,3.7188-6.5937,23.8125-6.25-24.9063-3.0313-2.9687h-.2812v-.2813l-.5313-.5312 .5313-.031v-15.125h-30.6875l-8.375-10.5313c-1.4452,2.8494-2.8557,5.5068-3.5,6.4375-.381.095-2.5803.1384-5.6875.1563-9.2488.053-26.2311-.153-26.5-.1563l-.094.094-.062-.094v-.031l-4.3438-9.7187h-14.5l-6.5-8.1875c-.7587.1087-1.5709.1742-2.4062.125-3.047-.1795-5.5868-1.4535-6.5938-3.0938l-2.2812,8.9375-1.5625-5.5937-.3438-4.1563c-.8723,1.6712-6.7741,12.9915-8.4687,15.25-.4047.093-2.7621.1388-6.0625.1563-9.8236.052-27.8393-.1531-28.125-.1563l-.125.094-.062-.094v-.031l-3.7188-7.6875-9.2187,12.625-46.4688,2-3.125-6.875c-.9596.5076-2.076.6777-3.25.4063-.3691-.085-.7228-.2151-1.0625-.375-.01.1353-.016.3019-.031.4375-.3972,3.7424-3.4258,6.1193-6.7812,5.3437s-5.7722-4.4137-5.375-8.1562c.072-.6732.2396-1.3303.4687-1.9063-2.6751-.9199-4.516-3.9355-4.1875-7.0312 .052-.4921.1632-.9722.3125-1.4063-.497-.6543-.8765-1.4113-1.125-2.2187l-2.1875,30.625-6.5625,23.4375-3.75-12.1875-6.5625-71.2188 1.125-4.6875h-8.5312l2.9375,14.875-3.375,28.3438-3.7188,15.8125-2.0937-8.2188-3.7188-48.125 .5313-2.6875h-2l.5312,15.1875-1.75,7.75-2-3.6562-4.4375-17.75-1.125,12.0625-2.6875,7.4375-.4375-1.0938-.3437,4.2188-3.125,10.375-1.8125-5.4063-.2188-19.5-.094-.4062-1.0312,2.8437-1.1563-2.9062-1.0937-9.1563h-.094l.1562.6875-2.0625,15.7813-2.2187,8.8437-1.2813-4.5937-1.75-20.7188h-1.3125l-.031.094-.031-.094h-5.5625l-.5937,4.125-.6563-3.0312-.1562.2812-.3125-1.375h-2.5l-1.5625,20.4063-1.4375,5.625-2.5313-10.8125-1.8125-15.2188h-4.5625l-3.4696,37.5624-2.5625,8.3125-4.4688-16-2.125-29.875h-3.2187l.75,6.4687-2.9063,40.625-4.0312,14.5-2.3438-7.5312-.2812-27.2188-2.4375-10.875-1.8125,23.4688-2.0313,7.9062-1.5937-6.8125-1.9063,8.1875-1.6562-6.4062-2.875-37.4688 .9687-4.8437h-4.3125l-2.0937,15.0312-1.9063-9.1562-1.75,13.2812-2.8437-14.5625-1.8125,5.1563-.3125-1.5938-2.0625,6.2188-2.625-14.375h-2.125l-1.5938,8.6875-1.4375-4.3438-2.1875,11.2188-2-5.625-.5625,2.9375-.9687-7.2813-1.625-4.6562-4.3125,20.625-1.7188-12.3125-1.8437,23.9375-1.4375,5.625-2.5313-10.8125-1.0937-9.2188-2.6563,22.3125-4.0625,17.3438-2.3437-9-.625-7.9688-1.125-4.0625-1.7188-23.875-1.3125,18.375-4.0625,14.5-2.3125-7.5312-.2812-27.2188-2.625-11.6562h-4.1875l-2.75,38.5312-5.0938,18.2188-2.9375-9.4688-4.3437-47.2812h-4.2813l-2.5937,21.8125-2.875,12.3125-1.6563-6.4063-1.6875-22.1875-1.375-3.75-.1562-1.7812h-.4063l-1.3437,6-.4375-.8125-.7188,5.9687-1.3437,3.4063-2.375-6.5313-.7188-8.0312h-.7812l-.4375,1.25-2.9375,11.75-1.75,3.2187-1.5313-6.7812 .3125-9.4375h-1.25l-3.125,40.6562-1.875,7.1875-3.25-13.875-2.9375-24.8437 1.7813-9.125h-5.75l.062.2187-5.75,62.4375-3.3125,10.6875-5.75-20.5625-3.75-52.7812-1271.85151-18v-20.5313h3874.63581v18.5313l-1202.1281,20v14.2187l2.5,21.6563-5.3124,74.375-7.4376,26.5625-4.25-13.8125-.5-49.8438-6.9374-30.9062 6.5937-27.2813h-11.3125l-.5938,13.0625 4.4063,22.2188-4.8125,40.4062-5.2812,22.5625-3.0313-11.75-5.2813-68.5937 3.625-17.9063h-14.4374l-5.8126,44.0938-5.8437-30-7.0625,21.25-6.4688-35.3438h-4.4374l-7.3126,37.5313-9.4374-26.75-7.875,37.75-6.75-48.5313h-12.5938l5.4062,27.4063-6.7812,56.875-7.4062,31.7812-4.25-16.5312-5.75-74.5938-3.0313,42.5313-7.4375,26.5625-4.25-13.8125-.5-49.875-6.8125-30.3438h-5.0313l-5.6874,79.5625-9.3438,33.4063-5.3438-17.375-8.8124-95.5938h-8.5938l1.6875,8.5625-4.8125,40.4063-5.2812,22.5625-3.0313-11.7188-4.5937-59.8125h-2.3438l.3125,9.0313-2.4687,11.0312-2.875-5.2187-3.7188-14.8438h-3.5938l-.625,6.75-3.8437,10.625-2.1875-5.5312-1.4062-11.8438h-4.8126l-1.6562,4.5625-1.625-4.1562-.062-.4063h-35.5c-1.1004,1.4902-3.406,2.488-6.0937,2.5 1.184.9205 1.8926,2.0903 1.8124,3.3438s-.9079,2.3319-2.1874,3.0937c.028.2071.045.4131.031.625-.094,1.4743-1.2387,2.7139-2.9375,3.4688 .4583.6682.7047,1.3938.6563,2.1562-.1657,2.5903-3.5593,4.4743-7.5626,4.2188-.5-.032-1.0009-.095-1.4687-.1875 0,.1057.01.237 0,.3437-.188,2.9435-4.0134,5.0717-8.5625,4.7813-3.4331-.2192-6.2935-1.7411-7.4062-3.75l-2.5313,10.8437-1.75-6.7812-.375-5.0625c-1.4394,2.983-7.7191,15.9141-9.5313,18.5312-.4526.1133-3.0856.1663-6.7812.1875-10.9999.063-31.1801-.1836-31.5-.1875l-.125.125-.062-.125v-.031l-4.1563-9.375-10.3124,15.3438-52.0626,2.4375-3.5-8.3125c-1.0683.6042-2.3209.7953-3.625.4687-.413-.1036-.8384-.2435-1.2187-.4375-.01.1642.015.3354 0,.5-.4447,4.542-3.8678,7.4413-7.625,6.5s-6.4448-5.3643-6-9.9062c.08-.8172.2748-1.5822.5313-2.2813-2.9955-1.1163-5.0552-4.8054-4.6876-8.5625 .058-.5973.1766-1.1606.3438-1.6875-.2944-.42-.5299-.8949-.75-1.375h-64.0312v51.1875h3.125v.6875c.3752.2321.625.6178.625,1.0938s-.2493.8929-.625,1.125v5.9062h4c-.5308.4547-2.1679.8442-4.375,1.0938 .4666.6683.75,1.4478.75,2.3437 0,2.9911-3.059,6.1062-6.1563,6.4063l-.6563,7.5312-.375-7.5625c-3.0635-.3539-6.0624-3.4146-6.0624-6.375 0-.8982.2818-1.6742.75-2.3437-.9457-.1069-1.7799-.2548-2.4688-.4063v52.7813c-.049,4.9406-.109,9.2371-.125,13.7187h.5938v.9375h-.5938c-.01,2.8622-.01,5.0783 0,6.1563 .2896.049.5611.085.8125.1562 .9484.061 1.6875.4789 1.6875.9688 0,.062-.041.1293-.062.1875 0,.034.031.059.031.094 0,.7634-1.4127,1.3926-3.2813,1.5312-.4262,9.3513.089,27.1615-.2813,39.375 1.3424.1096 2.4264,1.0448 2.75,2.3125h.094v.8125 1.0313 3.125h-3.375c-.2654.4367-.2276.7187.1562.7187 .5692,0 1.0626.876 1.0626,1.9375 0,1.2867-.6196,1.9375-1.9063,1.9375-1.6787,0-1.9375.6418-1.9375,4.9375 0,4.1117.4648,5.505 2.875,8.25 4.3615,4.9674 3.9163,7.9058-2.1875,14.5625-7.1803,7.8303-9.5983,11.4818-9.875,15-.1566,1.9902-.7883,3-1.4375,3zm-28.8438-147.7812c1.0193,0 1.8438-1.428 1.8438-3.1875v-6.6875h-3.6875v6.6875c0,1.7595.825,3.1875 1.8437,3.1875zm5.8126,0c1.0181,0 1.8437-1.428 1.8437-3.1875v-6.6875h-3.6563v6.6875c0,1.7595.7936,3.1875 1.8126,3.1875zm5.75-.25h2.7812c.056-12.9119.1184-26.8329.2188-40.8125h-3v30.0625c.4968.3071.8437.8388.8437,1.4687s-.3466,1.1616-.8437,1.4688zm-66.0313-12.0313c.7698,0 1.4063-1.0767 1.4063-2.4062v-5.0313h-2.7813v5.0313c0,1.3295.6052,2.4062 1.375,2.4062zm4.4375,0c.7697,0 1.375-1.0767 1.375-2.4062v-5.0313h-2.7812v5.0313c0,1.3295.6364,2.4062 1.4062,2.4062zm99.7188-13.9687c.7692,0 1.4062-1.0768 1.4062-2.4063v-5.0312h-2.7812v5.0312c-.0006,1.3295.6051,2.4063 1.375,2.4063zm4.4062,0c.7698,0 1.4062-1.0768 1.4062-2.4063v-5.0312h-2.7812v5.0312c0,1.3295.6053,2.4063 1.375,2.4063zm-420.8125-43.4375-3.75-7.5h-.375zm627-19.7813-.25-3.625c-.828-.8339-1.3161-1.8075-1.25-2.8437 .025-.3871.1215-.7427.2813-1.0938-.7292-.4656-1.313-1.0153-1.7188-1.625l-.094,1.5313 .2188,7.5625zm-665.5313-.7187-.25-3c-.7235-.6822-1.1209-1.4685-1.0625-2.3125 .022-.319.076-.6482.2188-.9375-.6558-.3864-1.1687-.8371-1.5313-1.3438l-.094,1.0313 .2187,6.5zm-298.6875-28.9688 .7188-3.6562h-1.4375z" fill="url(#b)"/>
  </g>
 </g>
</svg>
