<?xml version="1.0" encoding="utf-8"?>
<!-- Generator: Adobe Illustrator 21.0.0, SVG Export Plug-In . SVG Version: 6.00 Build 0)  -->
<svg version="1.1" xmlns="http://www.w3.org/2000/svg" xmlns:xlink="http://www.w3.org/1999/xlink" x="0px" y="0px"
	 viewBox="0 0 640 480" style="enable-background:new 0 0 640 480;" xml:space="preserve">
<style type="text/css">
	.st0{opacity:0.9;}
	.st1{fill:#003366;}
	.st2{fill:#F6511D;}
	.st3{fill:#FF9933;}
	.st4{fill:#FFFFFF;}
	.st5{fill:#128807;}
	.st6{fill:#000088;}
</style>
<g id="Layer_1">
	<g>
		<g class="st0">
			<path class="st1" d="M532.5,267.7c0.4,116.8-93.9,211.9-210.8,212.3c-116.8,0.5-211.9-93.7-212.3-210.7l-0.7-211.7l97.1-0.4
				L206,91c32.9-21.3,72.2-34,114.5-34.2C437,56.5,532,150.8,532.5,267.7z"/>
		</g>
		
			<rect x="108.3" y="0.2" transform="matrix(1 -3.711538e-03 3.711538e-03 1 -9.152296e-02 0.5829)" class="st2" width="97.4" height="49.5"/>
	</g>
</g>
<g id="Layer_2">
	<path class="st3" d="M336.6,218.4c-0.8,0.1-4.2-3.2-5.4-3.8c-1.2-0.7-0.8,1.8-2.1,1.1c-1.2-0.7-2.1-1.8-3.4-2.5
		c-1.2-0.8-3-1.5-3.8-2.6c-0.9-1.3-0.4-1.6-2-1.9c-2.3-0.4-4.8-2.9-6.6-4.2c-0.8-0.5-0.2,0.5-0.3,1c-0.1,0.2-1.4-0.2-1.6-0.3l-4-3.4
		c-0.5-0.4,0.8-1.5,0.9-2.4c0.1-1.4,1.4-0.6,1.5-2.3c0.8-1.6-0.8-1.9,0.1-3.2c0.7-1,1.5-2.1,1.3-3.2c-0.2-0.8,0-1.5,0.9-1.6
		c0.9-0.1,1.6-1.5,1.7-2.3c0.4-0.1,0.9-0.1,1.3-0.3c0.5-0.3,0.1-0.8,0.7-1c1.1-0.4,1-1.8,1.4-1.9v0l0,0c0.8,0,1.6,0.5,2.4,0.2v0
		c-0.6-1.2-0.9-1.3-2.2-1.6c-1.3-0.3-2-0.7-2.7-1.8c-0.6-1-1.7-0.5-2.6-1c-1.6-0.1-3.2-0.9-3.1-2.7c0.1-2.4-1.1-0.6-2.3-1.6
		c-0.5-0.4-0.8-1.5-1.3-2.1c-1.2-1.5-2.6,0.1-3.7-0.1c-0.7-0.1-3.2-2.3-3.6-2.9c-1.2-1.8-2.5-5.5-4.3-2.2c-1.2,2.1-1.2,0-2.1-0.5
		c-0.1-0.4-0.6-2.4-0.1-2.6c0.1-0.3,0.5-0.3,0.8-0.5c0.5-1-1.1-1.4-1.4-2.2c-0.5-0.9,0.4-1.6,0.4-2.4c0-2-1.5-2.8-2.8-4
		c-0.6-0.6-0.4-2.4-0.4-3.2c0-0.6-0.6-1-0.6-1.4c0-0.6,0.9-0.7,0.9-1.3c0.9-0.2,1.9-0.1,2.5-0.9c0.1-0.1,0.3-0.7,0.3-0.6h0
		c0.1,0.5,0.4,3,0.6,3.3c1.2,1.4,1.5,1.7,3.3,1.3c1.5-0.4,0.7-0.8,1.4-1.8c1-0.3,6.3-0.9,4.5-2.9c-1.3-1.4-2.8-3.7-2.1-5.7
		c0.6-1.7-0.5-1.9-1.9-1.7c-1.7,0.3-2.3-1.6-3-2.8c-0.2-0.4,0.1-0.8-0.1-1.2c-0.2-0.4-0.6-0.8-0.6-1.3c0-1.4,2.2,0.1,1.8-1.5
		c0.4-0.6-1.7-2.9-1.7-3.5c-0.1-1.5,1.3-1.2,2.1-1c1.1,0.3,1.4-0.5,2.3-0.6c1.5-0.1,1.6,0.7,2.3-1.3c0.5-1.3,1.7-2.6,1-3.9
		c-0.6-1.2-0.5-0.6,0.9-0.9c1.4-0.2,1.3,0.1,1.6-1.4c0-0.2,1.2-1.3,1.4-1.4c0.9-0.6,2.4,0.3,2.4-1c-0.4-0.7,1.1-2.4,1.3-3.1
		c0.3-1,0.2-2,0.5-3c0.2-0.5,0.7-0.7,0.9-1.4c0.2-0.8,0-1.5,0.5-2.2c1.3-1.9,0-0.8-0.5-2.2c-0.4-0.9-0.8,0.2-1.2,0.5
		c-0.9,0.9-1.4,1-1.8-0.3c-0.4-1.3-1-1.9-2.4-2.4c-0.9-0.3-2.5-1.5-3.1-2.3c-0.9-0.7-1.7-1.5-2.7-2.3c-0.8-0.7-2,0-3,0
		c-2.2,0.1-4.1-0.3-5.8,1.2c-1,0.9-2.1,1.7-3.3,2.2c-1.4,0.5-2.4,2.2-3.8,1.9c-0.9-0.2-0.7,1.3-1.1,1.7c-0.6,0.7-1.8-1-2.4-0.3
		c-0.1-0.1-0.1,0-0.2,0.1c-0.8,0.2-2.3,0.4-3.1,0.4c-1,0-1.5-0.9-2.1-0.9c-1.2,0-3.8-0.5-4.6-1.6c-0.4-0.5-2.2-0.6-2.9-1.3
		c-1-0.9-1.7-1.2-1.7-2.7l0,0c-1.1,0-2.1,0.8-3.3,0.7c-2.5-0.1-0.8-1.3-1.9-2.2l-2-1.5c-0.7-0.5,1-1.8,0.7-2.3
		c-0.7-1.4,0.5-1.7-0.2-2.9c-0.7-1.1-0.9-2.2-1.6-3.2c-0.4-0.7-1.6-0.9-2.3-1.2c-0.8-0.3-2.8,0.9-2.9,0.5c-0.1-0.7-0.3-3.5-1-3.7
		c-0.9-0.2-1.6,0-2.5-0.4c-1.4-0.7-1.2,0.3-2.4,0.6c-1,0.2-1.4-0.9-1.4-1.7c-0.3,0.1-0.6,0.4-1.1,0.4c-0.7,0-0.4-0.8-0.7-1.1
		c-0.5-0.5-1.1,1.6-1.3,1.9l-0.4-0.6c-1.6,0.4-2.5,0.8-3.9,1.8c-1.1,0.8-2.9,1.5-4.1,0.5c-1-0.8-1.7-0.2-2.7-0.5l1.1,1
		c0.5,0.2,1.6,1.4,0.8,1.8c-0.2,0.1-2.3,0.2-2.7,0.2c-1,0-1.2-0.7-2.2-0.5c-0.6,0.1-4,0.7-4.1,0.9c-0.3,1-0.1,1.7-1.1,2.4
		c-1.4,1-1.5,2.5-2.9,3.5c-1.6,1.1-3.3,0.6-2.6,3.4c0.2,1.1-0.4,1.8,0.5,2.8c1,1,1.5,0.1,2.6,0.1c0.4,0,0.8,0.4,1.3,0.5
		c0.6,0.1,2-1.1,2.3-0.3c1.3,3.7,4.1,4.2,7.6,4.8c1.6,0.3,0.1,1.8-0.1,3c-0.4,2,2.4,1.3,3.5,2.3c1.3,0.7,0.9,0.7,0.7,1.9
		c-0.3,1.6-0.6,2.5-2.2,3.2c-1.4,0.6-1.3,0.8-2,2c-0.9,1.6-2.4,1-3.3,2.5c-0.9,1.7-0.1,3.5,0.5,5.2c0.1,0.7,0.4,2.2,0.7,2.8
		c0.3,0.5,0.6,1.3,0.6,1.9c0,1.1-0.4,1.9,0,3.1c0.3,1,0.8,1.2,0.5,2.5c-0.2,0.7-0.6,1.2-0.4,1.9c0.1,0.5,0.4,0.8,0.5,1.3
		c0.2,0.6-0.5,1.4,0.3,1.7c0.9,0.4,1.6,0.5,2.4,1.2c0.4,0.1,0.7,0.4,1.1,0.7c0.6,0.4,1.2,0.6,1.8,0.9c0.7,0.4,1.4,0.8,2,1.3
		c0.6,0.4,0.8,1.1,1.6,1.1l0.7-0.3c0.5,0.1,1.2-0.9,1.9-1c0.7,0,0.4,0.8,0.5,1.3c0,0.6,0.4,3.3,0.6,3.8c0.3,0.6,1.9-0.3,2.3-0.1
		c0.4,0.2,0.4,0.8,1,0.7c0.5-0.1,0.7-0.8,1.2-0.7c0.3,0,2.8,2,3.1,2.4l0.8,1.7c-1.1,0.8-2.4,1.6-3.3,1.9c-0.8,0.3-1.6,0-2.5,0.3
		c-0.7,0.3-1.1,1.9-1.9,1.5c-0.2-0.1-1.5,1-2.8,2.2c0,0.7,0,1.2,0.2,1.9c0.1,0.4,0.3,0.7,0.4,1.1c0.1,0.7,0.2,1.5-0.1,2.3
		c-0.4,0.9-1.4,2.8-0.8,3.7c0.2,0.4,1.5,0.7,1.9,0.8c0,0.3,0.2,0.1,0.1,0.5c0,1-0.9,0-1.2,0c-0.7,0-0.3,1.2-1.1,1.5
		c-2.1,0.9-2.5,3.6-4.1,4.5c-0.4,0.3-1.6,1.2-1.8,1.7c-0.1,0.1-0.9,1.1-1.1,1.3c-0.2,0.2-0.4,0.3-0.6,0.3l0.6,1.3
		c0.2,0.9,0.9,1.8-0.1,2.6c-0.9,0.7-2.1,1-3.2,1c-0.8,0-1.4,0.2-2.1,0.6c-0.7,0.4-1.1,1.8-1.3,2.6c-0.2,1.9-0.4,4-1.7,5.4
		c-0.9,0.9-1.8,2.6-2.3,3.8c-0.4,0.9-0.5,1.7-1.6,2c-1.5,0.3-2.8,1-4.1,2c-3.4,2-2.1,4-4,6.4c-1,1.2-3.4,2.9-3.9,4.2
		c-0.6,1.7,0.4,1.8-1.8,2.5c-2,0.7-4.2,0.3-6.3,0.9c-2.5,0.8-4.2,3.4-6.2,0.5c-2.3-3.2-1.9-4.2-6-1.4c-1,1.1-1.4,2.3-1.9,3.6h153.4
		C339.2,216.6,338.1,218.2,336.6,218.4L336.6,218.4z"/>
	<path class="st3" d="M413.3,218.2c0.5-0.7,0.2-3.3,0.1-4.2c-0.5-0.5-2-2.2-2.7-2.1c-1.2,1.7-3.3,2.1-5.2,2.1c-0.8,0-0.6,0.9-1,1.4
		c0.4,0.3,0.7,0.2,0.7,0.8c0,0.5-0.4,1.1-0.6,1.6c-0.1,0.3-0.2,0.6-0.4,0.9h9.1C413.3,218.5,413.3,218.4,413.3,218.2L413.3,218.2z"
		/>
	<path class="st3" d="M515.9,211.6l0.4-0.9l-1.7-0.8c-0.7-0.4-1.5-1.3-2.3-1.3c-0.9,0-1.6,0.5-2.5,0.3c-2.1-0.5-1.2-2-3.8-1.1
		c-1.2,0.4-2.1-0.2-1.6-1.5c0.3-1.1,1.6-1.7,2.3-2.4c0.6-0.6-0.2-3.5-0.8-4.1c-0.5-0.5-1-0.5-1.6-1.1c-0.8-0.8-1,0.1-1.1,0.8
		c-0.4,2.3-1.6,0.3-1.3-0.9c0.1-0.4,1.9-1.8,1.3-2.3c-0.3-0.3-2-2.4-2.2-2.5c-0.6-0.1-2.2,1.5-3,1.8c-3.8,1.5-8.7,3.9-12.6,1
		c-1.2-0.9-1.5-1-2.9-0.3c-1,0.5-3.4,1.7-4.1,2.4c-0.5,0.5-0.2,1.5-1.3,1.4c-1.1-0.1-0.8,0.3-1.1,1.2c-0.2,0.9-1.2,1.8-2.1,2.1
		c-2,1.6-3.9,0.9-6.1,1.3c-1.3,0.2-1.4,2.6-1.9,3.6c-1.4,2.4-6.1,2.6-6.1,5c0,2.1-1.9,2.2-3.5,2.7c-0.9,0.3-1.5-0.4-2.2-0.3
		c-1.2,0.2-1.8,1.3-3,1.4l-4,0.7c-0.1,0.3-0.1,0.5-0.1,0.8h64.3c0.1-0.1,0.1-0.1,0.2-0.2c0.6-0.7,0.8-1.4,1.7-1.5
		c0.9-0.2,1-0.8,1.6-1.3c0.7-0.6,1.7,0,1.7-1.3C516.5,213.3,515.5,212.7,515.9,211.6L515.9,211.6z"/>
	<path class="st4" d="M448.3,221.2c1.5,0.7,2.8-1.1,3.5,0.5c0.3,0.6,1.1,1.1,1.1,1.8c0,0.9-1.3,1.3-1,2.4c0.3,0.8,1,1.5,1.1,2.2
		c0,0.6,0,1.1-0.7,1.3c-0.6,0.1-0.9-0.5-1.4-0.5c-0.4,0,0,0.6-0.4,0.9c-0.4,0.3-0.6-0.7-0.9-0.6c-0.6,0.1-0.9,1-1.8,1
		c-0.4,0-1.5,0.1-1.8-0.2c-0.4-0.3-1.1-1.4-1.5-0.5c-0.8,1.7-1.5,1.1-3.1,0.7c-1.8,0-4,0.6-5.9,0.4c-1.6-0.1-2.7-1.6-3.8-1.6
		c-1.3,0-1.6,1.2-2.6,1.7c-1.4,0.7-3,0.1-4.5,0.4c-0.9,0.2-3.4-1.2-4.4-1.5c-1.1-0.3-1.8,0.5-2.7,0.2c-1-0.3-1.5-1.3-2.4-1.8
		c-1.5-0.7-1.1-1.3-2-2.4c-0.9-1.2,0.9-1.2,1.4-2.1c-1.5-1.9-1.2-2.7-1.1-4.8h-9.1c-0.4,0.9-0.8,1.7-0.8,2.7c0,1.1,0.2,1.8,0,2.9
		c-0.5,2.3,0.9,3,1.6,5.1c0.6,1.8,0.4,1.7-0.4,3.2c-0.4,0.8,0.1,2.5-0.5,3c-1.4,1.3-2.5-1.9-3.2-0.5c-0.3,0.6-1.1,0-1.5,0.2
		c-0.4,0.2-0.7,0.7-1.3,0.4c-0.8-0.5-0.5-0.9-1.7-0.8c-1.1,0-1,1.8-2.1,0.7c-0.7-0.7-2.1-0.2-2.4-1c-0.1-0.3-0.3-1.5-0.5-1.5
		c-0.4,0-1.7,1.2-2.3,1.5c-1.7,0.7-2.2,0-3.6-0.9c-2-1.2-3.7-0.5-5.5-1.4c-1.6-0.7-4,2.5-4.4-1.4c-0.5-4.3-5.2,2.1-6.6-1.1
		c-0.5-1.1-0.7-0.5-1.5-0.5c-0.5,0-0.7-1.4-1.9-1.6c-1-0.4-3.1-0.6-2.6-1.9c0.5-1.3,0.4-2.7-1.2-2.9c-1-0.1-2.5-0.3-3.4-0.8
		c-0.5-0.3-2.6-2.2-2.7-1.6c-0.1,0.8-0.9,1-1.5,0.8c-1.1-0.4-1,0.6-1.9,0.6c-1-0.1-1.2-1.1-2.3-1.2l-2.5,0c-0.1,0.5,0.4,3.3-1.4,1.8
		c-1.2-1-0.7-1.8-2.7-1.4c-1.4,0.2-0.8-0.5-1.6-0.7c-1.1-0.3-1.7,0.4-2.1-1.5c0-0.1,0-0.2-0.1-0.3H186.3c-0.2,0.5-0.4,1-0.7,1.5
		c-0.7,1.3-1.6,2-2.7,2.9c-2.1,1.6-2.9,4.7-3.1,7.2c0,0.5,2.4,2,2.9,2.3c1.7,0.7,4.8-0.5,5.2,1.9c0.4,2-0.2,3.7-1.3,5.3
		c-0.6,1,0.6,2.3,1.1,3.1c1,1.6,2,2.8,4.1,2.5c0.8-0.1,1.5-1.3,1.7,0.1c0.2,1.2,0.1,2.5,0.5,3.6c0.4,1,1.7,1.9,2,2.8
		c0.3,0.8,0.3,1.4,0.4,2.3c0.1,1.4,3.5,3.6,1.9,5c-1.4,1.2,0.6,2-1.2,3.2c-0.9,0.6-0.7,0.9-1.3,1.7c-0.6,0.8-2,0.8-2.7,0.1
		c-0.5-0.5-0.7-2.3-1.2-2.1c-1.7,0.8-3.5,1-5.2,2c-1.1,1.8-4,1.7-5.2,0.2c-1.2-1.5-4,0.2-5.4-0.2c-1.1-0.3-1.9,0.8-2.8,0.2
		c-1-0.6-1.6,0.8-1.9-0.6c-0.4,0-0.3,2.7-0.6,3.3c-0.9,1.9-1.7,0.4-3.4,0.7c-2.2,0.4-2.9,3.2-3.4,4.9l0,0c0.1,0.1,0.3,0.2,0.4,0.3
		c0.7,0.4,1.8,0.1,1.9-0.8c0.2-1.2,1-1.1,1.4-2.1c0.1-0.4,0.2-1.5,0.8-1.4c0.2,0-0.3,1.1-0.3,1.4c0.7,0.1,1.9-0.5,2.8-0.5
		c0.5,0-2.3,1.9-2.4,1.9c-2.4,2.4-0.4,3,0.9,5.2c0.4,0.7-1,1-0.6,1.2c1.2,0.7,2,1.6,3.1,2.4c1.8,1.3,4.6,2.7,6.7,3.1
		c0.9,0.2,2.4,0.8,3.4,0.5c1.2-0.5,1.8-1.4,3.2-1.8c0.5-0.2,2.5-0.3,2.6-1.1c0-0.4,0.3-3,1.1-1.9c0.8,1.1,2,1,3.3,1
		c0,0.3-0.4,0.6-0.5,0.9c-0.2,0.4-0.1,0.8-0.2,1.2c-0.1,0.6-0.6,0.1-1,0.3c-0.6,0.2-0.7,1.4-1.1,1.9c-0.8,0.8-1.3,2.8-2.7,2.6
		c-1.3-0.2-1.3,0.3-2.3,1.1c-0.7,0.5-1,0.7-1.7,0.3c-0.7-0.4-0.8,1.5-2,1c-1.1-0.5-1.9,0.5-3.1,0.8c-0.4,0.2-1.4,0.7-1.8,0.1
		c-0.4-0.5,0.3-1.1,0.3-1.7c-0.1,0-0.2,0.3-0.5,0.4c-0.3,0.1-1.1,0.1-1.3-0.1c-0.1-0.1,0-0.8,0-1c-0.1,0-0.8,1-0.9,1.2
		c-0.6,0.9,0.9,2.6,1.3,3.4c1,1.7,2.6,2.9,3.9,4.3l5.1,5.1l7.6,6.9c4.4,4,7.4,1.2,12.2-0.6c0.8-0.6,0.9-1.1,2-0.9
		c1,0.2,3-1.4,4.1-1.8c1.1-0.3,1.6-0.6,1.4-1.7c-0.1-0.5,1.4-2.7,1.7-3.3c1-1.8,0.2-2.2-0.3-4c0.5-1.9,0.8-3.3,1.7-5
		c0.5-1-0.5-1.5,0-2.6c0.5-1.2,0.2,2.8,1.4,2.3c0.8-0.3,1.4-1.2,2.4-0.7c0.6,0.3,1.2,0.1,1.8,0c0.4,0,0.2,0,0.1,0.1
		c-0.1,0.1-0.2,0.3-0.3,0.4c-0.6,0.5-1.7,0-2.4,0.6c-0.5,0.5-1.5,3.7-0.3,3.3c0.5-0.1,1.6-0.9,1.9-0.8c0.1,0-0.4,0.8-0.4,1
		c-0.3,0.7-0.2,1.4-0.7,2.1c-0.4,0.5-1.4,0.8-0.2,0.7c1.1-0.1,1.8,0.2,2.7,0.4c0.2,0.1-0.7,0.3-0.8,0.4c-0.3,0.3-0.4,0.8-0.6,1.2
		c0,0.2,0.5,0.8,0.2,0.9c-1,0.6-1,0.6-0.4,1.5c0.6,0.9,0.6,0.6,0,1.2c-1.4,1.5,1.2,1,1.5,2c0.2,0.5,0.3,0.7,0.6,1.2
		c0.5,0.8-0.7,1.3,0.5,2c0.6,0.3-0.4,2.6-0.5,3.5c-0.1,1.7-0.7,2.9-1.2,4.4c-0.4,1-1,1.9-1,2.9c0,0.8,0.1,1.6,0.2,2.5
		c0.1,1,0.1,1.9,0.2,2.9c0.2,1.3,0.9,1,1.9,0.6c0,0,0,0,0,0c0.1,0.1,0.2,0.3,0.2,0.4c-0.1,0.1-0.5,0.3-0.7,0.4c-0.3,0.2-1,0.4-1,0.8
		c0,0.2-0.2,0.4,0,0.6c0.2,0.4,0.8,0.2,1.2,0.3c0.1,0,1,0.6,0.4,0.6c-1.4,0-1.2,0.2-1,1.3c0.2,0.8-0.3,1.6,0,2.4
		c0.9,2.1,2-2.8,2-1.2c0,1.6,1.9,0.5,0.7,1.5c-0.6,0.5-2,0.8-1.1,1.5c0.3,0.2,1,1.1,0.3,1.1c-1.5,0-1.7-0.3-1.1,1.1
		c0.2,0.4,0.3,0.9,0.4,1.4c0.1,0.4,0.6,0.5,0.7,0.8c-1.8,0-0.6,1.7-0.3,2.5c0.1,0.3,1.2,0.9,0.7,1c-0.7,0.1-0.6,1.1-0.4,1.6
		c0.1,0.5,0.7,1.5,1,1.9c0.9,1.4,1.2,4.9,1.3,6.6c0.1,1,0.2,1.9,0.4,2.8h113.5l5.7-3.4c2.3-1.4,3.3-2.6,4.8-4.8
		c1.1-0.7,1.7-1.9,2.9-2.5l5.5-2.8c1.2-0.6,1-2.4,1.6-2.7c0.8-0.5,0.7-0.1,1.5-1.1l3.2-4.1c1.1-1.3,1.5-2.8,2.8-4.1
		c1-0.3,4.4-2.8,5-4.2c0.1-0.2,0.1-0.2,0-0.1c-0.5,0.5-2.2,2-2.2,0.9c0-0.5,2.2-3.7,2.8-4c1.4-0.8,1.9-1.4,2.6,0.1
		c0.1,0.2-3.9,3.4-2.1,2.3c1.8-1.1,3.6-1.3,5.6-2.2c1.5-0.6,3.3-0.8,4.9-1.4c1.4-0.5,0.7-1.3,0.8-1.3c1.3,0.5,2.2-1.7,2.8-2.4
		c0.4-0.5,1.2-0.5,1.2-1.3c0-0.7,0.4-1.2,0.8-1.8c0.5-0.3,0.7-1.1,1.2-1.5c0.7-0.6,2-0.7,2-1.8c0-1.9-1.1-3-1.4-4.8
		c-0.3-1.9-0.5-2.8,1.3-3.8c1-0.6,1.6-1.7,2.7-2.1c1.4-0.6,3-0.5,4.4-1.2c0.7-0.3,1.6-0.4,2.3-0.7c0.9-0.4,1.5-1.4,2.4-2l1.8-1.8
		c0.7-0.7,1.6,2.4,1.8,3c0.1,0.2,0.2,2,0.8,1.4c1.9-2.1,1.2-1.2,2.6-0.1c0.4,0.3,1.9,0.1,2.7,0.4c1.6,0.6,0.7-2.4,1.8-1.9
		c0.5,0.2,1.9,0.9,2.9,1l-1.2-1.7c0.1,0,0.2,0,0.2,0c0-0.4-0.3-0.9-0.3-1.4c0.9-0.2,0.8-0.9,0.5-1.6c-0.3-0.7,0.1-0.7,0.1-1.4
		c0-1-0.8-1.9-1.1-2.8c-0.2-0.5-0.1-1.2-0.3-1.7c-0.3-0.6-0.3-1.3-0.5-1.9c0.6-1,0.5-3.5-0.4-4.3c-1-0.8,0.4-1.7,0.7-2.6
		c0.3-1-0.7-1-1.5-1.3c-0.4-0.1-2-0.3-1.5-1c0.8-1,1.1-1.9,0-2.7c-0.4-0.3-0.8-0.2-1.1-0.8c-0.4-0.7-0.6-1.9-0.7-2.7
		c0.3-0.4,0.6-0.8,1.1-1c1.9-0.7,0.7-2.6,0.8-3.9c0.1-0.6,0.1-1.8-0.7-1.8c-0.7,0-1.2-0.1-1.9-0.3l-1.1,0c-0.2-0.3-0.3-0.6-0.5-0.9
		c-0.4-0.9-1.5-1.1-2.4-1.5c-0.3-0.2-0.6-0.4-0.9-0.7c-0.4-0.6-0.4-1.5-0.7-2.1l1-1.1c0.2-0.3,0.8-1.4,0.8-1.7
		c0.5-0.1,0.9,0,1.1,0.7c0.5,0.1,1.6-1.5,1.8-1.9c0.4-0.8-0.2-1.7,0.8-2.3c0.5-0.3,3.3-0.2,3.8,0.1c0.5,0.2,0.6,0.8,1,0
		c0.2-0.3,1-0.9,1-1.2c-2.3,0-1.4-1.5-1.7-2.7c-0.2-0.8-1.7,0.2-2.5-0.5c-0.2-0.2-0.4-0.8-0.8-0.9c-0.9-0.3-1,0-1.5-1
		c-0.4-0.6-1.6-1.9-2.4-1.9c-0.5,0-1,0.3-1.4-0.1c-0.7-0.6-0.3-1.2-0.6-1.8c1.5-0.9,0.6-2.4,2.3-3.2c0.3-0.1,2.1-1.8,2.3-2.1
		c0.9-1.7-2.2-1.2-0.6-3c0.6-0.7,0.7,0.3,1.3,0.8c0.4,0.3,1.3,0.8,1.5,1.4c0.5,0.1-0.3,0.8,1.4,0.8c0.5,0,3.2,2.2,3.2,0.7
		c0-1-1.9-2.1,0-2c1.2,0,0.2,1.2,0.6,2c0.6,1.6,4.4,4.2,6.1,4c0-0.4,0.8-3,1.2-3c0.2,0,0.1,0.9,0.2,1.1c1,1.9,2.2,1.4,1.8,3.8
		c-0.5,2.3,0.7,3.2-0.7,5.8c-0.1,1.8,2,1.5,3.2,2.1c2.3,1.1,4.3,1.3,6.9,1.1c1.2-0.1,2.2,0.5,3.2,0.3c0.6-0.1,1-0.4,1.5-0.5
		c0.6-0.1,1.3,0,1.8,0c0.9,0.2,1.4-0.5,2.2,0.1c2.1,1.4,5.4,0.4,7.7,0c1.6-0.2,8.9,3.4,4.4,4.3c-0.8,0.2-1.4-0.2-1.1,0.9
		c0.2,0.7-0.4,2.4-0.9,2.8c-0.4,0.4-0.6,2.2-0.7,2.8c-0.4,0-1.4-0.8-1.5,0c0,0.2,0.2,0.7-0.1,0.8c-0.1,0.1-0.4-0.1-0.4-0.2
		c-0.1,0-0.1,0-0.1,0c0,0.1-0.6,3.8-1.1,2.1c-0.1-0.3-0.3-1.1-0.8-1c-0.3,0.1,0.6,1.9-0.5,1.4c-0.3-0.2-0.5-1.3-0.9-0.6
		c-0.3,0.7-0.2,1.5-1.2,1.5c-0.7,0-1.6-0.4-2.3-0.2c-0.1,0.3,0.5,0.8-0.1,1.1c-0.7,0.4-1.6,0.1-1.6,1.3c0,0.6,0.2,1.6-0.3,2
		c-1.2,0.8-1,1.5-0.2,2.7c0.8,1.2,1,2,1,3.5c0.4,0.7,0.5,2.6,1,3.1c0.3,0.3,0.5-1.2,0.4-1.5c-0.1-0.4-0.2-1.2,0.4-1.1
		c0.5,0.9,1.3,3.8,2.6,3.5c1.9-0.4,1.9-1.3,2-2.9c0.1-1.5-0.1-1.4,1.2-2.4c1.6-1.4,0.1-2.6,0.8-3.9c0.3-0.6,0.6,0.8,1.1,0.7
		c0.4,0,0.7-1,1.3-0.9c0.2,0.8,0.9-0.1,1.2-0.1c0.3,0.5,0,1.3,0.1,2c0.4,1.8,1.3,2.1,0.7,4.1c-0.5,1.7,0.6,4.5,1.5,5.8
		c0.4,0.6,0.4,2.3,0.6,3l1.1,4.2l0.2,3.5c1.1,0,1.1-1.2,1.3-2c0,0,1.1,1,1.3,1.2c1.2,0.9,0.3,1.8,2,0.4c0.8-0.6,0.5-1.9,1.5-2.2
		c1.4-0.4,1.4-2.6,0.6-3.6c-1-1.4-0.6-3.9-0.1-5.4c0-0.5-0.4-2.2,0.1-2.3c0.7-0.2,0.5,0.7,1,0.9c1.5,0.6,1.4-2.4,1.4-3
		c0-2.1,1.3-4.7,0.7-6.9l-0.6-2.4c-0.1-0.5-0.6-1.7,0-2c0.5-0.3,1,1.2,1.2,1.5c0.7,0.9,1.9-0.4,3-0.2c0.6,0.1,1.2,0.9,1.7,0.6
		c1.1-0.6,1.8,0.7,2.7,1.3c1.3,0.9,1.8-2.8,2.2-3.6c0.7-1.6,0.9-3.1,1.9-4.6c1.3-1.9,3.1-4.2,3.7-6.5c0.2-0.9,0.7-2.1-0.3-2.7
		c-1-0.6-1.9-0.9-1.2-2.4c0.4-0.7,0.6-1.9,1.4-2.3c0.7-0.4,1,0.3,1.4-0.5c0.6-1.1,1.8-1.9,2.6-2.9c0.5-0.5-0.8-2.1-0.1-2.6
		c1.5-1.2,1.3-0.9,0.9-2.6c-0.1-0.6,0-1.2-0.2-1.8c-0.3-0.9-0.5-1.4-0.4-2.5c0.3-0.8,0.8-2.5,1.5-2.8c0.7-0.3,1.5,0.4,2.2-0.1l2.7-2
		c0.6-0.4,1.9-1.4,1.9-1.7c0-1.1,1.6-0.6,2.2-1.5c1.7-2.8,3.9-2.4,6.7-3.1c2.1-0.6,1.9-1.3,3.8-0.1c0.8,0.5,0.3,1.4,1.1,1.7
		c0.8,0.3,3.8,1.5,3.2,0.7l-3-4.7c-0.2-0.4-0.4-1.4-0.3-1.8c0,0,0.5-0.2,0.8-0.5h-64.3C447,219.7,447.2,220.6,448.3,221.2
		L448.3,221.2z"/>
	<path class="st4" d="M188.9,281.3c0.4,0.1,0.8,0,1.2-0.2v-0.7c-0.2,0.1-0.2,0-0.4-0.1c-0.2-0.2-0.4-0.7-0.8-0.7
		c-0.4,0-0.3,0.2-0.3,0.5c0,0.2,0,0.4,0,0.6C188.7,280.9,188.6,281.2,188.9,281.3L188.9,281.3z"/>
	<path class="st5" d="M225.7,360.3l1.9,9c0.1,0.6,0.3,1.3,0.7,1.8c0.9,1,1.1,1.1,1.6,2.4c0.5,1.3,0.8,2.2,1.5,3.3
		c0.9,0.9,2.1,0.7,0.3,1.2c0,0.2,1.6,0.6,1.6,1.4c0,1.4-0.2,2.4,0.9,3.2c0.5,0.3,0.3,1.2,0.8,1.5c0.2,0.1,0.5,0.2,0.7,0.1
		c0.1,0,0.6-0.2,0.6-0.1c-0.8,0.3-0.9,1.5,0,1.9c1.6,0.7,1.6,1.8,2.3,3.1c0.4,0.7,0.3,1.3,0.3,2.1c0,1,0.8,1.9,0.8,2.8
		c0.4,1.2,1.5,2.6,2.1,3.9c0.9,1.8,0.8,4.6,1.3,6.6l1.6,6.9c1,1.3,2.2,3.8,2.7,5.4c0.2,0.9,1.2,2.8,2,3.1c1.5,0.6,0.6,0,1.4,1.6
		c0.7,1.4,2.2,2.3,2.8,4c0.6,1.6,2,3.2,2.1,4.8c0.5,0.8,0.7,0.9,0.9,1.8c0.2,1.4,0.9,2.4,1.5,3.5c1,2,1.4,4.4,2.4,6.4
		c0.9,2,2.2,4.2,2.8,6.3c0.2,0.7,0.3,1.4,0.3,2c0,0.4-1.4,0.3-1-1c0.2-0.7-0.6-1.3-0.6-1.9c-0.3,0,0,1.9,0.1,2.2
		c0.2,1.5,0.4,3.6,1.5,4.8c0.5,0.5,1,2.9,1.4,2.7c0.5-0.3,1.6-0.3,0.9,0.3c-0.3,0.3-1.2,0.3-0.9,0.9c0.5,0.7,1.3,1,1.9,1.9
		c0.5,0.8,1.6,2.6,2.4,3.1c1,1.7,3.3,3.6,5.2,4.4c1.4,0.6,2.2,0.7,3.5-0.4c0.4-0.3,1.1-0.4,1.5-0.5c1.3-0.3,4.1-2.9,4.5-4.2
		c0.4-1.3,0.2-4.4,1-5.4c0.8-0.4,1.6-1.3,2.4-1.5l6.8-1.9c1.6-0.4,3.1,0.3,4.5,0.6c-0.4-1.5-2.1-0.8-3-1c-2.9-0.4-2.2-3.8-0.7-5.4
		c0.7-0.8,1.8-2.2,2.3-3.1c0.7-1.2-0.5-2.3,0.9-3.4c1.3,0.2,2.2-1.7,3.9-1.1c0.6,0.2,1.9,0.3,2.3,0.6c0.6,0.4,1.1,0.4,0.7-0.5
		c-0.3-0.7,0-3,0-3.9v-2.4c-0.3,0-1.2,0.7-1.4,0.5c-0.1-0.1,0.6-1.1,0.6-1.4c0.2-0.8,1-2.1,0.2-2.9c-0.3-0.3,0.1-1,0.1-1.4
		c0-0.6-0.4-1.3-0.5-2c-0.1-0.8-0.6-1.4-0.6-2.3c0-1.9,1.6-4.9,2.2-6.7c0.4-1.1,1.1-1.9,1.9-2.8c0.4-0.5,0.7-0.8,1-1.4
		c0.3-0.6,0.3-1.3,0.5-1.9c1-1.9,0.6-4.1,1.1-6.1c0.2-1,0.5-2.2,0-3c-0.9-1.4-2.4-0.6-2.4-2.6c0-0.2,0.2-2,0.6-1.3
		c0.2,0.3,0.7,1.2,1.1,1.2c0-0.7-0.4-1.5,0.1-2.1c-0.3-0.3-1.2-2.1-1.3-2.6c0.3-0.8,0-1.9,0-2.8c0-1.3,1.3-1.9,0.8-3.5
		c-1.5-4.2-2.6-7.8-0.2-12c0.7-0.9,0.7-3.4,2-4c1.1-0.5,5.2-2.4,6-1c0.8,1.4,0.8,1.1,1.5,0c0.5-0.7,1.5-0.6,1.9-1.3
		c0.8-1.4,1-3.5,1.7-4.9c0.8-1.8,0.9-0.6,2.1-0.6c0.5,0,0.9-0.3,1.4-0.5c0.5-0.1,0.8,0.5,1.4,0.2c0.9-0.3,2.2,0.1,3-0.3
		c0.9-0.5,1.6-1.6,2.2-2.4c0.5-0.1,2.2-0.6,2.3-1.1c0.1-0.7-0.5-1.5-0.6-2.2c-0.2-0.8,1.5-3.5,2.2-3.9l1.8-1.1H224.3
		C224.7,356.6,225.2,358.4,225.7,360.3L225.7,360.3z"/>
	<circle class="st6" cx="294.2" cy="286.7" r="57.4"/>
	<circle class="st4" cx="294.2" cy="286.7" r="50.2"/>
	<circle class="st6" cx="294.2" cy="286.7" r="10"/>
	<ellipse transform="matrix(0.1305 -0.9914 0.9914 0.1305 8.292 596.009)" class="st6" cx="343.9" cy="293.3" rx="2.5" ry="2.5"/>
	<path class="st6" d="M294.2,336.9l1.7-30.1l-1.7-14.4l-1.7,14.4L294.2,336.9z"/>
	
		<ellipse transform="matrix(0.3827 -0.9239 0.9239 0.3827 -72.4006 503.5052)" class="st6" cx="340.6" cy="305.9" rx="2.5" ry="2.5"/>
	<path class="st6" d="M281.1,335.2l9.5-28.7l2.1-14.3l-5.4,13.4L281.1,335.2L281.1,335.2z"/>
	
		<ellipse transform="matrix(0.6088 -0.7934 0.7934 0.6088 -121.0388 389.1404)" class="st6" cx="334" cy="317.3" rx="2.5" ry="2.5"/>
	<path class="st6" d="M269,330.2l16.6-25.2l5.7-13.3l-8.7,11.6L269,330.2L269,330.2z"/>
	
		<ellipse transform="matrix(0.7934 -0.6088 0.6088 0.7934 -131.6937 265.1813)" class="st6" cx="324.8" cy="326.6" rx="2.5" ry="2.5"/>
	<path class="st6" d="M258.6,322.2l22.5-20.1l8.9-11.4l-11.4,8.9L258.6,322.2z"/>
	
		<ellipse transform="matrix(0.9239 -0.3827 0.3827 0.9239 -103.6275 145.2873)" class="st6" cx="313.4" cy="333.1" rx="2.5" ry="2.5"/>
	<path class="st6" d="M250.6,311.8l27-13.6l11.6-8.7l-13.3,5.7L250.6,311.8L250.6,311.8z"/>
	
		<ellipse transform="matrix(0.9914 -0.1305 0.1305 0.9914 -41.3445 42.1203)" class="st6" cx="300.7" cy="336.5" rx="2.5" ry="2.5"/>
	<path class="st6" d="M245.6,299.7l29.6-6.1l13.4-5.4l-14.3,2.1L245.6,299.7L245.6,299.7z"/>
	
		<ellipse transform="matrix(0.1305 -0.9914 0.9914 0.1305 -83.5904 577.7081)" class="st6" cx="287.6" cy="336.5" rx="2.5" ry="2.5"/>
	<path class="st6" d="M243.9,286.7l30.1,1.7l14.4-1.7l-14.4-1.7L243.9,286.7z"/>
	
		<ellipse transform="matrix(0.3827 -0.9239 0.9239 0.3827 -138.0481 459.6386)" class="st6" cx="274.9" cy="333.1" rx="2.5" ry="2.5"/>
	<path class="st6" d="M245.6,273.7l28.7,9.5l14.3,2.1l-13.4-5.4L245.6,273.7L245.6,273.7z"/>
	
		<ellipse transform="matrix(0.6088 -0.7934 0.7934 0.6088 -155.9619 336.8752)" class="st6" cx="263.6" cy="326.6" rx="2.5" ry="2.5"/>
	<path class="st6" d="M250.6,261.6l25.2,16.6l13.3,5.7l-11.6-8.7L250.6,261.6L250.6,261.6z"/>
	
		<ellipse transform="matrix(0.7934 -0.6088 0.6088 0.7934 -140.609 220.3805)" class="st6" cx="254.3" cy="317.3" rx="2.5" ry="2.5"/>
	<path class="st6" d="M258.6,251.2l20.1,22.5l11.4,8.9l-8.9-11.4L258.6,251.2z"/>
	<ellipse transform="matrix(0.9239 -0.3827 0.3827 0.9239 -98.22 118.0954)" class="st6" cx="247.7" cy="305.9" rx="2.5" ry="2.5"/>
	<path class="st6" d="M269,243.2l13.6,27l8.7,11.6l-5.7-13.3L269,243.2L269,243.2z"/>
	
		<ellipse transform="matrix(0.9914 -0.1305 0.1305 0.9914 -36.1819 34.3943)" class="st6" cx="244.3" cy="293.3" rx="2.5" ry="2.5"/>
	<path class="st6" d="M281.1,238.2l6.1,29.6l5.4,13.4l-2.1-14.3L281.1,238.2L281.1,238.2z"/>
	
		<ellipse transform="matrix(0.1305 -0.9914 0.9914 0.1305 -65.3161 485.8215)" class="st6" cx="244.3" cy="280.1" rx="2.5" ry="2.5"/>
	<path class="st6" d="M294.2,236.5l-1.7,30.1l1.7,14.4l1.7-14.4L294.2,236.5z"/>
	
		<ellipse transform="matrix(0.3827 -0.9239 0.9239 0.3827 -94.1872 393.9964)" class="st6" cx="247.7" cy="267.5" rx="2.5" ry="2.5"/>
	<path class="st6" d="M307.2,238.2l-9.5,28.7l-2.1,14.3l5.4-13.4L307.2,238.2L307.2,238.2z"/>
	
		<ellipse transform="matrix(0.6088 -0.7934 0.7934 0.6088 -103.7016 301.9535)" class="st6" cx="254.3" cy="256.1" rx="2.5" ry="2.5"/>
	<path class="st6" d="M319.3,243.2l-16.6,25.2l-5.7,13.3l8.7-11.6L319.3,243.2L319.3,243.2z"/>
	
		<ellipse transform="matrix(0.7934 -0.6088 0.6088 0.7934 -95.8055 211.4671)" class="st6" cx="263.6" cy="246.8" rx="2.5" ry="2.5"/>
	<path class="st6" d="M329.7,251.2l-22.5,20.1l-8.9,11.4l11.4-8.9L329.7,251.2z"/>
	
		<ellipse transform="matrix(0.9239 -0.3827 0.3827 0.9239 -71.0274 123.5042)" class="st6" cx="274.9" cy="240.3" rx="2.5" ry="2.5"/>
	<path class="st6" d="M337.7,261.6l-27,13.6l-11.6,8.7l13.3-5.7L337.7,261.6L337.7,261.6z"/>
	
		<ellipse transform="matrix(0.9914 -0.1305 0.1305 0.9914 -28.4557 39.5572)" class="st6" cx="287.6" cy="236.9" rx="2.5" ry="2.5"/>
	<path class="st6" d="M342.7,273.7l-29.6,6.1l-13.4,5.4l14.3-2.1L342.7,273.7L342.7,273.7z"/>
	
		<ellipse transform="matrix(0.1305 -0.9914 0.9914 0.1305 26.5897 504.0974)" class="st6" cx="300.7" cy="236.9" rx="2.5" ry="2.5"/>
	<path class="st6" d="M344.4,286.7l-30.1-1.7l-14.4,1.7l14.4,1.7L344.4,286.7z"/>
	
		<ellipse transform="matrix(0.3827 -0.9239 0.9239 0.3827 -28.5402 437.8603)" class="st6" cx="313.4" cy="240.3" rx="2.5" ry="2.5"/>
	<path class="st6" d="M342.7,299.7l-28.7-9.5l-14.3-2.1l13.4,5.4L342.7,299.7L342.7,299.7z"/>
	
		<ellipse transform="matrix(0.6088 -0.7934 0.7934 0.6088 -68.7801 354.2174)" class="st6" cx="324.8" cy="246.8" rx="2.5" ry="2.5"/>
	<path class="st6" d="M337.7,311.8l-25.2-16.6l-13.3-5.7l11.6,8.7L337.7,311.8L337.7,311.8z"/>
	<ellipse transform="matrix(0.7934 -0.6088 0.6088 0.7934 -86.8911 256.2693)" class="st6" cx="334" cy="256.1" rx="2.5" ry="2.5"/>
	<path class="st6" d="M329.7,322.2l-20.1-22.5l-11.4-8.9l8.9,11.4L329.7,322.2z"/>
	
		<ellipse transform="matrix(0.9239 -0.3827 0.3827 0.9239 -76.4358 150.6966)" class="st6" cx="340.6" cy="267.5" rx="2.5" ry="2.5"/>
	<path class="st6" d="M319.3,330.2l-13.6-27l-8.7-11.6l5.7,13.3L319.3,330.2L319.3,330.2z"/>
	
		<ellipse transform="matrix(0.9914 -0.1305 0.1305 0.9914 -33.6185 47.2834)" class="st6" cx="343.9" cy="280.1" rx="2.5" ry="2.5"/>
	<path class="st6" d="M307.2,335.2l-6.1-29.6l-5.4-13.4l2.1,14.3L307.2,335.2L307.2,335.2z"/>
</g>
</svg>
